<svg width="192" height="163" viewBox="0 0 192 163" fill="none" xmlns="http://www.w3.org/2000/svg">
<g id="Vector">
<path fill-rule="evenodd" clip-rule="evenodd" d="M121.565 107.66C121.19 113.162 113.724 116.023 109.196 117.197C110.103 111.799 111.276 106.203 110.546 100.729C110.306 98.9262 109.991 97.1326 109.653 95.3456C109.528 94.6848 109.398 94.0247 109.265 93.3656C109.232 93.2052 108.97 92.5037 109.053 92.3439C109.203 92.058 110.469 92.1028 110.792 92.1153C111.624 92.1472 112.44 92.3574 113.201 92.6898C114.801 93.3882 116.148 94.5905 117.258 95.9176C119.877 99.047 121.848 103.511 121.565 107.66ZM112.921 70.2574C108.587 72.8239 103.366 74.2014 98.4225 74.8728C90.8914 75.8955 83.2018 74.7181 75.839 73.0866C74.0312 72.686 72.2272 72.2542 70.446 71.7475C70.3657 76.9654 71.8336 81.9275 74.7007 86.2792C77.0711 89.8769 80.1644 92.8838 82.8683 96.2163C85.3854 99.3188 87.4155 102.818 87.5163 106.913C87.5584 108.622 87.4178 110.185 85.9871 111.293C84.5493 112.406 82.6073 112.818 80.8479 113.072C76.4423 113.707 71.8281 113.364 67.4502 112.665C66.6002 112.529 65.7519 112.374 64.9129 112.181C63.9604 111.962 63.6267 111.704 62.831 112.419C61.1143 113.962 60.3268 116.276 59.938 118.489C59.2093 122.635 59.4563 127.472 60.5069 131.562C61.5188 135.502 66.2951 137.686 69.8333 138.638C80.5058 141.511 92.281 137.544 100.47 130.483C100.649 130.329 100.826 130.173 100.999 130.012C101.58 131.223 102.215 132.413 102.91 133.564C103.393 134.364 103.901 135.168 104.51 135.881C104.73 136.138 104.988 136.485 105.289 136.654C105.848 136.967 106.417 136.737 107.051 136.627C111.725 135.815 116.388 134.748 120.833 133.067C127.589 130.511 133.649 126.302 136.851 119.652C138.469 116.292 139.312 112.612 139.721 108.921C140.189 104.683 140.29 100.351 139.098 96.2206C136.913 88.6511 131.337 82.5145 125.231 77.7816C121.453 74.8529 117.3 72.2063 112.921 70.2574Z" fill="#F3961C"/>
<path fill-rule="evenodd" clip-rule="evenodd" d="M189.294 20.1325C188.306 20.5251 187.242 20.6343 186.191 20.7111C185.367 20.7712 184.72 21.1018 183.943 21.1204C181.78 21.172 179.608 21.2691 177.456 21.5923C175.294 21.9172 173.303 21.4931 171.596 23.1173C170.988 23.6953 170.227 24.3598 170.592 25.2926C170.759 25.7199 170.995 26.0263 171.134 26.4849C171.292 27.0034 171.487 27.4931 171.715 27.9866C172.151 28.9335 174.336 32.4594 172.563 32.8907C170.64 33.3582 168.033 32.8118 166.181 32.277C165.101 31.9648 164.037 31.5991 162.973 31.2387C162.13 30.9535 161.022 30.7918 160.245 30.3448C159.73 30.0483 159.623 29.5423 159.283 29.0615C158.663 28.1868 158.084 27.4419 157.284 26.7141C155.623 25.2048 153.547 24.1799 151.5 23.279C151.368 23.2206 151.126 23.0843 150.984 23.0709C150.83 23.0566 150.66 23.2153 150.56 23.196C150.287 23.1429 150.192 22.9713 149.893 22.8015C149.492 22.5736 147.855 21.8154 147.569 22.4115C147.837 21.6283 148.033 21.8543 148.757 21.9679C149.077 22.0183 149.29 21.8721 149.577 21.8867C149.841 21.9 149.95 22.0505 150.171 22.0911C150.575 22.1654 150.952 22.1095 151.374 22.1063C151.488 21.856 151.649 21.8579 151.857 22.1119C151.973 22.1495 152.09 22.1872 152.206 22.2251C152.627 22.3404 153.076 22.3184 153.507 22.3523C154.154 22.4035 155.839 23.192 156.163 22.3939C156.509 21.5417 155.458 21.3293 155.283 20.7346C155.112 20.1511 155.913 19.8087 156.234 19.4563C156.6 19.0557 156.823 18.704 157.253 18.351C157.505 18.1438 157.834 17.9506 158.021 17.6746C158.192 17.4207 158.185 17.0101 158.408 16.7985C158.673 16.5462 158.714 16.7208 158.955 16.5989C159.428 16.3596 159.219 16.3717 159.499 16.0445C159.739 15.7647 159.915 15.7732 160.228 15.5588C160.687 15.2449 160.848 14.6316 161.294 14.2943C161.619 14.0473 162.138 14.0478 162.424 13.7913C162.593 13.6402 162.541 13.3953 162.686 13.2527C162.966 12.9786 163.157 13.0899 163.506 12.9996C164.095 12.8472 164.285 12.5219 164.719 12.1452C165.114 11.8013 165.366 11.8028 165.861 11.6602C166.538 11.4655 166.975 10.9555 167.586 10.6558C168.161 10.3739 168.755 10.1762 169.337 9.87594C169.757 9.65902 170.161 9.52443 170.545 9.30307C170.674 9.22836 170.685 8.95473 170.853 8.91769C171.045 8.87494 171.198 9.19387 171.402 9.21058C171.83 9.24572 172.317 8.77125 172.598 8.49655C172.72 8.37719 172.885 8.05446 173.042 7.9878C173.371 7.84812 173.567 8.12472 173.859 8.01552C174.27 7.8623 174.107 7.41365 174.359 7.16626C174.579 6.9504 175.047 6.965 175.438 7.03336C177.014 7.30805 174.561 8.42121 174.1 8.64638C173.325 9.02562 167.681 11.7844 169.002 13.1602C169.7 13.888 171.405 13.3407 172.165 13.149C173.496 12.8127 174.884 12.1653 176.249 12.0168C176.418 11.9984 176.922 12.1192 177.059 12.0665C177.369 11.9478 177.292 11.7103 177.544 11.5855C177.924 11.398 178.699 11.4071 179.085 11.4492C179.386 11.4822 179.716 11.6621 180.022 11.6377C180.36 11.6109 180.686 11.4145 181.021 11.3512C181.594 11.2433 182.187 11.2962 182.766 11.3129C183.598 11.3372 185.261 11.4629 184.052 12.5685C183.074 13.4632 181.381 13.8505 180.147 14.241C178.321 14.8181 176.527 15.3431 174.725 16.0007C173.496 16.4485 170.877 17.2351 172.339 18.9137C172.483 18.7774 172.627 18.6414 172.771 18.5051C172.942 18.6776 173.118 19.0132 173.391 19.0229C173.619 19.031 173.535 18.7868 173.75 18.7104C174.425 18.4708 175.351 18.489 176.063 18.4439C177.847 18.3309 179.625 18.0945 181.411 18.0213C183.094 17.9523 184.794 18.042 186.443 18.3948C186.867 18.4856 190.823 19.5245 189.294 20.1325ZM174.705 37.3935C174.794 38.1429 174.462 38.749 174.37 39.4728C174.258 40.3478 174.34 41.1186 174.092 41.9886C173.609 43.6797 173.267 45.4098 172.749 47.0909C171.835 50.0594 170.36 52.6811 168.843 55.3745C168.069 56.7477 166.903 57.8816 165.838 59.0304C164.747 60.2074 163.875 61.3661 162.57 62.3326C159.963 64.2643 157.149 65.9826 154.062 67.0261C150.831 68.1187 147.434 68.4497 144.04 68.3107C142.534 68.2491 140.937 68.4017 139.455 68.1581C137.879 67.8988 136.171 67.5806 134.622 67.1979C131.779 66.496 129.039 65.3043 126.262 64.24C123.161 63.0513 120.369 61.5339 117.541 59.8197C116.793 59.3662 116.002 59.1544 115.301 58.6054C114.709 58.143 114.127 57.7007 113.505 57.2783C112.791 56.7937 112.108 56.2637 111.378 55.8032C110.942 55.5279 110.329 55.2585 110.1 54.7601C109.786 54.0747 110.165 53.2138 110.361 52.5488C110.617 51.6833 110.888 50.8285 111.195 49.9801C111.715 48.5436 113.038 46.3276 112.31 44.8087C110.777 45.7592 110.1 47.627 109.445 49.215C108.661 51.1121 108.115 53.0047 107.997 55.0621C107.759 59.2011 108.452 63.5575 109.954 67.4168C110.177 67.9898 110.569 68.6114 110.281 69.2245C109.978 69.8678 109.158 70.4113 108.528 70.6894C106.533 71.5693 104.531 71.8256 102.448 72.3121C101.88 72.4446 101.259 72.8425 100.727 72.8926C100.368 72.9265 100.071 72.8086 99.6597 72.8114C99.2466 72.8143 98.9235 73.0456 98.5536 73.0704C98.2309 73.0922 97.9444 72.9034 97.6367 72.9212C96.9479 72.9612 96.8209 74.1417 96.4796 73.1026C96.4177 73.1453 96.0758 73.5328 96.0329 73.5328C95.9354 73.5332 95.7639 73.2441 95.6709 73.1927C95.4898 73.0924 95.2514 73.0867 95.0489 73.0604C94.6024 73.0025 94.1208 72.9965 93.681 73.099C92.8655 73.289 92.0453 73.209 91.3479 73.1953C91.1894 73.1921 91.077 73.3199 90.8796 73.3123C90.7898 73.3087 90.6604 73.1498 90.5651 73.1252C90.0138 72.983 89.4415 73.0892 88.88 73.0581C87.5607 72.9853 86.2865 72.9502 84.9983 72.6586C82.3579 72.0607 79.666 71.9409 77.0153 71.3943C75.6647 71.1158 74.3453 70.9636 73.0156 70.5967C72.5484 70.4676 72.0693 70.4066 71.6553 70.2306C71.2599 70.0623 71.4155 69.8382 70.8018 70.2883C70.526 69.6126 70.4934 69.6814 69.8279 69.4579C69.5705 69.3714 68.979 69.1566 68.7874 68.9864C68.7683 68.9695 68.3586 67.9407 68.3233 67.8144C68.1527 67.2 68.295 66.4977 68.3662 65.8793C68.5268 64.4853 68.7595 63.1023 68.7732 61.6973C68.7791 61.0774 68.8909 61.0597 69.0838 60.5926C69.1432 60.4478 69.3186 60.4593 69.3332 60.2388C69.3529 59.945 69.0524 59.7406 69.0847 59.3973C69.128 58.9358 69.5915 58.4681 69.7542 58.0378C69.9497 57.5198 69.9471 56.9721 70.064 56.4358C70.22 55.7226 70.5215 55.053 70.6737 54.3369C70.803 53.7301 70.8153 53.2476 71.1384 52.7272C71.4615 52.2077 71.3664 51.7834 71.6238 51.2659C71.8601 50.7915 72.1589 50.6211 72.3206 50.048C72.7122 48.6619 73.3075 47.2892 74.1505 46.1141C74.892 49.061 75.6809 52.1055 77.7458 54.4349C78.5962 55.394 79.6943 56.3617 80.9767 56.6538C82.4266 56.9841 83.5862 56.1289 84.5304 55.1159C86.78 52.7016 87.7118 50.007 87.8476 46.7335C87.8815 45.92 87.8766 45.105 87.8656 44.2909C87.8605 43.9286 87.6748 42.9987 87.9231 42.6942C88.1953 42.3602 88.9719 42.5689 89.3762 42.3486C89.8732 42.0775 90.4195 41.3522 90.1976 40.7542C91.5225 41.3541 92.7892 42.1437 94.2626 42.3109C94.8458 42.3771 95.4669 42.2764 95.9887 42.2485C95.9731 42.2493 96.3926 42.3348 96.4177 42.3405C96.521 42.2212 96.6331 42.1922 96.7535 42.2535C96.8607 42.2648 96.9386 42.3223 96.9877 42.4262C99.0877 42.636 101.202 41.5983 103 40.4991C104.05 39.8569 105.203 38.906 105.498 37.6557C105.603 37.2096 105.512 36.7893 105.974 36.5616C106.348 36.3764 107.072 36.6435 107.467 36.6725C108.858 36.7745 110.229 36.6424 111.587 37.057C112.415 37.3099 113.862 39.0827 114.44 37.8356C114.691 38.0709 114.554 38.49 114.821 38.7189C115.054 38.9185 115.836 39.059 116.158 39.2298C116.656 39.4941 116.948 39.8459 117.385 40.1635C117.921 40.554 118.482 40.584 119 41.0422C120.797 42.629 122.902 43.7783 124.909 45.0942C127.289 46.6554 129.396 48.4955 131.951 49.7689C134.563 51.0708 137.091 52.1586 139.946 52.836C141.241 53.1433 142.569 53.3998 143.899 53.4946C144.526 53.539 145.124 53.5166 145.729 53.7047C146.096 53.819 146.215 53.8762 146.576 53.8867C146.786 53.8929 147.09 53.7714 147.349 53.7761C147.881 53.7858 148.153 53.7638 148.633 53.9399C149.176 54.1388 149.628 54.2586 150.246 54.2757C150.958 54.2956 151.377 54.0224 152.023 53.8539C152.544 53.7181 153.013 53.7828 153.48 53.5007C155.552 52.2473 157.217 50.3331 158.303 48.1599C159.551 45.6658 160.512 42.6256 160.708 39.8306C160.82 38.2307 160.467 36.6706 159.856 35.2019C159.683 34.7875 158.649 33.0228 158.968 32.7021C159.329 32.3379 160.512 33.1728 160.846 33.3542C161.904 33.9292 163.815 34.1135 164.557 35.0808C164.745 34.7183 165.796 35.2556 166.133 35.407C166.412 35.532 166.491 35.7583 166.841 35.7854C167.172 35.8107 167.513 35.5473 167.817 35.4632C167.595 36.0825 168.341 36.1115 168.852 36.1443C169.221 36.168 169.616 36.11 169.944 36.0867C170.572 36.0421 170.582 35.9011 171.155 35.5794C171.133 35.815 171.159 36.045 171.232 36.2698C171.6 35.7363 172.303 36.1068 172.801 35.8723C172.441 35.3263 173.977 35.1769 174.335 35.2916C175.236 35.5809 174.625 36.7296 174.705 37.3935ZM104.188 74.9185C104.782 74.7414 105.38 74.5793 105.976 74.41C105.525 74.8244 105.056 75.5721 104.411 75.6887C103.633 75.829 103.327 75.175 104.188 74.9185ZM74.8515 75.2152C75.8519 75.335 76.9413 75.2434 77.8181 75.834C77.3908 76.3257 77.1133 76.8403 76.4003 76.5584C75.8014 76.3216 75.3084 75.6465 74.8515 75.2152ZM108.274 102.135C107.617 101.545 107.704 101.282 108.012 100.519C108.145 100.191 108.355 99.1715 108.853 99.4704C109.03 99.5762 109.244 100.687 109.276 100.913C109.347 101.416 109.035 102.817 108.274 102.135ZM111.979 98.7134C111.747 97.8605 111.755 96.9319 111.527 96.0583C111.286 95.1356 110.99 94.2099 110.905 93.2563C114.376 93.8694 116.347 97.3143 117.85 100.189C118.649 101.716 119.432 103.406 119.734 105.113C120.028 106.777 119.518 108.041 118.925 109.524C118.623 110.281 118.124 110.544 117.541 111.044C117.024 111.487 116.831 112.235 116.293 112.633C115.895 112.927 115.378 113.08 114.963 113.377C114.552 113.671 114.141 113.962 113.717 114.236C113.232 114.549 111.78 115.691 111.126 115.447C110.636 115.265 110.854 114.665 110.978 114.289C111.237 113.497 111.42 112.734 111.58 111.909C112.009 109.705 112.241 107.515 112.352 105.274C112.46 103.086 112.561 100.85 111.979 98.7134ZM109.076 108.652C109.128 108.76 109.345 109.685 108.861 109.495C108.525 109.363 109.027 108.822 109.076 108.652ZM111.121 71.924C111.531 71.7547 111.694 72.2554 112.055 72.2704C112.533 72.2901 112.633 71.7585 113.135 71.7429C114.361 71.7043 116.139 72.8897 117.136 73.5083C116.648 74.1256 116.446 74.7571 116.689 75.5172C116.903 76.1868 117.72 76.9356 117.69 77.6452C117.66 78.3567 116.775 78.8148 116.499 79.4478C116.246 80.0294 116.149 81.192 116.932 81.4483C118.277 81.8894 118.585 79.3684 119.605 79.349C120.041 79.3407 120.608 80.1606 120.921 80.4158C121.624 80.9874 122.416 81.4049 123.232 81.7846C123.784 82.0407 124.551 82.5454 124.96 81.857C125.288 81.3055 125.02 80.4317 124.701 79.9572C124.336 79.4129 121.063 76.9214 121.27 76.7019C121.38 76.5849 122.195 76.9076 122.311 77.0056C122.571 77.2266 122.667 77.5861 122.929 77.8214C123.328 78.1806 123.844 78.3228 124.338 78.4889C125.368 78.8351 126.02 80.0531 127.019 80.6202C127.595 80.9474 127.946 81.5753 128.434 82.0618C129.071 82.6986 129.721 83.3659 129.626 84.3036C129.559 84.9533 129.462 86.4669 129.095 87.015C128.696 87.6101 128.032 87.382 127.426 87.5225C126.745 87.6806 126.199 88.2126 126.335 88.9725C126.476 89.7626 127.108 89.8191 127.768 89.839C129.63 89.8953 128.944 91.0774 129.593 92.376C129.946 93.0811 130.534 93.3579 130.939 92.5326C131.265 91.8685 130.683 90.8215 131.037 90.2546C131.467 89.5636 133.774 89.7515 134.255 90.2882C134.619 90.6954 134.813 91.255 135.176 91.6808C135.728 92.3271 135.955 93.2333 136.286 94.0256C136.638 94.8672 136.944 95.7207 137.214 96.5924C137.403 97.2049 137.811 98.1746 136.833 97.6516C136.15 97.2864 135.64 96.4625 134.775 96.4365C133.918 96.4106 133.43 97.2999 133.681 98.0732C133.922 98.8215 135.026 99.1512 135.154 99.9099C135.294 100.74 133.873 101.587 133.441 102.197C132.447 103.602 133.279 105.185 134.908 103.992C135.485 103.569 136.09 102.716 136.741 102.449C137.772 102.026 137.766 103.592 138.26 104.169C138.525 104.479 138.621 104.164 138.464 104.627C138.406 104.798 138.112 104.852 138.078 105.064C138.055 105.22 138.194 105.302 138.199 105.423C138.215 105.831 138.216 105.891 138.124 106.335C138.023 106.827 138.059 107.439 138.029 107.939C137.959 109.082 137.944 110.174 137.824 111.316C137.757 111.952 137.617 113.248 138.368 113.557C138.101 113.976 137.745 115.141 137.22 115.053C137.263 115.329 137.239 115.681 137.506 115.862C137.57 115.693 137.634 115.525 137.698 115.357C137.845 115.741 137.716 115.786 137.707 116.047C137.718 115.723 137.412 116.499 137.577 116.403C137.436 116.521 137.251 116.588 137.039 116.741C136.743 116.954 136.587 117.248 136.357 117.536C135.942 118.057 135.966 118.582 135.602 119.125C135.085 119.895 134.423 120.656 133.879 121.425C133.436 122.051 132.593 122.413 132.238 123.086C132.012 123.514 131.922 124.012 131.537 124.314C130.986 124.745 130.249 125.151 129.65 125.597C129.273 125.877 128.987 126.265 128.611 126.537C128.42 126.675 127.848 126.814 127.847 127.095C127.126 126.893 126.615 126.156 126.048 125.708C125.669 125.408 124.767 125.019 124.821 124.419C124.866 123.928 125.564 123.318 125.725 122.803C125.862 122.367 126.052 121.552 125.674 121.18C124.883 120.398 123.985 122.076 123.56 122.523C122.683 123.444 122.311 122.515 121.59 121.846C120.438 120.777 119.714 121.886 120.12 123.217C120.325 123.891 121.107 124.492 121.157 125.18C121.213 125.936 120.394 126.316 120.07 126.92C119.764 127.489 119.622 128.49 120.198 128.962C120.832 129.482 121.384 128.867 121.799 128.387C122.121 128.014 122.48 127.193 123.003 127.147C123.659 127.088 124.735 128.28 125.234 128.647C124.476 128.867 124.019 129.502 123.378 129.908C122.551 130.433 121.397 130.557 120.471 130.917C119.599 131.257 118.815 131.533 117.984 131.954C116.999 132.454 115.794 132.579 114.751 132.942C113.819 133.267 112.936 133.723 111.984 133.991C110.912 134.294 109.799 134.475 108.718 134.749C107.793 134.982 106.709 135.206 105.756 135.208C104.792 135.21 104.812 134.613 104.504 133.818C104.138 132.874 103.532 132.045 103.145 131.123C102.777 130.247 103.333 129.914 103.866 129.243C104.368 128.611 104.235 128.512 104.882 128.956C105.735 129.54 106.298 129.145 106.961 128.473C107.551 127.876 107.768 127.38 108.617 127.796C109.466 128.212 110.275 128.889 111.188 129.16C111.907 129.374 112.443 129.218 112.563 128.432C112.693 127.582 112.209 126.979 111.598 126.474C111.133 126.09 110.117 125.635 109.947 125.012C109.768 124.355 110.711 123.398 110.812 122.664C110.939 121.737 110.54 121.056 109.661 121.697C109.024 122.163 108.599 123.172 107.714 123.234C107.96 122.203 108.493 121.286 108.951 120.341C109.334 119.55 109.663 118.651 110.692 118.563C111.026 118.535 111.243 118.57 111.561 118.512C111.982 118.436 112.552 118.376 113.002 118.263C114.059 117.996 114.993 117.179 115.967 116.711C116.19 117.312 116.585 119.023 117.494 118.024C118.167 117.285 117.422 116.013 118.041 115.191C119.319 113.495 122.103 114.74 123.781 113.866C124.512 113.485 125.107 112.271 124.077 111.905C123.475 111.691 121.736 112.48 121.373 111.898C121.115 111.483 122.197 109.861 122.328 109.416C122.735 108.028 122.669 106.588 122.669 105.159C123.486 105.493 124.52 106.275 125.4 106.383C126.306 106.493 126.465 105.43 126.228 104.731C125.901 103.77 124.811 102.981 124.065 102.362C123.735 102.089 122.874 101.649 122.693 101.234C122.507 100.805 122.774 100.597 122.983 100.225C123.309 99.6422 124.101 98.1371 123.24 97.5915C122.447 97.0895 122.003 98.4964 121.498 98.7974C120.641 99.308 120.347 98.1382 120.007 97.5426C119.389 96.4618 118.532 95.497 117.763 94.5244C117.062 93.6392 116.631 93.04 116.529 91.9118C116.451 91.0573 116.277 90.396 117.284 90.2017C119.07 89.8576 121.685 90.7056 123.136 89.2521C123.897 88.49 123.353 87.7021 122.393 87.7413C121.13 87.7929 119.931 87.8552 118.66 87.7527C117.985 87.6983 116.573 87.8624 116.232 87.1663C115.794 86.2701 116.538 84.8301 115.73 84.0448C114.698 83.0417 114.445 85.3084 114.411 85.9342C114.386 86.3903 114.503 87.0844 114.219 87.4789C113.955 87.8467 113.471 87.8414 113.079 87.9745C112.093 88.3095 111.584 89.5213 112.892 89.7776C113.332 89.8639 113.946 89.7384 114.311 90.0648C114.694 90.4061 114.548 91.0131 114.584 91.4734C113.668 90.411 111.763 90.8819 110.522 90.4874C109.868 90.2796 109.758 90.0027 109.483 89.3698C109.15 88.6037 108.392 87.6351 108.363 86.7879C108.338 86.0688 108.937 85.5277 109.217 84.9076C109.457 84.3758 109.674 83.51 109.638 82.913C109.553 81.4733 106.956 82.9431 106.421 83.4939C105.45 84.4937 104.253 85.7867 104.779 87.2027C105.249 88.4663 105.498 89.1827 103.869 89.0834C103.273 89.047 102.021 89.1651 101.558 88.9133C101.215 88.7264 101.344 88.3914 101.332 87.9057C101.323 87.4852 101.355 86.8478 101.085 86.4802C100.135 85.1874 99.9125 88.4043 99.3791 88.7529C98.5458 89.2978 96.7814 88.7266 96.9175 90.3441C97.0367 91.7593 98.949 91.1813 99.4782 92.3988C99.7328 92.9854 99.6787 93.6682 99.9995 94.234C100.457 95.0408 101.02 94.9978 101.323 94.1568C101.536 93.5661 101.252 92.959 101.416 92.4016C101.652 91.5957 102.778 91.6704 103.471 91.5792C104.313 91.4685 105.047 91.2564 105.847 90.9974C106.836 90.6776 106.782 91.2025 106.943 91.9626C107.129 92.8443 107.415 93.6944 107.59 94.5894C107.753 95.4234 108.185 96.3215 108.256 97.1562C108.309 97.7943 108.093 97.7361 107.565 98.1043C106.987 98.5068 106.352 99.5529 105.682 99.7249C104.674 99.9838 103.657 97.6789 102.74 98.8583C102.346 99.3645 102.499 100.443 102.779 100.966C103.149 101.657 103.829 101.833 103.259 102.624C102.831 103.219 102.292 103.68 102.252 104.48C102.214 105.223 102.719 105.926 103.509 105.708C104.147 105.532 104.525 104.878 105.008 104.481C105.842 103.796 106.527 104.431 107.381 104.818C108.053 105.124 109.288 105.323 109.625 106.041C110.053 106.952 109.504 107.304 108.709 107.045C109.019 108.064 108.611 108.655 108.499 109.708C108.409 110.56 108.213 111.34 108.088 112.164C107.922 113.264 107.905 113.144 106.773 113.182C105.811 113.214 104.876 113.188 103.916 113.146C103.07 113.109 102.494 113.185 102.456 112.164C102.439 111.713 102.723 110.185 101.835 110.368C101.053 110.53 101.278 111.926 101.016 112.451C100.638 113.21 99.9979 112.978 99.2857 113.166C98.561 113.357 97.9754 113.892 98.1622 114.718C98.3619 115.601 99.1707 115.539 99.8738 115.743C100.956 116.058 100.719 117.651 101.351 118.516C101.609 118.869 101.88 119.225 102.313 118.936C103.107 118.404 102.358 117.106 102.567 116.455C102.788 115.77 103.532 115.91 104.235 115.821C105.273 115.69 106.359 115.189 107.393 115.195C107.195 115.792 106.64 116.139 106.44 116.767C106.332 117.104 106.432 117.733 106.284 118.012C106.124 118.311 105.619 118.4 105.411 118.817C105.138 119.362 105.053 119.946 104.734 120.479C103.978 121.742 103.328 123.032 102.525 124.282C101.696 125.572 100.802 126.8 99.7595 127.918C98.7476 129.004 98.4458 128.478 97.5762 127.591C97.2225 127.23 96.4708 126.812 96.3723 126.273C96.2751 125.741 96.7148 125.307 96.9556 124.874C97.2747 124.301 97.851 123.314 97.7106 122.625C97.4471 121.333 96.2915 122.523 95.8535 123.007C95.0884 123.852 94.6607 124.741 93.5045 124.073C92.7642 123.646 91.8308 122.475 90.8593 122.908C89.9749 123.302 90.2226 124.44 90.7667 125.018C91.0715 125.341 91.5058 125.526 91.8291 125.829C92.525 126.482 92.1311 126.659 91.8133 127.39C91.5533 127.988 91.5157 129.165 91.995 129.663C92.9382 130.643 93.6675 128.665 94.5426 128.625C94.9576 128.606 96.6823 129.738 96.8053 130.146C97.0211 130.861 95.1603 131.714 94.666 132.05C93.5159 132.831 92.2632 133.626 90.9696 134.144C89.443 134.755 90.5808 132.83 89.7462 132.19C88.6608 131.358 88.5769 133.637 88.4656 134.204C88.1695 135.71 86.5788 135.749 85.2956 136.122C84.4786 136.36 83.661 136.613 82.8355 136.82C82.1352 136.995 81.3509 136.991 80.6719 137.208C80.0764 137.399 79.669 137.786 79.0028 137.79C78.7864 137.792 78.5981 137.718 78.3894 137.713C77.9682 137.703 77.5821 137.944 77.1795 137.919C76.51 137.877 76.8014 137.666 76.5683 137.199C76.3496 136.761 75.7932 136.599 75.3601 136.463C74.1186 136.07 73.085 136.414 72.9047 134.835C72.8493 134.351 72.9225 132.36 72.0004 132.593C70.9233 132.864 71.8711 135.23 71.2024 135.823C70.8772 136.111 70.3861 135.967 69.9938 136.053C69.3501 136.192 69.068 136.679 68.3632 136.646C67.7687 136.619 67.2153 136.355 66.6971 136.093C65.9249 135.702 65.0033 135.443 64.3594 134.846C63.4766 134.029 63.0893 132.755 62.7131 131.65C62.1594 130.022 61.9234 128.399 61.8344 126.692C61.8033 126.097 61.5506 125.677 61.4449 125.131C61.3327 124.55 61.6645 124.434 61.741 123.883C61.8151 123.348 61.7792 122.777 61.8917 122.204C62.0533 121.38 62.11 120.536 62.2668 119.71C62.5263 118.343 62.9198 116.985 63.2429 115.63C63.3433 115.209 63.525 113.86 64.0445 113.73C64.4276 113.635 65.3124 114.205 65.6677 114.373C66.3699 114.704 66.9735 115.162 67.725 115.391C68.1126 115.509 68.602 115.498 68.8565 115.858C69.2586 116.427 68.9336 117.543 69.1001 118.216C69.3041 119.041 69.9797 119.391 70.5241 118.563C70.814 118.122 70.7369 117.596 70.7758 117.108C70.8313 116.404 70.8438 116.234 71.605 116.282C72.3759 116.33 73.1287 116.621 73.9193 116.656C74.6321 116.688 75.3483 116.669 76.0605 116.63C77.7898 116.535 79.3716 116.254 80.9934 115.638C82.0919 115.221 83.366 114.309 84.5767 114.341C86.2857 114.386 85.8231 115.969 86.057 117.152C86.1995 117.873 87.4043 120.084 87.8671 118.289C88.0957 117.402 87.3333 116.107 87.7851 115.305C88.3187 114.358 90.2801 115.144 91.1725 114.925C91.8946 114.747 93.1015 113.723 92.5916 112.84C92.35 112.421 91.8809 112.501 91.4624 112.469C90.6695 112.41 89.8821 112.302 89.0958 112.186C88.6486 112.12 87.9649 112.082 87.7861 111.568C87.6344 111.132 88.346 110.001 88.5004 109.584C89.0112 108.203 89.1953 107.08 89.1974 105.574C89.198 104.895 89.2424 104.179 89.1334 103.508C89.0932 103.262 88.724 102.459 88.8969 102.224C89.1294 101.907 89.6051 102.309 89.7959 102.546C90.1752 103.018 90.0434 102.98 89.8278 103.469C89.5104 104.189 88.8933 105.698 89.9398 106.252C91.0341 106.831 91.4295 104.874 92.4663 105.088C92.9496 105.188 93.4268 105.824 93.8162 106.121C94.2723 106.469 94.7647 106.838 95.3006 107.051C96.1797 107.401 97.1679 107.138 96.8127 106.033C96.5325 105.161 95.6461 104.431 95.0126 103.813C94.0031 102.828 94.0487 102.414 94.7463 101.254C95.0382 100.769 96.159 98.7072 94.8598 98.5396C94.1723 98.4507 93.4287 99.5658 93.0654 99.9924C92.442 100.725 92.0846 101.039 91.1571 100.451C90.2505 99.8765 89.8295 99.3961 88.7329 99.3432C87.4715 99.2822 86.9038 97.3865 86.235 96.4128C84.418 93.7682 81.636 92.4602 79.2905 90.4338C78.1474 89.4464 77.3756 88.1544 76.5064 86.9388C76.0924 86.3598 75.5579 85.8788 75.2207 85.2479C75.0085 84.8511 74.4337 83.8947 74.5833 83.4266C74.7695 82.8438 75.7748 82.484 76.193 82.0724C76.544 81.727 76.7313 81.2964 77.2835 81.4284C77.7748 81.5459 78.2175 82.211 78.6193 82.5033C79.0134 82.79 79.4583 83.0563 79.8955 83.2707C80.6863 83.6586 81.6411 83.866 81.6874 82.6861C81.7277 81.6655 80.797 80.5724 80.1246 79.884C79.6351 79.3828 78.8938 78.9471 78.9908 78.1514C79.0386 77.7567 79.3737 77.0543 79.5694 76.7233C80.2438 75.5839 82.3026 76.2791 83.4213 76.3521C84.7692 76.4404 86.2553 76.2139 87.3267 77.1677C87.676 77.4788 88.4861 78.0898 88.6577 78.5228C88.8572 79.0269 88.5311 79.2533 88.35 79.7413C88.1156 80.3716 87.9546 81.6161 88.6289 82.0508C89.7545 82.7761 90.3411 80.6247 91.5113 81.0953C92.6207 81.5416 93.3963 82.8245 94.6628 83.0277C96.3203 83.2933 95.3765 81.2388 94.8029 80.6342C94.0591 79.8505 92.6165 79.04 93.0888 77.8811C93.2237 77.5499 93.532 76.859 93.8093 76.6535C94.3522 76.2507 95.2273 76.4719 95.8488 76.4785C97.4177 76.4952 98.8987 76.3661 100.436 76.0918C100.9 76.0091 101.005 75.9435 101.332 76.2888C101.784 76.7665 102.022 77.3891 102.548 77.8587C101.788 78.6779 100.661 79.6448 101.19 80.9057C101.644 81.9907 102.641 81.4585 103.315 80.8788C103.632 80.6067 103.959 80.0306 104.379 79.9214C104.923 79.7796 105.536 80.2746 105.981 80.5258C106.651 80.9032 108.083 82.0216 108.843 81.3613C109.849 80.488 108.659 79.1737 107.966 78.6343C107.547 78.3082 106.989 78.0754 106.636 77.6727C106.167 77.1368 106.442 77.0581 106.726 76.5752C107.247 75.6916 107.056 74.5535 107.888 73.8632C108.35 73.4803 109.01 73.2397 109.537 72.9591C110.055 72.6827 110.612 72.1344 111.121 71.924ZM119.601 75.3606C119.399 75.2366 119.196 75.1126 118.994 74.9886C119.457 74.763 119.762 74.7899 119.601 75.3606ZM130.769 86.0978C130.85 85.6853 131.168 84.9476 131.606 85.3334C131.888 85.5812 131.58 86.5124 132.251 86.2548C132.285 86.848 131.844 86.7976 132.495 87.3252C131.673 87.23 130.538 87.2673 130.769 86.0978ZM98.8586 136.098C99.0655 135.542 99.0638 134.681 99.7012 135.189C99.7345 134.516 99.5752 132.383 100.796 132.47C101.294 132.505 101.289 132.944 101.421 133.324C101.65 133.988 102.037 134.593 102.364 135.211C101.152 135.26 99.9393 135.537 98.8586 136.098ZM99.2552 143.765C99.9478 144.288 100.295 143.67 100.949 143.445C101.552 143.237 102.178 143.362 102.847 143.214C103.676 143.031 104.652 143.059 105.462 143.051C105.662 143.05 106.079 143.081 106.281 143.104C106.648 143.147 106.615 143.223 106.996 143.325C107.143 143.291 107.291 143.266 107.441 143.251C107.624 143.243 107.769 143.319 107.875 143.479C108.217 143.593 108.341 143.517 108.669 143.597C109.449 143.787 110.031 144.257 110.54 144.88C111.577 146.148 111.608 148.054 111.584 149.623C111.577 150.07 111.543 150.515 111.592 150.961C111.638 151.369 111.927 151.987 111.809 152.394C111.63 153.009 111.076 152.871 110.431 152.898C110.051 152.914 109.672 153.159 109.369 153.181C109.077 153.202 108.96 153.094 108.664 153.028C107.892 152.855 106.981 153.102 106.22 153.312C105.438 153.528 104.753 153.74 103.961 153.893C103.446 153.992 102.982 154.049 102.462 154.114C102.035 154.167 101.851 154.391 101.479 154.484C101.12 154.573 100.771 154.439 100.409 154.51C99.9152 154.605 99.5714 154.967 99.1217 155.147C98.5021 155.396 97.5113 155.024 97.2368 155.791C97.1293 155.052 96.4205 155.253 95.8928 155.187C95.0232 155.079 94.1664 154.689 93.3302 154.441C92.6444 154.237 90.2733 152.357 89.8194 153.12C89.82 153.043 89.9024 152.606 89.8308 152.556C89.5778 152.378 89.5799 152.476 89.3075 152.364C88.8908 152.194 88.7151 152.04 88.4174 151.753C87.8151 151.172 87.0044 150.869 86.37 150.342C84.7757 149.019 84.2301 146.293 83.8412 144.396C83.3326 145.298 83.5198 144.141 83.6077 143.754C83.8159 142.842 83.5481 142.392 83.4877 141.51C83.4319 140.7 83.8015 140.539 84.5333 140.455C85.4351 140.35 86.303 140.204 87.1862 139.979C88.0296 139.764 88.8559 139.522 89.6169 139.094C90.3134 138.703 91.0442 138.549 91.7564 138.207C92.5419 137.829 93.312 137.432 94.1045 137.064C94.4616 136.898 96.0344 135.711 96.3074 135.783C96.8679 135.932 96.3389 136.913 96.1679 137.171C95.7288 137.832 95.0079 138.139 94.3577 138.556C93.771 138.931 91.992 140.709 93.7981 140.53C94.9948 140.412 95.8055 139.158 96.5711 140.587C96.8414 141.092 97.2389 141.497 96.9283 142.019C96.4944 142.746 95.2429 143.093 94.5867 143.583C94.0276 144 92.8834 145.968 94.0364 146.179C94.3678 146.24 94.8788 146.161 95.1252 145.904C95.2915 145.73 95.2797 145.372 95.4479 145.254C95.6861 145.085 96.1489 145.294 96.4209 145.201C96.8085 145.069 96.8993 144.858 97.0418 144.486C97.4556 144.675 97.4615 144.928 97.934 144.684C98.0906 144.603 98.1483 144.307 98.3296 144.228C98.5733 144.122 98.6458 144.47 98.7795 144.419C99.1418 144.28 99.1405 144.123 99.2552 143.765ZM74.417 137.977C73.7232 138.029 72.9653 138.085 72.373 137.643C73.0926 137.686 73.7272 137.848 74.448 137.7C74.7348 137.641 75.1936 137.37 75.4874 137.464C76.5309 137.799 74.6949 137.956 74.417 137.977ZM72.4899 76.9273C72.4795 76.6831 72.2724 73.3988 73.3943 74.6889C73.7014 75.0419 73.3703 75.5145 73.3265 75.9049C73.2528 76.5627 73.4833 77.2219 73.8299 77.7757C74.153 78.2923 74.7568 78.7446 74.6664 79.4182C74.5871 80.0093 73.9907 80.5138 73.6968 81.0043C72.974 79.8651 72.548 78.298 72.4899 76.9273ZM70.0241 42.4603C67.4245 42.7337 64.838 43.2179 62.3316 43.965C59.8707 44.6985 57.5767 45.8453 55.2643 46.9439C54.7878 44.9031 54.2886 42.8677 53.818 40.8255C53.5914 39.8425 53.375 38.8571 53.1631 37.8707C53.0122 37.1694 52.4634 35.862 52.6924 35.1721C52.814 34.8066 52.9744 34.8051 53.2358 34.5793C53.3953 34.4415 53.6737 34.1046 53.8391 34.0324C54.2423 33.8572 55.2774 33.7036 55.69 33.7285C56.0659 33.7512 56.2624 33.9006 56.6492 33.7924C56.9786 33.7004 57.2551 33.4471 57.5642 33.308C58.3506 32.9544 59.3322 32.8359 60.1733 32.6488C60.9827 32.4687 61.8183 32.4287 62.6296 32.2503C63.3403 32.0939 63.678 31.5708 64.2841 31.5896C65.8615 31.6389 67.6058 31.4542 69.1709 31.0773C70.9269 30.6544 72.8371 30.7361 74.6387 30.6908C75.3563 30.6728 75.8608 30.5114 75.8644 31.3105C75.8686 32.2859 75.4791 33.3806 75.2805 34.3327C74.8396 36.4437 74.4664 38.4957 74.2997 40.6392C74.2164 41.7114 73.7769 41.6364 72.9053 41.9653C71.9355 42.3312 71.0553 42.352 70.0241 42.4603ZM56.3565 64.1181C56.997 64.2127 56.9235 62.4606 56.9704 62.1045C58.4975 64.9847 60.2175 67.7564 61.563 70.7311C61.8775 71.4267 62.163 72.1384 62.4954 72.8255C62.7228 73.296 63.2317 73.9277 63.2194 74.475C63.2066 75.0462 62.7452 75.2599 62.2589 75.4717C61.7336 75.7005 61.5284 75.8146 61.1581 75.55C60.7099 75.2296 60.3356 74.2428 60.059 73.7671C59.6361 73.0408 59.2314 72.3041 58.8174 71.5729C58.0674 70.2475 57.1824 68.9784 56.5661 67.5869C55.9888 66.2833 55.1153 65.1617 54.4932 63.8811C53.877 62.6128 53.0335 61.4105 52.3252 60.1693C53.0367 59.8733 53.9234 59.1336 54.7318 59.1747C55.5665 59.2172 55.5463 60.0231 55.5824 60.6946C55.6206 61.4074 55.382 63.974 56.3565 64.1181ZM58.4074 77.1307C58.0266 77.5827 57.1676 77.8483 56.6407 78.0989C55.9112 78.446 55.1642 78.7547 54.438 79.109C52.0557 80.2715 49.6831 81.3357 47.2562 82.4034C46.0015 82.9551 44.7623 83.5417 43.538 84.1576C42.8967 84.4803 41.4837 85.6108 40.7457 85.6396C39.9 85.6724 39.8801 83.9644 39.6937 83.3236C39.5371 82.7875 39.2466 82.3702 39.0511 81.8621C38.9714 81.6542 39.0333 81.497 38.9118 81.2913C38.7736 81.057 38.3865 80.8683 38.1874 80.6662C37.3421 79.8076 36.6413 78.7145 35.9272 77.7472C35.2731 76.8611 34.1575 75.7517 33.8437 74.6659C33.2268 72.5314 36.811 71.3499 38.1823 70.4921C40.5832 68.9906 42.9958 67.4483 45.2845 65.78C46.327 65.0201 47.3477 64.2301 48.3955 63.4769C48.8845 63.1256 50.2395 61.7585 50.867 62.2454C51.1007 62.427 51.1051 62.9288 51.2028 63.1918C51.4158 63.7666 51.7393 64.2686 52.0671 64.7841C52.3581 65.2408 52.7719 65.7129 52.9539 66.2223C53.1707 66.8299 53.1605 67.174 53.5574 67.719C54.2791 68.7102 54.62 69.8537 55.291 70.864C55.9381 71.8383 56.5596 72.557 56.9827 73.6456C57.2255 74.2695 57.6084 74.8231 57.947 75.3968C58.1063 75.6677 58.273 75.9342 58.4159 76.2146C58.6718 76.7159 58.7621 76.7096 58.4074 77.1307ZM37.9287 85.468C37.4708 85.7958 36.7966 85.2449 36.3524 85.2373C36.1592 85.2339 35.9674 85.3846 35.8382 85.3806C35.45 85.3689 35.1328 85.1082 34.7757 84.9867C33.126 84.4255 31.1594 84.4041 29.7502 83.2645C26.9507 81.0005 28.2855 76.4579 28.7952 73.515C28.8992 72.9148 29.086 72.0838 28.6012 71.5924C28.0697 71.0536 27.2705 71.375 26.784 71.811C26.2848 72.2577 25.9457 72.8837 25.5308 73.4056C24.87 74.2369 24.1487 75.0225 23.4203 75.7941C20.8319 78.5351 18.0909 81.6714 14.8891 83.6829C13.5573 84.5197 12.3521 85.6536 10.8924 86.2912C9.13667 87.0584 10.9391 84.0973 11.2548 83.616C13.3212 80.4672 16.3295 77.9745 18.8562 75.2102C19.3329 74.6885 20.01 73.9853 20.0185 73.2338C20.0314 72.1052 19.0345 72.2065 18.2465 72.5197C17.5094 72.8128 17.14 73.5423 16.547 74.0407C15.8086 74.6612 14.9459 75.1645 14.1241 75.6652C12.3516 76.7453 10.47 77.6517 8.59418 78.5355C7.71674 78.9488 6.83507 79.3532 5.9534 79.7578C5.71143 79.8689 4.26509 80.7866 4.33419 79.9999C4.3437 79.8941 5.26637 78.7736 5.38028 78.7319C5.94833 78.5243 6.23003 79.1511 6.73554 78.3296C7.0948 77.7461 7.14467 77.4433 7.65186 77.0005C7.73809 76.9254 7.79747 76.7349 7.86742 76.6114C7.85876 76.6579 8.24422 76.2829 8.17047 76.3481C8.2717 76.2588 8.41878 76.0948 8.50099 75.9875C8.89744 75.4698 9.6595 75.4599 10.0042 74.8684C10.1356 74.643 10.061 74.3541 10.2195 74.1304C10.4414 73.8168 10.9298 73.6833 11.1904 73.4073C11.4138 73.1703 11.5978 72.9769 11.7365 72.8319C11.832 72.732 11.9996 72.662 12.1126 72.5477C12.3937 72.2633 12.3717 72.0112 12.7652 71.7721C13.1186 71.5575 13.2811 71.7583 13.4032 71.2267C13.8333 71.5024 13.7794 71.0991 13.9539 70.8102C14.1809 70.4344 14.4692 70.2667 14.7819 69.9948C15.47 69.3963 16.115 68.5054 16.7006 67.752C18.1565 65.8784 19.3342 63.6877 19.7678 61.3369C19.8716 60.7748 19.9289 60.2068 19.9701 59.6369C19.9921 59.3372 19.8942 58.6073 20.08 58.3136C20.368 57.8582 20.9149 58.0389 21.3313 57.8395C21.4726 57.7718 21.6121 57.572 21.7448 57.5267C21.9304 57.4635 22.1576 57.5253 22.3501 57.4641C22.4249 57.4404 22.4422 57.2203 22.5661 57.1922C22.8087 57.1365 23.0498 57.2248 23.2897 57.2281C23.8146 57.2351 24.333 57.1426 24.8364 56.9752C25.2943 56.8231 25.6777 56.4741 26.1346 56.3484C26.0879 56.3613 26.8878 56.4248 26.8447 56.3799C26.8829 56.1829 26.9212 55.9859 26.9594 55.7889C27.2631 56.0009 28.2986 56.2807 28.6198 56.2322C29.1361 56.1543 29.0273 55.689 29.4649 56.3001C29.7128 56.0841 29.9605 55.868 30.2082 55.6519C30.3958 56.4394 31.6883 56.0572 32.2744 56.1008C33.0998 56.1624 33.7501 56.0073 34.5024 56.2946C35.4175 56.6447 36.2199 57.0135 37.2053 57.109C37.8941 57.1754 38.1804 57.4992 38.855 57.699C39.7616 57.9674 39.8332 58.2632 39.5496 59.1897C39.3197 59.9408 39.121 60.52 39.4568 61.2905C40.0528 62.6572 41.672 63.2202 42.716 64.1647C40.2705 65.8812 37.8558 67.5698 35.4917 69.3989C34.5012 70.165 33.4477 70.9325 32.8836 72.0851C32.3633 73.1489 32.0681 74.4274 31.7551 75.5661C31.037 78.1772 33.0599 79.9343 35.1381 81.0828C35.5682 81.3203 38.5299 85.038 37.9287 85.468ZM33.8953 88.624C33.749 88.1218 33.7683 87.9878 34.253 87.8075C34.4365 87.7394 35.1398 87.6503 35.2535 87.9021C35.5113 88.4735 34.1569 88.4661 33.8953 88.624ZM54.5033 52.2348C54.6771 53.349 54.848 54.4636 55.0031 55.5804C55.0885 56.1975 55.2825 56.7433 54.8229 57.2087C54.5619 57.473 53.9283 57.5716 53.5948 57.7123C53.1138 57.9155 52.6453 58.1483 52.1827 58.3904C51.3581 58.8223 50.4963 59.0824 49.6825 59.4718C49.3285 59.6409 49.1186 59.9742 48.8122 60.204C48.3929 60.5187 47.8828 60.6717 47.4502 60.971C46.6769 61.5062 45.9681 62.1398 45.1953 62.6786C44.3198 63.2892 44.1374 63.093 43.6456 62.1908C43.2041 61.3809 42.6743 61.0114 42.0387 60.3765C41.7916 60.1296 40.9068 58.7224 41.6583 58.6012C41.8508 58.5701 42.5161 58.8594 42.6667 58.9521C42.8958 59.0926 43.2618 59.8915 43.448 59.905C43.7834 59.9296 44.213 58.9745 44.422 58.7231C45.7919 57.0741 47.2989 55.4428 48.8864 54.0004C49.7091 53.2527 50.5734 52.5715 51.5063 51.9679C52.1696 51.5389 52.7485 50.9375 53.4025 50.5305C53.5407 50.4107 53.6975 50.325 53.8734 50.2738C54.2147 50.1187 54.3427 50.2525 54.2578 50.6751C54.4535 51.0884 54.4323 51.7785 54.5033 52.2348ZM24.5382 50.7745C24.8713 50.4355 25.2918 50.1644 25.5822 49.7862C25.746 49.5729 25.8539 49.1911 26.0414 49.0532C26.3677 48.8127 26.8345 48.9236 27.2141 48.6013C27.5807 48.2898 27.9026 47.9167 28.2606 47.5936C29.0366 46.8933 29.8375 46.2495 30.5989 45.5365C31.0315 45.1315 31.4855 44.6058 31.8699 44.3383C31.9717 44.2674 32.0859 44.1618 32.1943 44.1072C32.4259 43.9906 32.5413 44.1093 32.8794 44.0005C33.103 43.9288 33.2625 43.6458 33.442 43.5119C33.8682 43.1934 34.4238 43.0673 34.8342 42.7608C35.2446 42.4544 35.442 41.9784 36.0069 41.7228C36.6901 41.4138 37.2022 41.658 37.696 41.067C37.8974 40.8261 37.9526 40.5224 38.2687 40.3705C38.6498 40.1872 38.9843 40.3817 39.3482 40.1735C39.5934 40.0329 39.7609 39.7383 40.0143 39.5847C40.4676 39.3102 40.9691 39.2812 41.393 38.9416C41.7508 38.6552 41.5522 38.6844 41.9759 38.5636C42.1621 38.5105 42.3688 38.4876 42.5676 38.4197C43.2046 38.2024 44.2447 37.9363 44.622 37.3321C44.8134 37.6115 44.8792 37.6682 45.1898 37.5814C45.353 37.4487 45.5026 37.3027 45.6389 37.1434C45.7388 37.2697 45.8462 37.2773 45.9605 37.166C46.6328 36.9349 47.2494 36.5379 47.9115 36.3176C48.0054 36.3682 48.0992 36.419 48.1928 36.4695C48.3234 36.4767 48.3762 36.413 48.3515 36.278C48.6121 36.2304 48.9122 36.1159 49.1522 36.0114C49.6125 35.8107 50.1208 35.3342 50.663 35.5047C51.5686 35.7896 51.6119 37.6367 51.7681 38.3687C52.1531 40.1728 52.5407 41.9761 52.9274 43.7798C53.0847 44.5137 53.2229 45.2532 53.43 45.9748C53.5652 46.4463 53.9021 47.1415 53.7806 47.6429C53.6314 48.2574 53.0318 48.4576 52.5304 48.7419C51.8393 49.1336 51.1713 49.5681 50.5172 50.0192C47.7408 51.9345 45.6708 54.5684 43.7023 57.2705C43.3375 56.7405 42.3605 55.9963 41.7517 55.7573C41.3252 55.5901 40.9414 55.7249 40.5169 55.5209C40.214 55.3753 39.9628 55.0907 39.6764 54.9074C37.9283 53.7877 35.8184 52.8623 33.7921 52.418C29.6348 51.5061 25.5648 52.9181 21.5337 53.5881C22.3518 52.4635 23.5747 51.7546 24.5382 50.7745ZM52.3664 20.2567C53.0777 17.9379 54.2757 15.693 55.981 13.9534C56.8406 13.0764 57.851 12.3099 58.9835 11.8223C59.9688 11.3984 61.1406 10.9919 61.1254 12.355C61.092 15.3141 60.4085 18.2397 60.3251 21.2035C60.2437 24.1079 60.73 26.4392 62.4876 28.7796C61.3739 29.0382 60.2608 29.3006 59.1513 29.5758C58.3088 29.7846 57.4351 30.0191 56.638 30.1626C55.8499 30.3042 55.1253 30.3965 54.3461 30.6629C53.8209 30.8424 52.998 31.3911 52.4298 31.272C51.4851 31.0741 51.7087 27.6853 51.6603 26.8709C51.5238 24.5716 51.6878 22.4697 52.3664 20.2567ZM69.6312 24.7214C70.9218 23.155 72.2627 21.3273 74.4339 21.0364C76.5332 20.7551 77.3069 23.2731 77.1736 24.9707C77.1283 25.5453 77.043 27.0371 76.6256 27.5024C76.1638 28.0173 75.3445 27.6292 74.7579 27.5498C72.2259 27.207 69.6299 27.7792 67.091 27.7792C67.9376 26.7596 68.7886 25.744 69.6312 24.7214ZM80.0204 30.9689C80.901 31.095 81.6043 31.2294 81.1791 32.2319C80.3279 34.2398 79.6738 36.1563 80.4198 38.3452C80.9896 40.0168 82.7935 42.0462 84.5963 42.3812C85.228 42.4986 86.1783 42.2885 86.5666 42.9301C86.9123 43.5017 86.5376 45.2157 86.497 45.8504C86.3472 48.2147 85.7417 50.5606 84.2115 52.4185C82.8499 54.0715 81.1884 55.3652 79.208 53.8048C77.5387 52.4898 76.5531 50.1371 76.0592 48.1266C75.7955 47.0533 75.7634 45.9824 75.7131 44.8856C75.6685 43.9155 75.4836 43.3003 76.5804 43.0992C76.8745 43.0455 77.6089 43.0622 77.61 42.6133C77.6117 42.0102 76.8151 42.2364 76.5106 42.2059C75.3356 42.0887 75.8859 40.7222 75.9954 39.8384C76.182 38.3338 76.484 36.8458 76.7613 35.3562C76.9973 34.0872 77.0098 32.4245 77.5225 31.2381C77.8217 30.5454 79.4327 30.8847 80.0204 30.9689ZM82.1834 35.4249C82.3169 34.607 82.3881 33.5848 83.1996 33.1328C84.0915 32.6361 84.5378 33.4454 84.978 34.1067C86.1452 35.8609 87.4368 37.5025 87.6281 39.6804C87.6509 39.94 87.7623 40.4615 87.512 40.6412C87.4003 40.7216 87.1333 40.5099 86.9607 40.5224C86.0361 40.5889 85.3675 40.8367 84.4609 40.3146C82.6872 39.2929 81.8609 37.3986 82.1834 35.4249ZM89.1577 40.3237C88.9671 38.4195 88.0875 36.7307 87.105 35.123C86.6209 34.3302 85.68 33.4636 85.3459 32.6262C85.1667 32.1775 85.4837 31.622 86.135 31.8144C86.4594 31.9102 87.0841 32.7705 87.3009 33.0683C87.858 33.8333 88.3195 34.6866 88.7602 35.5221C89.2312 36.4147 90.5698 39.6912 89.1577 40.3237ZM83.3184 21.3608C83.4215 19.5691 83.4319 17.5117 84.5923 16.0248C85.4915 14.8718 87.138 14.3699 88.4738 13.9242C90.2733 13.3236 92.4348 13.2309 94.3167 13.4249C95.9731 13.5959 97.2233 14.7237 98.2453 15.9638C99.2848 17.2249 100.09 18.8488 100.805 20.3162C100.984 20.6834 102.501 23.039 101.475 22.9842C101.068 22.9624 100.714 22.1675 100.402 21.9328C100.158 21.7489 99.8687 21.7718 99.6498 21.6247C99.415 21.467 99.4657 21.3212 99.2838 21.1265C98.0302 19.7878 96.8769 20.5587 95.5248 21.2639C95.4617 20.7968 95.5724 19.9291 95.1819 19.5878C94.6709 19.141 94.137 19.8487 93.7704 20.1958C93.4367 20.5119 93.0254 21.088 92.6051 21.259C92.0594 21.481 92.245 21.245 91.771 21.0586C90.8166 20.6832 90.0827 21.7942 89.6002 22.4403C89.4202 22.6813 89.1258 23.2898 88.8035 23.355C88.4918 23.4178 88.451 23.1958 88.1824 23.1137C87.4224 22.882 87.2122 23.4239 86.97 24.0969C86.6976 24.8537 86.4658 25.5828 86.0625 26.2896C85.3493 27.5403 85.0427 27.9517 85.6069 29.3328C84.7829 29.4551 84.6101 29.5533 84.2013 28.8222C83.7806 28.0685 83.6713 27.4434 83.6977 26.5772C83.7531 24.7657 83.2123 23.2009 83.3184 21.3608ZM102.446 29.9324C103.309 31.4904 103.857 33.6585 103.848 35.4336C103.843 36.3142 103.792 37.3973 103.381 38.1962C102.986 38.9627 102.161 39.3466 101.4 39.6732C99.5667 40.4606 97.5014 40.4515 95.5739 40.1004C94.5734 39.918 93.6003 40.0359 92.7442 39.4347C92.1 38.982 91.323 38.5424 91.1342 37.7126C91.0552 37.3654 91.1771 37.0742 91.1518 36.7334C91.1831 36.5713 91.1714 36.4132 91.1169 36.2588C91.0043 36.194 90.891 36.1309 90.7767 36.0696C90.6867 35.8107 90.8591 35.5223 90.8149 35.252C90.7617 34.9257 90.4907 34.6601 90.3642 34.3643C90.0155 33.5489 90.2644 33.0926 90.9172 32.5388C91.0734 32.4158 91.2306 32.2941 91.3887 32.1735C91.5307 31.949 91.6875 31.9481 91.8591 32.1705C92.17 32.1748 92.1609 32.2706 92.4878 32.1754C93.204 31.9667 93.8048 31.2047 94.5064 30.937C94.7791 30.8328 95.1857 30.9213 95.4071 30.7293C95.6049 30.5577 95.4777 30.1979 95.6516 30.0295C96.2064 29.4913 97.0796 30.0016 97.5929 29.2192C98.0118 28.5809 97.923 27.6751 97.9659 26.9503C99.2521 27.1962 99.8091 28.4287 100.866 29.0488C101.075 28.2387 101.105 28.2628 101.912 28.0404C101.546 28.7165 102.138 29.3747 102.446 29.9324ZM103.431 21.3318C103.668 21.637 103.849 22.3948 103.431 22.468V21.3318ZM104.529 24.0882C106.492 24.0923 107.747 26.5749 108.321 28.1128C108.944 29.7853 109.6 32.0158 108.438 33.6447C107.991 34.2692 107.444 34.3266 106.727 34.2455C105.862 34.148 105.418 34.0229 105.757 33.0987C106.391 31.367 105.914 29.1654 104.79 27.7158C106.336 27.4172 105.356 25.9995 104.581 25.4689C103.675 24.8495 102.943 24.0849 104.529 24.0882ZM59.6966 113.839C59.2346 115.064 58.765 116.286 58.3774 117.548C58.0099 118.745 58.223 120.093 57.7661 121.243C57.485 121.104 57.4045 120.857 57.1602 120.707C57.0095 120.615 56.7472 120.578 56.6179 120.476C56.3958 120.3 55.8567 119.648 55.7107 119.394C55.206 118.518 55.5427 117.094 55.8123 116.194C56.1462 115.079 56.7166 114.008 57.4825 113.13C58.0199 112.514 58.3162 112.71 59.0345 113.013C59.4592 113.193 59.8967 113.307 59.6966 113.839ZM56.1967 123.507C55.8277 124.253 55.1458 124.869 54.7407 125.621C54.3155 126.411 53.9936 127.302 53.4515 128.024C52.8996 128.761 52.4036 128.638 51.6436 128.955C51.3708 129.069 51.256 129.28 51.0365 129.445C50.6248 129.754 50.1734 129.944 49.7406 130.218C49.4329 129.463 48.4927 125.672 47.2963 125.753C46.2564 125.824 46.7883 127.808 46.9225 128.394C47.0358 128.889 47.1653 129.391 47.3378 129.869C47.5119 130.351 48.0546 131.073 47.8538 131.602C47.5988 132.274 46.9639 132.23 46.6461 131.739C46.3802 131.329 46.2452 130.772 46.0493 130.326C45.877 129.934 45.0896 127.788 44.4089 128.121C43.7534 128.441 44.7731 130.522 44.9438 130.931C45.3559 131.918 46.1463 132.866 45.1017 133.657C43.5163 134.858 41.5638 135.762 39.7874 136.627C38.7506 137.132 37.8184 137.797 36.73 138.207C35.7193 138.588 34.5512 138.653 33.574 139.09C33.3335 139.198 33.4948 139.333 33.1436 139.395C32.849 139.448 32.3344 139.307 32.0184 139.31C31.4952 139.315 30.9709 139.355 30.4487 139.289C30.1545 139.252 29.4848 138.929 29.5907 139.462C29.1746 139.346 29.0135 138.926 28.7099 138.664C28.4394 138.43 28.0938 138.303 27.7918 138.119C27.1676 137.739 26.7005 137.306 26.5133 136.582C26.0735 134.882 27.0032 133.112 28.1507 131.927C28.8092 131.247 29.5818 130.682 30.1858 129.949C30.3978 129.693 30.5484 129.394 30.8175 129.185C31.1467 128.929 31.5985 128.898 31.9174 128.639C32.1547 128.446 32.2258 128.139 32.4745 127.962C32.8424 127.701 33.2729 127.809 33.6203 127.466C33.8186 127.27 34.499 126.348 34.4513 126.092C34.6377 126.154 34.8243 126.217 35.0105 126.279C35.1237 125.711 36.1043 125.009 36.588 124.737C36.8328 124.599 37.3093 124.606 37.4913 124.458C37.7334 124.26 37.7136 123.847 37.9057 123.599C38.4566 122.89 39.6098 122.571 40.3396 122.077C41.2679 121.448 42.1697 120.736 43.0082 119.991C44.7033 118.487 46.1976 116.739 47.4185 114.829C47.9103 114.06 48.3665 113.275 48.7167 112.432C48.9322 111.913 49.1474 110.991 49.6797 110.69C50.2296 110.379 51.4923 110.8 52.1081 110.844C53.0126 110.909 54.4224 110.869 55.2331 111.313C56.0997 111.789 55.3951 112.182 54.949 112.748C54.2962 113.577 53.9048 114.592 53.5788 115.587C53.3277 116.352 53.2808 117.093 53.1166 117.864C52.9431 118.68 52.9448 119.781 53.3465 120.53C53.7447 121.272 56.612 122.668 56.1967 123.507ZM22.0103 138.542C20.0631 135.891 21.6751 132.01 23.5798 129.868C25.878 127.283 29.149 125.829 31.8356 123.727C34.9424 121.296 38.1333 119.038 40.8861 116.187C42.2815 114.742 43.4964 113.184 44.5981 111.505C45.5332 110.079 46.212 108.18 48.1015 107.974C46.987 109.363 46.9219 111.365 46.0601 112.912C45.1478 114.55 43.8026 115.913 42.4328 117.172C39.5403 119.831 36.4162 122.267 33.2919 124.643C31.6972 125.856 30.1467 127.123 28.5575 128.342C27.1342 129.434 25.639 130.368 24.8188 132.031C23.4038 134.901 23.3192 139.153 26.4531 140.921C24.8383 140.599 23.0221 139.92 22.0103 138.542ZM191.782 18.985C191.206 17.8323 190.126 17.4218 189.042 16.9708C187.981 16.5295 187.011 15.9859 185.834 15.8447C185.311 15.7818 183.835 15.9378 183.766 15.1793C183.708 14.5474 185.251 13.9132 185.606 13.4317C186.133 12.7181 186.491 11.5594 186.286 10.6581C186.093 9.80335 185.262 9.53332 184.485 9.37841C182.071 8.89695 179.504 9.25101 177.084 9.44888C177.38 9.03451 177.798 8.69464 178.035 8.19837L178.419 8.99621C178.638 8.53994 178.875 8.09213 179.146 7.66485C179.33 7.8714 179.514 8.07816 179.698 8.28471C179.392 7.21197 180.42 7.21747 180.312 6.31319C180.27 5.96146 180.032 5.80739 179.973 5.52466C179.858 4.96258 180.292 4.61106 179.798 4.08982C179.249 3.50933 178.35 3.73958 177.71 3.79375C177.63 3.80074 177.513 3.95967 177.409 3.97258C177.265 3.99078 177.183 3.7927 177.005 3.80328C176.528 3.83142 176.107 4.20198 175.633 4.31457C173.436 4.83645 171.237 5.76719 169.128 6.63613C166.981 7.52074 164.873 8.55073 163.001 9.93901C160.997 11.4248 159.55 13.335 157.95 15.217C157.198 16.1014 156.42 16.9507 155.847 17.9697C155.551 18.4962 155.284 20.1501 154.751 20.3905C154.173 20.6516 152.719 19.9132 152.127 19.777C150.735 19.4566 149.349 19.3228 147.922 19.3871C146.786 19.4379 145.589 19.4077 144.463 19.5465C143.809 19.6271 142.18 20.3524 142.076 21.1633C142.03 21.5237 142.442 21.8234 142.535 22.1612C142.675 22.672 142.444 23.2132 142.605 23.7251C142.934 24.7688 144.46 25.1529 145.359 25.4816C147.871 26.3996 150.416 27.1114 152.953 27.9331C154.056 28.2903 154.998 28.859 155.997 29.4299C156.825 29.9031 157.581 30.3766 156.744 31.2652C155.952 32.107 156.051 32.4467 156.287 33.6064C156.536 34.8303 156.622 36.0677 156.946 37.2797C157.269 38.4866 157.873 39.6395 157.755 40.9165C157.638 42.1892 157.111 43.4967 156.619 44.6631C156.121 45.8415 155.572 47.0059 155.031 48.1654C154.531 49.2379 153.99 50.3253 152.833 50.783C150.625 51.6568 147.803 51.5182 145.501 51.201C142.888 50.8408 140.189 50.23 137.719 49.2978C135.343 48.4016 132.73 47.0268 130.765 45.4024C129.715 44.5349 128.579 43.892 127.465 43.1155C126.336 42.3287 125.479 41.2676 124.49 40.3254C122.551 38.479 120.165 37.2066 117.709 36.1915C114.948 35.0504 112.097 35.1689 109.171 35.0455C109.632 34.1406 110.225 33.2757 110.442 32.2683C110.669 31.2191 110.505 30.079 110.361 29.0308C110.083 26.9905 109.555 25.1948 108.267 23.5471C107.678 22.7935 106.99 22.206 106.009 22.0966C105.415 22.0302 104.317 22.4866 103.888 21.9832C103.699 21.7612 103.743 21.2943 103.624 21.0209C103.519 20.7782 103.307 20.534 103.192 20.2703C102.701 19.1431 102.088 18.147 101.476 17.0776C101.233 16.6525 101.044 16.0248 100.712 15.6669C100.532 15.4722 100.3 15.3838 100.198 15.2413C100.009 14.9749 99.9224 14.4877 99.7648 14.187C99.4951 13.6723 99.1519 13.1941 98.7559 12.7693C98.1227 12.0904 97.3078 11.4913 96.4399 11.1531C95.9579 10.9652 95.6045 10.9207 95.1009 10.9483C94.9534 10.9563 94.7894 11.0414 94.6419 11.0302C94.2888 11.0033 94.3441 10.8767 94.0612 10.8179C92.1679 10.4236 89.6292 10.9768 87.8534 11.6559C85.9827 12.3712 84.4634 13.3145 83.3267 15.0094C80.5344 19.1721 81.185 24.5471 82.3695 29.132C81.6531 28.9438 80.9397 28.7212 80.2163 28.5618C79.7733 28.4641 79.1689 28.4825 78.7733 28.2486C77.8931 27.7285 78.6089 26.3935 78.6142 25.5309C78.6279 23.3393 77.5937 19.912 75.3382 18.9863C72.988 18.0217 70.1289 20.7293 68.676 22.2646C67.744 23.2496 66.8966 24.3111 66.0046 25.3316C65.3813 26.0447 64.5584 27.1818 63.4658 26.9954C61.0829 26.5891 61.8097 22.0553 61.9155 20.5229C62.0829 18.1004 62.4394 15.6392 62.4413 13.2106C62.4426 11.7342 62.1871 9.74262 60.3743 9.5695C57.8793 9.33142 55.5158 11.6009 54.0608 13.3471C50.2239 17.9515 49.3763 24.0375 50.4025 29.8153C50.5532 30.6625 51.0335 31.7073 50.117 32.2332C48.9128 32.9241 47.3733 33.3425 46.0793 33.8498C43.1856 34.9837 40.5059 36.4964 37.7814 37.9749C35.0842 39.4387 32.4299 40.8917 29.9964 42.7778C27.5706 44.6579 25.1692 46.6501 22.9594 48.7816C21.8579 49.844 20.7951 50.9525 19.7924 52.1093C18.8488 53.1975 18.0844 54.4334 17.0588 55.4505C16.3608 56.1429 15.0765 57.0715 14.9231 58.128C14.799 58.9806 16.2372 59.5717 16.8861 59.9658C17.331 60.236 17.6393 60.2277 17.6714 60.7094C17.7112 61.3102 17.078 62.2731 16.8525 62.8458C16.2782 64.3071 15.5273 65.5174 14.5404 66.7334C12.3542 69.427 9.71233 71.7107 7.2049 74.1033C4.87499 76.3267 2.59199 78.515 0.884227 81.2735C0.465794 81.9495 -0.575641 83.3377 0.414018 83.9703C0.67015 84.1341 1.45609 84.2636 1.71687 84.0878C2.03999 83.8698 1.87621 83.5415 2.25808 83.3229C2.16235 84.0575 5.49778 82.6222 5.75729 82.4891C6.45827 82.13 7.09226 81.7088 7.80888 81.387C8.22922 81.198 8.28015 80.9349 8.6056 80.7241C8.77952 80.6113 8.78164 80.7626 9.01452 80.6926C9.22416 80.6291 9.71614 80.6052 9.87252 80.4031C9.87675 80.3974 10.0475 79.9085 9.90232 80.0097C10.4706 79.6141 10.8064 80.2126 10.4653 80.7747C9.45683 82.4356 8.18167 83.6575 7.78648 85.6534C7.64299 86.3784 7.39806 87.7242 7.84058 88.3851C7.85664 88.409 8.00563 88.3389 8.0238 88.3648C8.04071 88.3889 8.20301 88.6147 8.26979 88.6788C8.66075 89.053 8.63561 89.2197 9.28819 89.2041C9.57772 89.1971 10.1549 89.16 10.4199 89.0293C10.6192 88.9309 10.7166 88.6885 10.8698 88.6022C11.0249 88.5146 11.0065 88.4691 11.1521 88.4181C11.1819 88.4075 11.2392 88.6621 11.2958 88.6515C11.6067 88.5929 11.7407 88.4071 12.0048 88.2575C12.7661 87.8266 13.5123 87.353 14.2371 86.9189C14.9666 86.4823 15.5117 85.8733 16.2384 85.366C17.0104 84.8272 17.6419 84.4139 18.2357 83.666C18.6467 83.1481 19.1372 82.9596 19.4132 82.7048C19.7408 82.4019 20.3053 81.2335 20.8332 81.0945C21.0734 81.031 21.2658 81.2439 21.3974 81.1567C21.5458 81.0587 21.3841 80.8708 21.4585 80.7603C21.5973 80.5542 21.6147 80.5199 21.8507 80.3309C22.1531 80.089 22.5246 80.0241 22.7785 79.709C23.0606 79.3583 23.0993 78.9651 23.4465 78.6366C24.2814 77.8464 25.0249 77.0139 25.9097 76.248C25.568 78.1537 25.2295 80.0461 25.4943 81.9844C25.7508 83.8628 26.548 84.704 28.1126 85.6574C28.4571 85.8673 28.8185 86.1727 29.1883 86.3215C29.4132 86.4121 29.7517 86.3581 29.9193 86.4246C30.4867 86.6495 30.2938 87.11 30.3715 87.6289C30.4922 88.4333 31.2314 89.0523 31.7084 89.679C32.1097 90.2061 32.8333 91.4052 33.5047 91.5872C34.1108 91.7514 34.6827 91.0425 35.1875 90.7405C35.9488 90.2853 36.778 89.9589 37.5807 89.5869C39.1485 88.8604 40.6633 87.9936 42.2136 87.2251C42.9218 86.8743 43.6372 86.7314 44.3865 86.5048C45.2868 86.2326 46.055 85.712 46.9185 85.3567C48.4709 84.7178 49.9585 83.9555 51.5014 83.2846C54.6952 81.8963 58.1786 80.9425 61.0205 78.8597C62.3063 77.9173 63.9616 77.817 65.2288 76.9013C66.5494 75.9466 65.7395 74.4868 65.1742 73.3155C63.6292 70.115 62.7072 66.7914 60.5803 63.876C59.4753 62.3612 58.4544 60.7958 57.4907 59.1855C56.6382 57.7602 56.6555 56.1461 56.4417 54.5362C56.2984 53.4603 56.1642 52.3799 55.9892 51.3087C55.8783 50.6279 55.5198 49.7702 55.9533 49.153C56.419 48.49 57.5251 48.2077 58.2242 47.8579C59.093 47.4232 59.9343 46.9555 60.8356 46.5875C62.8955 45.7467 65.0652 45.1647 67.226 44.6511C67.8704 44.4979 70.6285 43.4025 71.1534 44.0441C70.5086 44.4752 70.3203 45.258 70.031 45.9289C69.6003 46.9286 69.1557 47.8812 68.8415 48.9289C68.1922 51.0952 67.6398 53.2959 67.1105 55.4941C66.5847 57.6766 65.9581 59.8762 65.7972 62.1246C65.715 63.2722 65.7715 64.4207 65.7693 65.5697C65.7672 66.7956 65.513 67.9983 65.5584 69.2274C65.5887 70.0448 65.6573 71.0267 66.136 71.724C66.5796 72.3701 67.3338 72.4421 67.9913 72.7877C68.8586 73.2435 69.1982 73.438 69.2062 74.4299C69.2157 75.586 69.1409 76.7214 69.2491 77.8767C69.6257 81.9002 70.9772 86.6745 73.6748 89.7807C73.8542 89.9873 79.0882 96.5897 79.6675 95.6232C80.0667 96.0957 80.6633 96.2686 81.1544 96.6807C81.9262 97.3283 82.6836 97.8459 83.3218 98.648C84.4835 100.108 85.471 101.818 85.7616 103.684C86.0112 105.29 85.8611 107.211 84.9554 108.603C84.0469 109.999 82.1043 110.915 80.6381 111.603C78.7106 112.507 76.7545 112.608 74.6617 112.382C73.6291 112.27 72.6046 112.095 71.5795 111.931C71.153 111.862 70.6555 111.862 70.2519 111.701C69.8189 111.529 69.6722 111.338 69.24 111.317C68.9171 111.301 68.7406 111.373 68.3994 111.301C67.9769 111.213 67.5183 111.053 67.0969 110.944C66.6286 110.824 66.2444 110.652 65.8127 110.431C65.413 110.226 64.9629 110.186 64.5783 109.992C63.9153 109.657 63.711 109.098 62.8141 109.408C61.8673 109.736 62.0654 110.555 61.461 111.116C60.924 111.615 60.2587 111.154 59.7242 110.857C58.9377 110.42 58.1207 110.057 57.2832 109.726C56.3785 109.369 55.4543 109.058 54.5128 108.812C53.483 108.543 52.3518 108.49 51.3598 108.098C50.4881 107.755 50.113 107.089 49.4813 106.468C48.8171 105.814 47.9157 105.565 46.995 105.623C45.3181 105.729 44.1729 107.542 43.287 108.801C40.8121 112.319 38.0764 115.316 34.7683 118.079C33.1877 119.399 31.406 120.521 29.8775 121.891C29.2327 122.469 28.7646 123.011 28.0011 123.441C26.9981 124.007 26.0879 124.715 25.1291 125.353C21.3788 127.845 18.6279 131.477 19.6651 136.218C20.132 138.352 21.0644 139.85 22.8066 141.134C23.5976 141.717 24.3214 142.202 25.329 142.168C26.2804 142.136 27.1198 142.103 26.5594 140.971C27.2694 141.191 27.8637 141.734 28.6389 142.012C29.5319 142.332 30.6938 142.531 31.6421 142.55C33.1603 142.582 34.9462 141.781 36.2757 141.441C36.6474 141.347 37.3636 141.192 37.7871 140.842C38.124 140.564 38.0509 140.235 38.5606 140.104C39.2286 139.931 39.483 140.133 40.1227 139.728C41.0509 139.14 42.0575 138.791 43.0203 138.25C44.3172 137.52 45.5641 136.697 46.8492 135.946C47.0203 136.418 48.0271 139.224 48.6489 137.872C49.1901 136.694 47.4333 135.686 48.5011 134.493C49.52 133.356 49.733 134.552 50.7212 135.08C52.0931 135.812 51.8873 134.444 51.4885 133.633C51.3289 133.309 50.9936 132.82 51.0923 132.442C51.2829 131.711 51.8735 132.14 52.338 132.214C53.0695 132.332 53.6608 132.13 54.21 131.64C54.668 131.23 55.4254 130.877 55.7022 130.338C55.8406 130.068 55.8649 129.697 55.9801 129.41C56.1321 129.032 56.2403 129.123 56.2956 128.655C56.2426 128.412 56.2217 128.167 56.2322 127.918C56.3525 127.894 56.4723 127.87 56.5921 127.845C56.5957 127.828 56.6042 127.355 56.5558 127.426C56.6678 127.263 56.9085 127.194 57.0469 126.968C57.1741 126.76 57.0558 126.362 57.1069 126.117C57.2105 125.62 57.493 125.22 57.7238 124.777C58.2122 126.843 58.0708 128.998 58.5374 131.066C58.9208 132.763 59.7936 134.285 60.8118 135.677C61.2837 136.322 61.9083 136.78 62.4024 137.393C62.8204 137.912 63.0294 138.368 63.6465 138.675C64.0569 138.879 64.5187 138.984 64.9418 139.16C65.2123 139.272 65.8279 139.79 66.0817 139.781C65.8606 139.789 66.4972 139.809 66.3497 139.784C66.3606 139.785 66.2742 139.506 66.3509 139.511C67.2738 140.385 68.2377 140.387 69.3055 140.93C69.7948 141.179 69.9778 141.163 70.4993 141.255C71.175 141.375 71.7437 141.76 72.3905 141.801C73.3865 141.865 74.5083 141.998 75.5468 141.961C75.8293 141.951 76.3602 141.769 76.5818 142.016C76.7281 142.179 76.4506 143.359 76.4331 143.629C76.2505 146.461 76.629 149.435 77.8238 152.026C78.8145 154.175 79.871 156.717 81.6233 158.358C83.5657 160.177 86.2865 161.459 88.8844 161.949C91.7608 162.492 94.6119 162.086 97.4972 161.917C100.425 161.746 103.133 161.33 105.956 160.482C108.582 159.692 111.069 158.664 113.581 157.579C115.289 156.841 117.456 155.779 116.56 153.54C116.343 152.998 115.504 151.493 114.761 152.235C114.103 152.893 115.202 154.137 115.699 154.554C111.95 157.169 107.401 158.034 103.014 158.96C100.604 159.469 98.2305 159.447 95.7799 159.455C93.7034 159.461 91.6269 159.52 89.5636 159.23C87.6972 158.968 85.5239 158.475 84.1348 157.111C82.6819 155.683 81.3068 153.978 80.315 152.197C79.2268 150.242 78.9629 148.128 78.8748 145.923C78.8285 144.763 78.7765 143.587 78.8978 142.43C78.9861 141.589 79.4151 141.489 79.628 140.825C80.1197 141.514 80.4435 141.259 81.0475 140.857C81.4376 141.947 81.2639 143.079 81.1967 144.203C81.1314 145.298 81.2774 146.408 81.4114 147.495C81.6388 149.344 82.5242 151.271 83.6477 152.76C84.1555 153.432 84.9167 153.716 85.6052 154.181C86.4831 154.773 87.3935 155.325 88.3098 155.857C90.0355 156.858 91.9189 157.714 93.8638 157.864C94.5453 157.917 95.0407 158.272 95.8526 158.223C96.3347 158.193 96.8201 158.028 97.3011 158.041C97.7831 158.054 98.1971 158.209 98.6923 158.173C100.75 158.024 102.871 157.35 104.908 156.979C107.114 156.579 109.333 156.147 111.439 155.356C112.351 155.013 113.105 154.57 113.614 153.708C113.978 153.093 113.882 151.989 114.56 151.62C114.116 151.048 114.281 150.947 114.665 150.434C114.844 150.196 115.422 149.564 114.721 149.575C114.934 148.652 114.578 147.76 114.426 146.857C114.36 146.468 114.378 145.877 114.137 145.542C113.996 145.346 113.762 145.342 113.636 145.198C113.506 145.195 113.404 145.141 113.332 145.036C113.323 144.882 113.395 144.788 113.548 144.754C113.512 144.449 113.738 144.559 113.512 144.082C113.205 143.43 112.62 142.863 112.067 142.421C111.596 142.043 111.249 141.374 110.705 141.172C109.997 140.91 109.254 140.626 108.51 140.383C106.824 139.831 105.152 139.62 103.382 139.926C102.572 140.066 101.773 140.238 100.991 140.488C100.533 140.635 99.8322 141.031 99.4266 140.604C99.2874 140.458 98.9964 139.213 99.0145 139.079C99.0872 138.539 100.189 138.322 100.591 138.133C101.205 137.846 102.343 137.538 102.733 136.967C102.896 136.727 102.711 135.71 102.738 135.692C102.996 135.518 104.078 137.988 104.372 138.156C104.798 138.4 105.995 138.078 106.435 138.03C107.749 137.885 109.085 137.803 110.372 137.49C112.839 136.889 115.262 135.959 117.663 135.138C122.232 133.575 126.642 131.515 130.749 128.956C132.667 127.761 134.572 126.234 136.032 124.499C136.69 123.716 137.155 122.788 137.827 122.021C138.603 121.136 138.358 120.337 138.706 119.228C139.41 116.984 140.264 114.945 140.647 112.593C141.042 110.171 141.204 107.698 141.095 105.247C140.879 100.401 140.644 95.8069 138.515 91.3544C136.563 87.2742 134.035 83.2876 131.029 79.9094C130.33 79.1242 129.591 78.3763 128.733 77.7656C127.809 77.1078 126.792 76.5921 125.955 75.8152C125.269 75.1778 124.695 74.4269 123.976 73.8217C123.095 73.0793 122.047 72.7513 121.014 72.277C120.025 71.8226 119.122 71.2318 118.11 70.818C117.494 70.5666 116.87 70.3345 116.228 70.1588C115.754 70.0291 115.123 70.021 114.69 69.7745C114.003 69.3845 113.301 68.2495 112.852 67.6085C112.198 66.6731 111.844 65.5849 111.532 64.4976C111.154 63.1745 110.801 61.8433 110.431 60.5179C110.305 60.065 109.832 58.4888 110.775 58.8712C111.051 58.9832 111.31 59.4805 111.522 59.693C111.925 60.0963 112.423 60.4567 112.922 60.731C113.729 61.1733 114.568 61.7058 115.341 62.0107C116.023 62.2793 116.723 62.806 117.358 63.1848C117.455 63.2424 117.483 63.4405 117.607 63.4957C117.9 63.6257 118.095 63.2672 118.372 63.355C118.749 63.475 118.811 63.8309 119.021 64.1141C119.325 64.5246 119.482 64.5572 119.946 64.7684C120.463 65.0036 120.842 65.4681 121.345 65.6983C121.957 65.9777 123.303 65.761 123.395 66.7247C124.345 66.1038 125.537 67.3095 126.13 67.935C126.727 67.0181 127.785 68.0916 128.688 67.7873C128.188 68.4823 128.279 68.4133 129.068 68.4992C129.734 68.572 130.133 69.0143 130.791 69.2712C131.247 69.449 131.751 69.7485 132.224 69.8738C132.672 69.9923 133.012 69.7265 133.402 69.7929C133.671 69.8386 133.926 70.0714 134.182 70.1349C134.507 70.2158 134.969 70.3137 135.335 70.4007C135.782 70.5067 136.225 70.4094 136.67 70.4936C137.189 70.592 137.637 70.9012 138.165 71.0015C138.752 71.1135 139.363 71.0388 139.948 71.1812C140.48 71.3111 140.804 71.4605 141.355 71.4658C142.178 71.4739 143.096 71.5829 143.909 71.49C144.341 71.4404 144.581 71.221 145.071 71.4356C145.397 71.5786 145.593 72.0205 146.038 71.818C145.568 71.6296 145.98 70.8963 146.498 71.458C146.621 71.1431 146.7 70.9672 147.041 70.8638C147.024 71.1721 146.973 71.4817 147.366 71.5462C147.396 71.3317 147.427 71.1173 147.457 70.9027C148.312 71.5532 148.514 71.7831 149.32 70.989C149.299 71.2489 149.189 71.5431 149.453 71.7272C149.622 71.4459 149.792 71.1649 149.961 70.8839C150.246 71.7909 151.61 71.4779 152.271 71.3171C152.528 71.2548 153.236 71.1562 153.403 70.9461C153.519 70.8003 153.505 70.6862 153.548 70.5969C153.586 70.5175 153.152 70.3224 153.521 70.2083C153.8 70.1222 154.017 70.7332 154.344 70.7088C154.636 70.6872 154.754 70.1933 154.964 70.0932C154.984 70.0837 155.126 70.2924 155.225 70.2466C155.378 70.1757 155.465 69.9887 155.635 69.9224C156.002 69.7789 156.476 69.8147 156.886 69.6446C157.407 69.4287 157.932 69.3259 158.464 69.1481C159.138 68.9227 159.444 68.48 159.991 68.1177C160.119 68.0328 160.253 68.0823 160.379 68.0222C160.549 67.9414 160.727 67.7515 160.929 67.662C161.562 67.381 162.103 67.1899 162.704 66.8022C163.24 66.4564 163.948 66.201 164.425 65.7859C164.822 65.4406 165.036 64.9363 165.436 64.5847C166.009 64.0802 167.491 63.4473 167.251 62.4615C168.21 62.6079 168.445 61.9868 168.797 61.3018C169.132 60.6502 169.818 60.4548 170.267 59.8606C170.461 59.6037 170.773 59.2475 170.881 58.9544C170.944 58.78 170.784 58.598 170.827 58.4789C171.027 57.9314 171.794 57.6922 172.15 57.1985C172.602 56.5702 172.747 55.7755 173.124 55.1301C173.198 55.0031 173.381 54.9277 173.452 54.7923C173.497 54.7053 173.403 54.4897 173.458 54.4042C173.59 54.2014 173.796 54.1314 173.928 53.9435C174.248 53.4885 174.306 52.8417 174.594 52.326C174.665 52.199 174.911 51.8441 174.942 51.7686C175.046 51.5146 175.015 51.3476 175.068 51.0651C175.084 50.98 175.248 50.4882 175.282 50.4179C175.387 50.1985 175.489 50.1661 175.651 49.9253C176.054 49.3223 176.305 48.3753 176.338 47.6435C176.352 47.333 176.249 47.012 176.361 46.7157C176.458 46.4599 176.757 46.3018 176.87 46.0336C177.165 45.3304 177.117 44.336 177.198 43.5836C177.287 42.7636 177.549 41.9554 177.621 41.1414C177.656 40.7474 177.471 40.3984 177.485 40.0274C177.501 39.6023 177.721 39.5229 177.806 39.1693C177.903 38.7655 177.761 38.3003 177.848 37.8673C177.929 37.4646 178.046 37.0917 178.079 36.6786C178.166 35.6025 178.044 34.4769 177.997 33.4003C177.979 32.9825 177.923 32.5468 178.033 32.1377C178.122 31.8086 178.485 31.4406 178.474 31.0836C178.436 29.9806 177.554 30.9353 177.047 30.8595C176.458 30.7717 176.349 29.4486 176.194 28.9468C175.814 27.7208 175.434 26.4951 175.055 25.2693C176.865 24.798 178.746 24.9339 180.594 24.8067C182.409 24.6819 184.182 24.2878 185.942 23.8442C187.429 23.4697 189.055 23.2525 190.391 22.4528C191.512 21.7815 192.437 20.2959 191.782 18.985Z" fill="#040404"/>
<path fill-rule="evenodd" clip-rule="evenodd" d="M16.0398 42.7154C16.7638 42.339 16.5812 41.819 17.1128 41.3358C20.0881 38.6319 23.5796 36.2709 27.0789 34.3215C30.7658 32.2675 34.9024 31.3977 38.6708 29.5777C39.1776 29.3329 39.8362 28.9501 39.647 28.2681C39.426 27.4711 38.6672 27.8379 38.1263 28.0258C36.324 28.6527 34.4058 28.8886 32.5777 29.4393C28.6756 30.6146 25.0213 32.6413 21.7155 35.0133C19.7924 36.3931 17.9501 37.9188 16.3079 39.6324C15.703 40.2631 14.8966 40.999 14.7392 41.9077C14.5444 43.0323 15.2093 43.1471 16.0398 42.7154Z" fill="#040404"/>
<path fill-rule="evenodd" clip-rule="evenodd" d="M27.3094 113.412C27.2918 112.419 26.2095 112.78 25.6527 112.914C23.3892 113.457 21.3658 113.873 19.3625 115.131C15.6448 117.466 12.8278 121.014 11.0054 124.939C10.7628 125.462 9.78568 127.117 10.5688 127.61C11.0851 127.935 11.3982 126.989 11.5911 126.637C12.5727 124.849 13.8869 123.266 15.2084 121.711C18.1426 118.261 21.6696 116.071 25.8896 114.472C26.4071 114.276 27.3222 114.135 27.3094 113.412Z" fill="#040404"/>
<path fill-rule="evenodd" clip-rule="evenodd" d="M152.414 89.0026C151.631 87.4272 150.365 85.4834 148.613 84.8345C147.644 84.4754 147.07 85.0695 147.358 86.0622C147.587 86.8516 148.351 87.2373 148.921 87.7608C150.388 89.108 151.292 91.1194 151.828 92.9871C152.395 94.9616 152.508 97.1041 152.497 99.1482C152.492 100.227 152.204 101.165 152.048 102.216C151.986 102.629 151.882 103.539 152.356 103.797C153.408 104.368 153.893 101.385 154.001 100.811C154.396 98.6951 154.358 96.7467 154.025 94.6343C153.72 92.7025 153.293 90.7695 152.414 89.0026Z" fill="#040404"/>
<path fill-rule="evenodd" clip-rule="evenodd" d="M149.406 13.3025C149.834 12.7256 149.522 11.918 149.649 11.2603C149.783 10.5709 150.181 9.8735 150.517 9.27044C151.244 7.96851 152.055 6.69 152.919 5.47566C153.812 4.22164 154.9 3.15316 155.848 1.94832C156.169 1.54073 156.738 0.958151 156.599 0.467603C156.375 -0.326687 155.886 0.0604315 155.494 0.393303C153.354 2.21344 151.469 4.45763 149.947 6.81475C149.224 7.93347 148.541 9.15857 148.302 10.4856C148.179 11.171 148.178 11.8861 148.381 12.5572C148.509 12.9789 148.892 13.9957 149.406 13.3025Z" fill="#040404"/>
<path fill-rule="evenodd" clip-rule="evenodd" d="M17.5024 110.391C18.5749 110.291 19.6536 110.256 20.7287 110.201C21.5243 110.16 22.4195 110.209 23.1499 109.826C23.8849 109.44 23.5654 108.863 22.9543 108.777C22.603 108.728 22.0101 108.965 21.6336 108.982C21.2259 108.999 20.816 108.987 20.4081 108.988C19.2156 108.993 17.9305 108.983 16.7808 109.38C16.4053 109.509 15.8364 109.709 15.682 110.139C15.3517 111.057 17.005 110.437 17.5024 110.391Z" fill="#040404"/>
<path fill-rule="evenodd" clip-rule="evenodd" d="M26.8938 26.3757C28.4515 26.1889 29.9569 25.7222 31.4915 25.4246C32.9504 25.1419 33.1988 23.9916 31.4715 24.0433C30.8915 24.0605 25.3 25.1213 26.8938 26.3757Z" fill="#040404"/>
<path fill-rule="evenodd" clip-rule="evenodd" d="M155.599 84.0669C154.553 83.8049 155.094 84.9658 155.418 85.3247C156.017 85.9882 156.344 86.4852 156.522 87.37C156.626 87.8853 156.529 89.0484 156.966 89.4422C157.396 89.8301 157.426 89.5725 157.503 89.0939C157.718 87.7444 157.287 84.4897 155.599 84.0669Z" fill="#040404"/>
<path fill-rule="evenodd" clip-rule="evenodd" d="M144.111 10.6134C144.408 10.2991 144.09 8.9327 144.125 8.53224C144.168 8.04702 144.282 7.63639 144.427 7.18104C144.497 6.96026 144.851 6.18094 144.661 5.93897C144.397 5.60356 143.958 6.17035 143.819 6.39347C143.368 7.1196 143.263 8.33031 143.338 9.14797C143.365 9.44398 143.544 11.2145 144.111 10.6134Z" fill="#040404"/>
<path fill-rule="evenodd" clip-rule="evenodd" d="M82.4978 125.841C82.5471 125.067 83.2924 124.531 83.2945 123.708C83.2973 122.783 82.6749 122.382 81.9 122.983C81.4327 123.346 81.0688 124.229 80.4369 124.344C79.1692 124.577 78.6719 122.3 77.4231 122.563C76.3422 122.791 76.9103 124.648 77.2365 125.275C77.582 125.939 78.2099 126.405 78.0056 127.222C77.7627 128.192 76.9303 128.751 77.2541 129.858C77.8558 131.916 79.1621 129.992 79.9477 129.345C80.5074 128.885 80.8458 128.967 81.3893 129.418C82.1339 130.037 82.703 130.458 83.606 130.875C84.4024 131.243 85.1707 131.499 85.1954 130.265C85.215 129.294 84.4821 128.329 83.8387 127.67C83.3047 127.124 82.4433 126.703 82.4978 125.841Z" fill="#040404"/>
<path fill-rule="evenodd" clip-rule="evenodd" d="M68.5434 122.772C67.6117 121.778 66.4347 124.312 65.6818 124.593C64.4612 125.047 64.1804 122.611 63.0566 122.688C62.182 122.747 62.251 124.001 62.4414 124.572C62.6464 125.188 63.2599 125.691 63.3627 126.322C63.5206 127.288 61.6922 129.22 62.9682 130.153C64.0575 130.95 64.4631 128.258 65.8248 129.356C66.4933 129.896 68.3641 131.902 69.2908 130.904C70.3859 129.723 67.781 127.708 67.3056 126.81C66.6622 125.594 69.9088 124.228 68.5434 122.772Z" fill="#040404"/>
<path fill-rule="evenodd" clip-rule="evenodd" d="M91.1167 88.2552C90.8496 88.1373 90.4177 88.3323 90.1286 88.3199C89.8181 88.3067 89.4948 88.1657 89.1886 88.1135C88.5232 87.9997 87.353 88.1642 86.8808 87.5711C86.3992 86.966 86.7654 85.7514 86.5595 85.0153C86.4474 84.6152 86.3178 84.1212 85.779 84.2998C85.1535 84.5067 85.1685 85.6554 85.0937 86.1592C84.9838 86.9025 84.8953 87.4695 84.148 87.7339C83.5949 87.9296 83.0129 87.8311 82.5657 88.2854C82.238 88.6185 82.0169 89.2264 82.2734 89.6616C82.6587 90.3151 83.4928 89.9767 84.0715 90.1832C84.9539 90.4984 84.7442 91.9401 84.9251 92.768C85.0408 93.2999 85.2956 94.7896 86.0594 94.7655C87.1009 94.7331 86.6965 92.6403 86.6387 92.0294C86.5803 91.4097 86.4409 90.8841 87.1325 90.6914C87.7166 90.5288 88.5328 90.8306 89.136 90.8269C89.8981 90.8223 90.796 90.6309 91.2559 89.9479C91.5185 89.5574 91.685 88.506 91.1167 88.2552Z" fill="#040404"/>
<path fill-rule="evenodd" clip-rule="evenodd" d="M129.391 114.012C131.046 114.155 130.043 116.195 131.142 117.007C132.19 117.781 132.331 115.644 132.331 115.035C132.33 113.557 134.127 114.103 135.221 113.858C136.155 113.65 137.174 112.681 136.059 111.855C135.255 111.259 133.92 111.535 132.986 111.377C131.72 111.163 132.097 110.318 132.069 109.344C132.059 108.987 131.935 107.714 131.474 107.614C130.63 107.43 130.579 109.801 130.522 110.252C130.281 112.161 128.97 110.998 127.928 111.955C126.567 113.206 128.404 113.927 129.391 114.012Z" fill="#040404"/>
<path fill-rule="evenodd" clip-rule="evenodd" d="M50.6309 78.4186C48.0436 80.5392 45.1057 80.2353 42.7378 77.9526C41.7366 76.9872 41.1317 76.0144 41.2212 74.6017C41.3016 73.3305 41.6748 71.9259 42.6926 71.0674C43.5497 70.3438 45.1665 70.0841 46.2517 69.983C47.773 69.8415 49.1339 70.6696 50.1862 71.7045C51.1025 72.6057 52.1736 73.754 52.3149 75.0919C52.4637 76.4995 51.6616 77.5735 50.6309 78.4186ZM51.0243 69.98C48.7036 67.7452 44.5882 67.9696 42.1922 70.0076C39.5029 72.2952 39.0431 76.5928 41.6277 79.0993C44.3514 81.7407 47.9467 81.4557 50.83 79.2646C52.3765 78.0895 53.2157 76.5816 53.4311 74.6468C53.6344 72.8182 52.2934 71.2021 51.0243 69.98Z" fill="#040404"/>
<path fill-rule="evenodd" clip-rule="evenodd" d="M95.8989 31.5108C95.6385 32.3571 95.819 33.2588 95.8651 34.121C95.1295 33.6609 94.6715 32.84 93.8815 32.4587C93.5027 33.5053 95.3904 36.4988 96.5786 35.5175C97.6654 34.6196 96.8632 32.114 95.8989 31.5108Z" fill="#040404"/>
<path fill-rule="evenodd" clip-rule="evenodd" d="M99.7592 36.6719C99.1736 36.8901 98.6291 36.8297 98.0516 36.9414C97.6705 37.015 97.6213 36.7984 97.572 37.2347C97.4669 38.1658 98.969 38.526 99.6454 38.5128C100.471 38.4968 101.376 37.9415 101.296 37.0376C101.214 36.0957 100.396 36.4346 99.7592 36.6719Z" fill="#040404"/>
<path fill-rule="evenodd" clip-rule="evenodd" d="M100.239 32.7586C99.9734 32.5174 99.3613 31.6061 98.9118 31.762C98.5675 31.8814 98.8108 32.2929 98.9118 32.4988C99.2901 33.2711 100.032 33.9281 100.625 34.5475C100.186 34.7035 99.3402 34.8038 99.5635 35.4797C99.769 36.1005 100.7 36.0051 101.146 35.7438C102.673 34.848 101.004 33.4526 100.239 32.7586Z" fill="#040404"/>
<path fill-rule="evenodd" clip-rule="evenodd" d="M101.781 31.2928C101.886 31.7191 101.942 32.1217 101.712 32.5215L100.439 30.2395C99.4158 30.6596 101.211 33.9475 102.256 33.5834C102.979 33.3318 102.632 31.7865 102.518 31.3003C102.457 31.04 102.311 30.2124 101.95 30.1284C101.241 29.9631 101.704 30.9783 101.781 31.2928Z" fill="#040404"/>
<path fill-rule="evenodd" clip-rule="evenodd" d="M49.2897 77.3221C48.6995 76.8871 47.7216 77.906 47.0975 77.9095C45.8366 77.9164 46.5233 76.4371 45.7341 75.9577C45.3225 75.7076 43.5995 75.9598 43.8717 74.9246C44.0353 74.3018 44.6756 74.7513 45.0265 74.3709C45.4666 73.894 44.8391 73.5135 44.4486 73.3177C44.62 73.0891 45.6073 72.9887 45.8554 73.1469C46.2836 73.4202 46.2588 74.2399 46.6516 74.662C47.1613 74.0112 46.8848 73.1936 47.4277 72.6093C47.6385 72.3821 48.2551 72.2115 48.0153 71.8066C47.8764 71.5714 47.2674 71.649 47.059 71.4621C46.8772 71.2989 46.8861 70.7728 46.5926 70.7291C46.1128 70.6577 46.1246 71.3906 45.9805 71.6023C45.5472 72.2383 43.6427 72.019 44.432 73.3093C43.9062 73.0469 42.4718 72.8395 42.7501 73.7557C42.8213 73.9898 43.0924 74.1332 43.1598 74.4002C43.2182 74.6316 43.0896 74.9614 43.0775 75.1937C43.0547 75.634 43.0195 76.149 43.3454 76.5033C43.7932 76.9902 44.3917 76.6359 44.8721 76.8477C45.5267 77.1361 45.2907 77.7358 45.636 78.2602C46.0881 78.9462 46.7832 78.7355 47.4232 78.5279C48.1865 78.2803 48.3071 78.2579 48.8655 78.8937C49.1209 78.5637 49.8204 77.7134 49.2897 77.3221Z" fill="#040404"/>
<path fill-rule="evenodd" clip-rule="evenodd" d="M50.316 74.6434C49.7002 74.5296 49.9428 72.6945 49.1935 73.4919C48.9125 73.7907 49.2003 74.3737 48.8868 74.6939C48.6763 74.9091 48.4091 74.7821 48.1986 74.9233C48.0092 75.0499 47.9613 75.2925 47.8497 75.4778C48.2459 75.6561 48.5519 75.6792 48.9749 75.6014C48.9749 75.9201 48.7633 76.8579 49.3069 76.7894C49.8125 76.7256 49.6697 75.7842 49.927 75.4916C50.1884 75.1941 51.2415 75.3321 51.3395 74.914C51.4607 74.3962 50.5852 74.6933 50.316 74.6434Z" fill="#040404"/>
</g>
</svg>
