<svg width="108" height="126" viewBox="0 0 108 126" fill="none" xmlns="http://www.w3.org/2000/svg">
<g id="Vector">
<path fill-rule="evenodd" clip-rule="evenodd" d="M28.5479 28.1358C28.4197 30.2311 28.2914 32.3262 28.1633 34.4215C28.9879 34.1839 34.234 32.6404 33.91 34.2055C33.6775 35.328 32.2025 36.5422 31.4511 37.3237C30.7595 38.0433 30.0473 38.744 29.317 39.4243C30.6593 38.9105 32.0127 38.4239 33.3759 37.9687C34.4074 37.6243 35.4464 37.288 36.5033 37.0299C36.8957 36.934 37.9551 36.5428 38.3257 36.8096C39.2996 37.5105 34.0153 42.673 33.2914 43.4007C34.3149 42.9247 35.363 42.4923 36.429 42.1213C37.1985 41.8534 39.5762 40.8296 40.2573 41.7038C40.9863 42.6392 39.1803 44.7872 38.6795 45.4682C37.9619 46.444 37.1842 47.3802 36.3682 48.2753C39.7597 51.3215 43.745 54.0327 47.9863 55.7179C51.0962 56.9535 54.151 57.268 57.4326 56.59C60.8038 55.8933 64.0369 54.5572 67.1104 53.0297C68.9154 52.1325 70.6966 51.1618 72.3934 50.0712C71.6939 49.2202 71.0147 48.3516 70.3548 47.4697C69.413 46.2105 68.2555 44.8346 67.7184 43.3356C67.1929 41.8685 69.1647 42.1549 70.1105 42.2346C71.4801 42.35 72.846 42.5949 74.1882 42.8877C73.2392 42.2276 72.3074 41.5411 71.3942 40.8323C70.2041 39.9086 68.6167 38.8641 67.8377 37.5352C67.1527 36.3666 68.6561 36.6617 69.3513 36.8149C71.0087 37.18 72.6214 37.8022 74.2022 38.409C75.3599 38.8535 76.5104 39.3189 77.6499 39.8091C76.9426 39.1943 76.2591 38.5501 75.6022 37.882C74.7191 36.9842 73.5283 35.8878 73.1324 34.6514C72.3263 32.1336 77.7495 34.0329 78.6755 34.4215C78.5043 31.8132 78.3335 29.2049 78.1626 26.5966C70.9815 28.5074 63.8003 30.4184 56.6191 32.3294C55.8431 32.536 54.8719 32.9857 54.0625 33.0097C53.3294 33.0316 52.444 32.7015 51.7291 32.565L38.7341 30.0821C35.3387 29.4334 31.9433 28.7846 28.5479 28.1358Z" fill="#F3961C"/>
<path fill-rule="evenodd" clip-rule="evenodd" d="M105.73 117.848C104.954 118.292 104.046 118.634 103.185 118.864C102.679 118.999 101.843 119.416 101.399 119.034C101.186 118.851 101.137 118.434 101.011 118.192C100.812 117.81 100.528 117.48 100.263 117.142C99.6201 116.323 98.9511 115.533 98.2509 114.762C97.9192 114.397 97.3132 113.545 96.7287 113.601C96 113.671 96.0176 114.679 96.2002 115.194C96.7815 116.835 98.5413 118.265 99.6909 119.5C99.3986 119.95 97.7934 119.897 97.3477 119.791C96.6672 119.631 96.5983 119.146 96.2877 118.592C95.5613 117.297 94.0876 116.572 92.8761 115.81C92.4344 115.532 91.4958 114.763 90.9201 114.956C90.3747 115.14 90.3983 115.837 90.572 116.292C90.8345 116.979 91.5811 117.456 92.1331 117.891C92.8693 118.47 93.5425 119.101 94.1561 119.81C93.2718 119.882 92.3907 120.007 91.5086 120.08C90.4418 120.168 89.5528 119.582 88.5707 119.25C87.6583 118.942 86.7491 118.682 85.8518 118.326C84.8444 117.927 83.7892 117.788 82.773 117.438C78.7849 116.065 74.8773 114.337 71.0342 112.596C69.2029 111.766 67.4094 110.936 65.5013 110.286C64.1108 109.813 61.9255 108.87 61.5931 107.213C61.4176 106.338 62.057 105.397 62.1512 104.523C62.2618 103.494 62.1748 102.362 61.8614 101.375C61.5852 100.506 61.1274 99.7004 60.7667 98.8656C60.3465 97.8926 60.7227 97.9084 61.5391 97.7978C62.5163 97.6652 63.6566 97.1152 64.5751 96.757C65.6332 96.344 66.682 95.7672 67.6511 95.1741C68.5276 94.6376 69.2903 93.9461 69.988 93.1952C70.6978 92.4312 71.1574 91.526 71.8436 90.7433C74.3764 93.8582 76.7837 97.0204 79.4749 100.001C80.7451 101.407 82.1264 102.57 83.6916 103.64C84.3452 104.087 84.9937 104.597 85.7057 104.95C86.5963 105.392 87.5917 105.666 88.507 106.07C92.0163 107.616 95.3655 109.306 98.6394 111.301C100.223 112.266 101.553 113.373 102.947 114.584C103.381 114.961 106.937 117.157 105.73 117.848ZM64.5628 92.3304C63.9957 92.5874 63.4551 92.921 62.85 93.0859C63.0215 92.0422 63.9955 90.468 65.2441 90.6412C65.7213 90.7072 66.0811 91.0777 65.8715 91.5885C65.6809 92.0526 64.9668 92.1476 64.5628 92.3304ZM25.0883 64.023C24.4453 64.378 23.8462 64.5848 23.4693 63.8229C23.7485 63.7668 25.017 63.5978 25.0883 64.023ZM24.0177 61.8691C23.521 61.7184 23.9183 61.56 24.0893 61.3782C24.2225 61.2367 24.6634 60.7403 24.8177 60.6584C25.4992 60.2973 26.026 61.6406 26.3518 62.0766C25.5804 62.0081 24.7689 62.0968 24.0177 61.8691ZM29.3301 66.5202C28.3884 66.6798 28.4929 65.5015 28.521 64.9046C28.7197 65.1471 30.0644 66.3958 29.3301 66.5202ZM32.4509 64.4851C31.3029 64.6788 30.5442 62.6952 30.75 61.8276C30.9312 61.0632 31.821 60.6365 32.5292 60.5237C33.2158 60.4144 34.1717 60.5636 34.3756 61.3553C34.5558 62.0551 33.2162 64.3559 32.4509 64.4851ZM59.6282 94.4295C58.8032 94.6831 57.9947 94.715 57.1655 94.9639C56.2245 95.2464 55.3538 95.2213 54.411 95.4135C54.0274 95.4915 52.9927 96.0504 52.6186 95.9256C52.248 95.8019 51.7116 94.6518 51.4986 94.3527C53.1667 93.6593 54.5897 92.7641 55.6891 91.3032C56.5634 90.1413 57.5009 88.4008 56.9509 86.9013C56.3306 85.2108 54.1923 84.8437 52.7667 85.5499C52.0922 85.8837 51.4237 86.299 50.8677 86.8078C50.2318 87.3896 49.9818 88.0248 49.57 88.7423C49.1534 89.4682 48.8611 89.0645 48.4449 88.4482C48.0893 87.9213 48.1357 87.3894 47.6912 86.8696C47.4644 86.6045 47.1132 86.3486 46.9949 86.0061C46.9198 85.7889 47.078 85.4039 46.9357 85.2328C46.7355 84.9927 46.4921 85.275 46.3244 85.0605C46.2027 84.9047 46.2425 84.5495 46.1167 84.3546C46.0076 84.2438 45.8863 84.1492 45.7521 84.0706C45.5893 83.9902 45.5597 83.8896 45.6629 83.7687C45.5335 83.5291 45.6582 83.4483 45.381 83.1567C44.949 82.7024 44.555 82.267 44.2475 81.7307C44.1069 81.4853 44.1209 81.1212 43.9461 80.9088C43.7065 80.6171 43.3073 80.6609 43.1013 80.2998C42.9177 79.9781 43.0405 79.4154 42.7379 79.1233C42.5783 79.0778 42.4186 79.033 42.2588 78.9888C42.1386 78.8721 42.0686 78.7305 42.0486 78.5638C41.8805 78.3049 41.8471 78.0009 41.6349 77.7275C41.2287 77.2046 40.6823 76.7214 40.3234 76.1701C39.9462 75.5906 40.1462 75.4929 40.8015 75.2856C41.3924 75.0983 41.932 74.9246 42.4798 74.6058C45.0122 73.1321 47.413 69.2228 43.3935 68.0285C41.9019 67.5854 40.6764 66.3935 39.0225 66.862C38.3055 67.0652 37.6253 67.4976 37.0905 68.0106C36.7208 68.3654 36.3786 69.314 35.9248 69.4959C35.109 69.8226 35.4539 69.0063 35.2224 68.6313C35.1118 68.4523 34.6667 68.2461 34.5018 68.0831C34.3083 67.8922 34.1211 67.6511 33.9868 67.4149C33.7373 66.9764 33.5847 66.7321 33.2249 66.375C33.0892 66.2402 32.4121 65.5438 33.0228 65.6348C32.7755 64.881 33.1364 64.7677 33.6353 64.2169C34.2211 63.5702 34.826 62.6716 34.8294 61.7654C34.8362 60.0256 32.7745 59.2461 31.4798 60.2788C31.2164 60.489 29.6582 62.5175 29.977 61.2239C30.1489 60.5262 31.7406 58.7048 32.4785 59.1761C31.6515 57.9708 29.752 60.8972 29.3086 61.496C28.931 60.8009 28.9042 60.2571 28.2795 59.719C27.7711 60.5347 28.0395 59.6432 27.9275 59.462C27.6852 59.0707 27.8182 59.5182 27.6869 59.3793C27.5233 59.2061 27.2658 59.0696 27.0918 58.8404C26.7937 59.2448 26.9128 58.8096 26.8215 58.6585C26.6079 58.3052 26.6905 58.1005 26.3245 57.7933C26.0581 57.57 25.5334 57.2231 25.1749 57.1914C24.7615 57.1547 24.647 57.3132 24.2259 57.1959C23.69 57.0469 23.0157 56.8181 23.2751 57.7142C23.4634 58.3655 24.2291 58.7356 24.3968 59.401C24.5657 60.0707 23.9034 60.7458 23.5821 61.2949C23.1695 61.9994 22.8321 61.9418 22.0846 62.1006C21.6069 62.2022 20.9693 62.4193 21.3789 62.9988C21.6716 63.4129 22.3572 63.3257 22.7434 63.571C23.2849 63.9148 23.2774 64.7626 23.9687 64.9101C24.73 65.0725 25.1662 64.2249 25.8081 64.0202C26.2645 63.8746 27.6784 63.8908 28.0377 64.2336C28.5273 64.7005 28.1043 65.5927 28.2275 66.1728C28.4107 67.0331 28.9927 67.0856 29.7287 67.1131C30.635 67.1469 30.9534 68.017 31.4408 68.7072C32.5823 70.3237 33.5743 72.0469 34.7435 73.6419C35.2611 74.3481 36.0182 74.9763 36.442 75.7428C36.9654 76.6893 36.2388 77.2352 35.6118 77.9146C34.7926 78.8025 34.1809 79.8127 33.4704 80.783C32.8389 81.6454 32.0542 81.4307 31.0451 81.4307C31.27 80.9671 31.5406 80.678 32.0938 80.7343C31.5153 80.0279 31.0527 80.8359 30.6774 81.2834C30.1346 81.9307 29.4269 82.0869 28.7295 82.5125C28.4827 82.663 27.139 83.639 27.5473 83.9723C27.5937 84.01 29.818 82.5468 30.0714 82.4126C30.0714 82.9528 29.9533 83.514 30.0289 84.0512C30.0844 84.4451 30.3614 84.856 30.3023 85.2655C30.1904 86.0386 29.1914 86.6475 28.7625 87.2499C28.4397 87.7032 28.5176 88.0609 28.3533 88.5475C28.2035 88.9914 28.2822 88.8571 27.9088 88.9942C27.1484 89.2735 25.8688 89.1228 25.1804 88.7257C24.753 88.4793 24.4253 88.0898 24.0781 87.7465C23.8166 87.4876 23.1589 87.0456 23.0863 86.6834C22.9615 86.0599 24.1994 84.9013 24.4445 84.2581C25.1364 82.443 23.9498 81.0321 22.1035 80.929C22.6725 80.49 23.378 80.8208 23.9777 80.9883C22.9523 79.5674 21.201 80.7366 20.3312 81.7022C19.7369 80.1999 19.4503 78.6151 19.0873 77.0483C18.8399 75.9816 17.8986 74.0775 18.3184 72.9791C18.5215 72.4482 19.0945 72.1521 19.4909 71.7839C19.9412 71.3654 20.3269 70.8652 20.6561 70.3473C21.432 69.1273 21.8799 67.5872 20.8118 66.385C21.1363 66.3316 21.461 66.2783 21.7855 66.2249C21.2576 65.7288 20.4248 65.9705 19.7397 65.8234C19.305 65.7302 18.0543 65.7906 17.7641 65.5445C17.4151 65.2489 17.6388 63.8878 17.6513 63.4851C17.68 62.5438 17.7586 61.6387 17.8626 60.7031C17.9611 59.8192 17.9413 58.8643 18.1239 57.9959C18.2722 57.2912 18.746 57.0766 19.2928 56.6613C20.5995 55.6683 21.6644 54.4606 21.2182 52.7495C21.3763 52.7243 21.5344 52.6992 21.6925 52.6741C21.1812 52.3044 20.5195 52.4388 19.9509 52.2434C20.4731 50.7734 21.6282 48.1894 23.5036 48.0502C23.5681 48.7073 23.524 49.4888 23.9674 50.0329C24.4721 50.652 25.3581 50.7145 26.0419 50.3869C26.6622 50.0893 27.2447 49.4588 27.5307 48.8359C27.7241 48.4143 27.6892 47.7013 28.0288 47.367C28.4842 46.9188 31.6242 47.1892 31.5279 47.9458C31.4713 48.3907 30.6317 49.1384 30.397 49.5327C29.9676 50.2542 29.6238 51.0346 29.4661 51.8633C29.2267 53.1216 29.3654 54.7829 30.6433 55.4445C32.0966 56.1972 33.8679 55.2402 35.0597 54.4136C35.7143 53.9596 36.3482 53.4587 36.9461 52.9326C37.2646 52.6528 37.5846 52.3643 37.8653 52.0459C38.0725 51.8108 38.2382 51.4319 38.4933 51.2559C39.0959 50.8401 39.6866 51.5455 40.1966 51.9018C41.0273 52.4823 41.8539 53.0335 42.7456 53.5165C44.555 54.4967 46.2095 55.795 47.8093 57.0841C49.4185 58.381 51.0777 59.715 52.3812 61.3306C51.5916 61.8162 51.7326 61.9424 51.3813 62.8087C51.132 63.4235 50.7886 63.9467 50.749 64.6299C50.6805 65.8087 51.4373 66.8135 52.5859 67.0744C53.2284 67.2204 53.8404 67.1035 54.4355 66.8408C54.898 66.6367 55.3591 66.1343 55.8423 66.0094C56.7406 65.7778 57.4594 67.4747 57.963 68.0725C60.1993 70.7274 62.5632 73.2773 64.669 76.0405C64.9023 76.3466 65.5951 76.9444 65.6513 77.3496C65.7322 77.9316 64.8168 78.486 64.4372 78.8196C64.2377 78.9947 62.1234 80.9836 62.8334 81.2997C63.0357 81.3897 63.6281 80.1695 63.7762 80.0651C64.3308 79.6744 63.9113 80.4403 63.8783 80.8274C63.7957 81.7896 64.4566 82.314 65.3856 82.192C66.3771 82.0619 67.2598 81.2793 67.8733 80.54C68.6422 81.4305 69.844 82.7766 70.0663 83.9662C70.2084 84.7262 69.5508 86.5862 70.7783 86.7412C70.9657 86.7648 71.6438 86.2618 71.7702 86.5473C71.8757 86.7857 71.1427 87.1932 71.0368 87.2722C70.5851 87.6094 70.3123 87.9706 69.9476 88.379C69.5195 88.8585 68.9344 89.2624 68.4527 89.7218C67.9452 90.2057 66.9414 91.5201 66.2718 90.8851C65.9352 90.566 66.0237 90.1487 65.4847 89.9614C64.9938 89.7909 64.3719 90.0071 63.9157 90.1963C63.4021 90.4091 61.7106 91.1861 61.5229 91.8258C61.264 92.708 62.6621 91.6474 62.9106 91.4924C62.6272 92.212 62.4704 93.2537 61.7486 93.6735C61.1488 94.0222 60.2861 94.2273 59.6282 94.4295ZM50.0401 88.9871C50.5201 87.4442 53.351 84.6932 55.1402 85.5537C53.055 85.9906 51.4003 87.4177 50.0401 88.9871ZM51.0988 93.4054C50.4011 93.0166 50.4386 91.887 50.1951 91.2263C50.0552 90.8472 49.7756 90.5702 49.8579 90.1495C49.9541 89.6562 50.5832 89.1079 50.9181 88.7522C51.972 87.6324 53.8267 86.1024 55.523 86.359C57.6822 86.6859 56.2185 89.5847 55.4832 90.5828C54.8566 91.4338 52.442 94.154 51.0988 93.4054ZM46.0618 91.5184C43.7267 91.3625 41.3996 91.1538 39.0964 90.7252C38.2799 90.5732 37.5957 90.5956 38.0629 89.6568C38.2172 89.347 39.1474 87.4049 39.3574 87.4606C39.4819 87.4936 39.4534 88.8284 39.49 88.9814C39.6549 89.6685 40.1179 90.3088 40.8985 90.2652C42.1756 90.194 42.9988 88.5428 43.6712 87.6564C44.2099 88.3807 44.5999 89.1853 45.1414 89.8976C45.4003 90.238 46.3014 91.0299 46.0618 91.5184ZM32.3721 82.3525C31.9804 83.2515 31.1925 84.1065 30.6446 84.9209C30.3348 84.2651 30.1168 82.7596 30.8517 82.2747C31.1298 82.0914 32.6198 81.7842 32.3721 82.3525ZM40.4706 85.0295C40.5783 84.6834 40.6977 84.3401 40.8309 84.003C41.0594 84.7221 41.1762 84.7434 40.4706 85.0295ZM42.4694 85.7659C42.7528 86.2463 43.2252 86.7187 43.1511 87.322C43.0948 87.7792 42.6816 88.2476 42.3866 88.5662C41.8983 89.0932 40.8164 90.1047 40.1089 89.4049C39.5178 88.8203 39.7236 87.2131 39.9985 86.5554C40.3911 85.6156 41.7937 84.6214 42.4694 85.7659ZM41.0826 84.7814C41.2451 84.7168 40.9038 83.6683 41.2206 83.5638C41.4968 84.1938 41.7571 84.3643 41.0826 84.7814ZM36.6208 70.6702C36.5156 70.2833 36.2743 70.2995 36.3612 69.8212C36.4182 69.5076 36.6671 69.1728 36.8559 68.9243C37.2322 68.429 37.7286 68.0208 38.2653 67.7117C39.3985 67.0595 40.9547 66.7885 41.9692 67.8097C41.0207 67.9594 38.1131 68.8956 38.0946 70.193C39.1493 69.9898 39.9787 68.9304 41.0366 68.5965C41.9049 68.3223 42.8465 68.3416 43.7103 68.6311C46.0748 69.423 45.0916 71.4666 43.7571 72.7941C42.9648 73.5822 42.0149 74.1706 40.9764 74.5766C40.4958 74.7645 40.201 74.7852 39.7285 74.6908C39.64 74.6731 39.5366 74.509 39.4306 74.4738C39.167 74.3864 39.2434 74.6823 39.0263 74.5494C38.8368 74.4336 38.4327 73.6859 38.3038 73.4718C38.0987 73.1311 38.0031 72.7997 37.7514 72.4887C37.4993 72.1776 37.3767 71.7605 37.1435 71.4789C37.0316 71.3433 36.7248 71.3488 36.6424 71.2166C36.5188 71.018 36.6761 70.8734 36.6208 70.6702ZM32.9896 85.9113C33.527 84.9776 34.4464 84.1849 35.1577 83.3688C35.2014 84.7102 34.2396 85.6286 32.9896 85.9113ZM33.7158 86.3426C34.8256 85.9521 35.4371 85.0178 35.5503 83.885C35.6939 82.4502 36.5948 81.6971 37.1372 80.408C37.3452 79.9141 37.5876 78.2885 38.3938 78.7537C38.6704 78.9133 38.8344 79.5136 38.9785 79.7847C39.3272 80.4407 39.7236 81.0767 40.0934 81.7207C40.3945 82.2453 40.8458 82.7725 40.713 83.4039C40.5972 83.9543 40.2243 84.5408 40.0061 85.0599C39.4906 86.2859 38.8134 87.4151 38.2476 88.6141C38.0193 89.0979 37.7491 90.2431 37.0522 90.2373C36.5005 90.2325 36.5622 89.6294 36.199 89.4227C35.7405 89.1617 35.2192 89.6583 34.8426 89.8641C35.2762 89.1319 36.0344 88.7172 36.8867 88.8551C35.8661 87.8388 35.1767 89.2101 34.3009 89.5154C33.4711 89.8049 31.9989 88.44 31.3002 88.0533C31.5676 87.6007 31.8091 87.0471 32.2687 86.7493C32.7047 86.4666 33.2398 86.5101 33.7158 86.3426ZM24.693 95.6297C24.8145 95.0445 25.1579 94.6986 25.3756 94.1673C25.6281 94.8115 25.037 95.1916 24.693 95.6297ZM42.3254 99.2204C42.2658 101.191 42.1049 103.156 42.0468 105.127C42.02 106.036 41.859 106.903 41.7522 107.802C41.6619 108.562 41.7079 109.308 41.2296 109.957C40.4755 110.981 39.0095 111.275 37.8712 111.654C37.0354 111.932 36.1899 112.185 35.3645 112.494C34.6218 112.772 34.0232 113.194 33.317 113.525C32.6853 113.821 32.0032 113.996 31.3744 114.312C30.724 114.638 30.2099 115.036 29.5418 115.326C28.742 115.674 28.0829 116.292 27.3716 116.783C26.7454 117.215 26.083 117.549 25.5443 118.093C25.0392 118.603 24.3998 118.826 23.8274 119.279C23.2221 119.758 22.5885 120.07 21.9199 120.445C20.5501 121.215 18.702 122.53 17.0536 121.782C17.5251 121.18 18.49 120.601 18.5633 119.771C18.6588 118.69 17.7181 119.088 17.1734 119.433C16.3483 119.956 15.8919 120.587 15.2638 121.284C14.5295 122.098 13.602 121.55 12.7035 121.321C13.3178 120.768 13.9272 120.21 14.5404 119.656C15.0581 119.189 15.8502 118.683 16.1655 118.036C16.3908 117.574 16.3798 116.94 15.8361 116.7C15.2278 116.432 14.5399 116.998 14.0893 117.335C12.8933 118.23 12.1056 119.364 11.3203 120.61C10.9026 121.272 10.7101 121.221 9.94167 121.089C9.12735 120.949 8.31284 120.799 7.49173 120.701C8.57944 119.584 9.79507 118.373 10.6541 117.066C10.9324 116.643 11.2954 115.527 10.4475 115.424C10.0981 115.382 9.40243 116.096 9.13282 116.289C7.95492 117.131 6.82249 118.193 6.04176 119.422C5.78403 119.828 5.70309 120.279 5.20404 120.313C4.55161 120.357 3.33918 119.734 2.70976 119.542C3.91275 118.025 5.10725 116.498 6.51269 115.161C7.80398 113.932 9.09206 113.039 10.6022 112.096C12.2209 111.086 13.7286 109.923 15.2146 108.73C16.637 107.587 18.123 106.509 19.4324 105.234C22.0478 102.685 24.3774 99.7549 26.3066 96.6561C26.7579 95.9311 27.1828 95.1871 27.5501 94.4156C27.895 93.691 28.0541 92.8245 28.5197 92.1655C28.6807 91.9378 28.9073 91.7686 29.0506 91.5311C29.1859 91.3073 29.1401 91.0369 29.3463 90.8389C29.8233 90.381 30.6917 90.657 31.1376 90.978C31.8545 91.4941 32.4345 92.1206 33.2224 92.5526C34.0151 92.9871 34.8724 93.303 35.7499 93.5166C37.801 94.0153 39.8344 94.4244 41.9239 94.7275C41.7088 95.5249 42.2369 95.6505 42.4118 96.368C42.6243 97.2387 42.352 98.3337 42.3254 99.2204ZM22.5759 85.9232C22.1108 85.2323 21.6959 84.5098 21.2388 83.8144C20.9605 83.3909 20.6154 82.936 20.8533 82.4181C21.254 81.5447 22.6678 81.3893 23.4349 81.77C25.179 82.6356 23.5589 85.1103 22.5759 85.9232ZM17.9594 70.1213C17.7988 68.7708 18.3152 67.8127 19.5369 67.1046C20.4076 66.5999 21.1088 67.2897 20.9899 68.2096C20.809 69.6113 19.3113 71.1702 18.1683 71.9015C18.0935 71.3088 18.0302 70.7146 17.9594 70.1213ZM17.7732 66.2574C18.1335 65.9713 19.0986 66.3363 19.5162 66.3612C18.942 66.8629 18.3677 67.3646 17.7934 67.8663C17.7558 67.5221 17.4407 66.5213 17.7732 66.2574ZM19.7109 53.2155C22.6166 52.8376 19.2716 55.9561 18.4296 56.4447C18.5666 55.7812 18.9032 53.3207 19.7109 53.2155ZM27.4465 47.756C27.0564 49.3542 24.023 51.0978 23.9913 48.4798C23.9796 47.5043 24.5275 47.5832 25.3273 47.4896C25.7836 47.4363 27.6695 46.8423 27.4465 47.756ZM16.9692 50.2311C16.6287 51.1248 16.3557 52.0418 16.0219 52.9366C15.874 53.3327 15.7 53.605 15.4246 53.919C15.194 54.1815 14.9197 54.2478 14.9287 54.6626C15.2176 54.6069 15.4436 54.4347 15.677 54.2687C15.6204 55.0913 15.3297 55.9765 15.1889 56.7963C15.0202 57.7795 14.8799 58.7631 14.8278 59.7601C14.7148 61.928 14.7138 64.0882 14.7614 66.2574C14.7857 67.3627 14.7966 68.4687 14.8563 69.5727C14.8861 70.122 14.9197 70.6736 14.9876 71.2195C15.0151 71.4398 15.1751 71.9091 15.0763 72.1156C14.6882 72.9264 12.969 70.6993 12.2224 71.0261C12.3297 70.409 12.082 70.5441 11.6682 70.2406C11.4679 70.0935 11.3375 69.8433 11.1284 69.7123C11.0652 69.6441 10.9956 69.5835 10.9198 69.5303C10.8333 69.4124 10.7422 69.4251 10.6464 69.5678C9.80525 69.065 9.5879 67.9934 9.1364 67.2725C8.90414 66.9018 8.67981 66.844 8.64019 66.3316C8.60585 65.885 8.67302 65.4299 8.6549 64.9815C8.63434 64.4756 8.60472 63.9178 8.46283 63.428C8.29812 62.8593 8.07152 62.9057 7.63021 62.6027C7.76625 62.5432 7.85587 62.4433 7.89926 62.303C7.75832 62.3281 7.33003 62.5028 7.22362 62.3772C7.01438 62.1306 7.50814 62.0978 7.63795 61.9994C7.08419 61.7535 7.20343 61.5515 7.40324 61.101C7.45984 60.9735 7.5138 60.783 7.56191 60.6755C7.667 60.4406 7.72738 60.5894 7.7621 60.2977C7.79511 60.0196 7.54852 59.4725 7.47588 59.1763C7.35399 58.6791 7.28664 58.2495 7.39607 57.7316C7.48474 57.3122 7.72323 56.9325 7.73983 56.5012C7.74455 56.3802 7.56002 56.34 7.55757 56.2231C7.55399 56.0522 7.71342 55.977 7.75493 55.8192C7.86077 55.4151 7.81304 54.9878 7.99417 54.6043C8.15718 54.2599 8.48642 53.8142 8.71943 53.5136C8.88094 53.3054 9.27715 53.0707 9.32055 52.7957C9.34923 52.6135 9.06565 52.6345 9.07829 52.4972C9.09546 52.3114 9.25131 52.2512 9.29414 52.1131C9.41206 51.7342 9.44168 51.3699 9.74639 51.0795C10.1302 50.7139 10.2969 50.8671 10.3128 50.2642C10.3205 49.97 10.0852 49.9247 10.2113 49.5855C10.2798 49.4014 10.4818 49.2927 10.6111 49.1622C10.9949 48.7751 11.2535 48.4312 11.5267 47.953C11.7684 47.5304 12.1539 47.2845 12.4014 46.9195C12.7239 46.4439 12.2418 46.208 12.8961 46.0738C12.8031 45.7785 12.7042 45.5398 12.949 45.2898C13.1033 45.1321 13.495 45.2286 13.6316 45.0462C13.7882 44.8368 13.5567 44.3406 13.7927 44.2046C13.9846 44.0943 14.2719 44.4346 14.5734 44.2662C14.8033 44.1378 15.1502 43.4287 15.0763 43.1682C15.6704 43.5024 15.5223 43.2722 15.8066 42.8434C15.8704 42.7473 16.0636 42.7259 16.1185 42.6289C16.2283 42.435 16.2032 42.2373 16.3613 42.0796C16.6249 41.8171 17.056 41.8845 17.346 41.697C17.5856 41.5422 17.573 41.3753 17.7641 41.2291C17.9275 41.1043 18.1958 41.0803 18.3547 40.951C18.6658 40.6976 18.6688 40.43 19.0581 40.2117C19.519 39.9534 19.9273 39.7336 20.3465 39.3911C20.6199 39.1679 20.8793 38.7721 21.1991 38.6249C21.6414 38.4211 21.9859 38.4068 22.4185 38.1162C22.7312 37.906 23.0268 37.5593 23.3338 37.3822C23.5653 37.2489 23.7278 37.2776 24.0196 37.1949C24.5449 37.0459 24.6728 36.551 25.1013 36.3495C25.3955 36.2111 25.8237 36.3378 26.1468 36.2651C27.152 36.0395 28.145 35.5527 29.1537 35.2831C30.385 34.9541 31.6249 34.666 32.8657 34.3752C31.7255 35.9205 30.2733 37.3148 28.8005 38.5422C28.3171 38.9451 25.6679 40.7818 27.0958 41.5662C27.669 41.8809 28.9142 40.8641 29.3771 40.6156C30.3089 40.1151 31.2742 39.7144 32.2502 39.3095C33.8285 38.6549 35.8839 37.4906 37.6378 37.5843C36.5701 38.8941 35.2373 39.9457 34.0162 41.1028C32.894 42.1663 31.2031 43.1636 31.7323 44.9042C30.1559 44.5031 28.7401 44.0292 27.1013 44.1342C26.3671 44.1812 25.6326 44.0928 24.9019 44.1957C24.1072 44.3081 23.3589 44.574 22.5953 44.8073C21.9912 44.9918 21.3237 45.0064 20.7678 45.3132C20.4992 45.4616 20.1671 45.6735 19.9258 45.8576C19.6041 46.1031 19.5309 46.2656 19.2782 46.5891C18.3769 47.7432 17.5049 48.8251 16.9692 50.2311ZM12.0392 72.0747C11.9899 71.8749 11.9452 71.6927 11.8888 71.4646C12.3905 71.7735 12.3905 71.7735 12.0392 72.0747ZM8.24774 65.7128C8.18586 65.7983 7.92605 65.8257 7.85058 65.7519C7.75662 65.6601 8.0036 65.3029 8.04322 65.227C8.14114 65.3021 8.36642 65.5481 8.24774 65.7128ZM7.17362 63.3974C7.24003 63.1535 7.30663 62.9097 7.37305 62.6657C7.45456 62.8918 7.82228 63.1418 7.8304 63.3572C7.83549 63.5 7.24626 63.429 7.17362 63.3974ZM7.38682 63.732C7.96247 64.111 8.02266 64.5581 8.03982 65.2122C7.35097 64.9841 7.44984 64.3172 7.38682 63.732ZM17.3975 37.92C17.3394 38.0773 17.0928 38.5673 16.9121 38.2246C16.8543 38.1148 17.2773 37.9651 17.3975 37.92ZM17.2323 37.3858C17.3745 37.2576 17.6613 37.4171 17.8222 37.3135C17.9351 37.2408 17.8977 37.1671 17.9507 37.1241C17.9613 37.1154 18.1147 36.805 18.1775 36.7345C18.2885 36.6107 18.5305 36.5334 18.6654 36.4217C19.0424 36.1092 19.2552 35.6983 19.4924 35.2804C19.7754 34.7813 19.8656 34.7236 20.322 34.4951C20.6367 34.3376 20.8807 34.1448 21.1367 33.8771C21.4318 33.5687 21.4101 33.348 21.6523 33.0109C21.772 32.8446 21.9442 32.824 22.0836 32.6899C22.2508 32.5294 22.3357 32.3049 22.4902 32.1429C22.557 32.0729 22.7714 32.073 22.8117 32.013C22.8632 31.9371 22.9034 31.6335 22.9517 31.5776C23.044 31.7022 23.1364 31.8268 23.2285 31.9514C23.5923 31.3117 23.8578 30.7832 24.466 30.3574C25.1049 29.9103 25.6564 29.2562 26.3168 28.8559C26.465 28.766 26.7675 28.728 26.8809 28.5955C27.0726 28.3712 26.9065 28.1716 27.0464 27.981C27.205 27.765 27.5124 27.9399 27.7141 27.8468C27.9694 27.729 28.0424 27.3847 28.371 27.4227C27.2903 28.7012 27.3039 30.6905 27.2465 32.2874C27.2216 32.9754 27.655 33.3223 27.0152 33.8272C26.4711 34.2568 25.7037 34.1293 25.0604 34.412C24.2525 34.767 23.3883 34.9558 22.564 35.2653C21.7114 35.5852 21.0257 36.1454 20.2052 36.5161C19.4816 36.8427 18.9875 37.3072 18.3256 37.7106C18.0796 37.8605 17.6985 38.0782 17.4051 37.899C17.2213 37.7867 16.9924 37.6022 17.2323 37.3858ZM29.4378 26.6657C29.4848 26.484 30.4072 26.0067 30.6342 25.8509C30.9748 25.6168 31.4789 25.045 31.8591 25.2722C31.9908 24.7446 32.5047 24.1575 32.9589 24.0458C33.4626 23.9215 34.3269 23.4895 34.8226 23.1124C34.9673 23.0023 35.015 22.8412 35.1854 22.738C35.482 22.558 35.7763 22.6562 36.062 22.4109C36.1058 22.3735 36.501 21.7208 36.5167 21.727C36.5369 21.7971 36.5554 21.8679 36.5714 21.9391C36.8714 21.7727 37.1386 21.6403 37.3256 21.4281C37.368 21.3799 37.0931 21.2548 37.1799 21.1594C37.2861 21.0427 37.5233 21.1732 37.6306 21.0623C37.2967 22.7202 37.5454 24.8541 39.2272 25.6946C37.2271 25.9108 35.2735 25.3094 33.2487 25.6787C32.2794 25.8556 31.2942 26.1459 30.4125 26.5917C29.8723 26.8649 29.1816 27.8434 28.6439 27.3683C28.8573 27.0838 29.1827 26.907 29.4378 26.6657ZM39.1429 21.8962C39.8908 20.9813 41.0253 20.6194 42.1679 20.947C43.5056 21.3307 42.9415 22.2653 42.7394 23.3031C42.3534 22.7372 41.5171 22.1758 40.8051 22.1588C39.7957 22.1349 40.1772 22.9759 40.7834 23.2772C41.3345 23.551 42.2796 23.6273 42.6741 24.1253C43.0581 24.6098 42.9109 25.4021 42.9728 25.9735C42.6743 25.9291 42.3758 25.8847 42.0771 25.8403C42.3277 24.5069 41.2251 24.4423 40.197 24.0663C39.158 23.6866 38.2917 22.9374 39.1429 21.8962ZM42.4932 18.6125V19.8501C42.0773 19.6129 41.6613 19.376 41.2453 19.1388C41.6613 18.9634 42.0773 18.788 42.4932 18.6125ZM45.8365 28.5011C47.2253 28.8774 48.6045 29.2756 49.9396 29.7949C50.4245 29.9835 50.9556 30.0502 51.4307 30.2632C51.8831 30.4658 51.951 30.4446 51.7901 30.8412C51.3394 31.952 50.2715 31.7602 49.3358 31.5902C47.8713 31.3242 46.4372 30.9554 44.991 30.6083C43.5775 30.2694 42.1341 30.0472 40.7419 29.6223C39.3132 29.1865 37.921 28.7737 36.4514 28.486C36.0226 28.4019 32.63 28.0907 32.6557 27.7361C34.7924 27.4586 36.9922 27.732 39.1383 27.7609C41.3688 27.7909 43.6731 27.9146 45.8365 28.5011ZM43.9512 24.204C43.9778 23.4402 43.9884 22.674 44.0833 21.9147C44.719 22.6993 45.2927 22.9342 46.094 22.1987C46.8612 21.4947 47.0323 21.1277 48.0049 21.7895C48.8481 22.3635 49.6458 22.3371 50.5413 21.8346C51.0875 21.5282 51.9652 20.2759 52.5393 20.5336C52.8129 20.6566 53.0135 21.1518 53.2897 21.3341C53.6363 21.5623 54.1693 21.7208 54.5732 21.8093C55.5274 22.0184 56.0959 21.4047 56.6947 20.7483C57.5632 19.7965 57.5377 20.3493 58.343 21.0093C59.2411 21.7455 59.992 21.3858 60.8052 20.7576C61.3006 22.2091 61.4859 23.7942 61.6259 25.316C61.6731 25.8298 61.8495 26.5594 61.388 26.9227C61.0627 27.1789 60.3724 27.1889 59.9805 27.3305C58.5805 27.8368 57.2353 28.5549 56.0644 29.4743C55.6081 29.8325 55.2104 30.2711 54.587 30.1895C53.9929 30.1117 53.4155 29.6144 52.9376 29.286C52.4192 28.9299 51.8944 28.5254 51.2884 28.327C50.9335 28.2107 50.365 28.2528 50.0545 28.0396C49.4771 27.6432 50.1566 26.6036 50.0128 25.9057C49.9039 25.3758 49.599 24.271 48.8692 24.5816C47.7832 25.0437 48.4153 26.8475 49.0124 27.4106C47.7908 27.1936 46.4382 26.8768 45.2599 26.4742C44.3497 26.1632 43.9186 25.1357 43.9512 24.204ZM64.4408 27.9242C66.9486 27.2201 69.2954 26.7452 71.9053 26.617C73.0605 26.5601 74.179 26.596 75.3214 26.6064C75.9792 26.6124 76.4803 26.082 75.9548 25.4719C75.2277 24.6271 73.0096 24.9487 72.0268 24.9108C69.3925 24.809 66.9771 25.1085 64.4823 25.9769C64.746 25.4908 65.3798 25.4278 65.8143 25.1764C66.3471 24.8679 66.7094 24.3598 66.9371 23.7958C67.5294 22.329 66.9331 20.9468 66.3135 19.6069C67.5307 19.9343 68.7897 20.6513 70.0133 20.8333C70.2699 20.8714 70.4344 20.8469 70.6614 20.9404C70.8006 20.9976 70.8446 21.1957 71.0172 21.2389C71.1006 21.2599 71.301 21.0714 71.3953 21.098C71.7679 21.2034 71.4732 21.2313 71.7089 21.3839C71.8959 21.5049 71.8808 21.6607 72.2238 21.6035C72.3758 21.5784 72.5408 21.3431 72.6209 21.3367C72.723 21.3284 72.6994 21.2041 72.8557 21.2404C73.1398 21.3065 73.1147 21.6726 73.2094 21.8528C73.3105 22.0446 73.167 22.2997 73.4736 22.4047C73.7028 22.4832 73.7603 22.2412 73.9552 22.2585C74.0735 22.2691 74.3192 22.4396 74.4237 22.5435C74.7605 22.8781 75.2216 23.2476 75.6744 23.4653C75.6299 23.4206 75.8878 23.3127 75.8261 23.2874C75.7846 23.2706 76.0556 23.336 76.0514 23.335C76.3129 23.3945 76.451 23.7959 76.5831 23.9423C76.8261 24.2106 77.2037 24.4938 77.5442 24.6122C78.1331 24.8171 78.1152 24.5722 78.33 25.272C78.7487 24.6137 78.9093 25.7161 79.4285 25.8375C79.6974 25.9004 79.666 25.7852 79.9104 25.9259C80.0781 26.0224 80.19 26.3179 80.3164 26.4604C80.3708 26.2548 80.4249 26.049 80.4791 25.8436C80.853 26.552 81.6602 27.6755 82.5454 27.4723C82.5454 27.6657 82.4658 27.8968 82.6154 28.0619C82.7199 28.1772 82.8892 28.0462 82.9711 28.1132C83.0424 28.1718 83.2131 28.4048 83.2679 28.4431C83.3756 28.5186 83.5712 28.5738 83.6648 28.6491C83.7473 28.7154 83.788 29.032 83.8795 29.1465C84.0514 29.3615 84.3486 29.4042 84.4892 29.6621C84.5212 29.4078 84.5533 29.1533 84.5852 28.8989C84.864 29.1144 84.888 29.2817 84.9565 29.5968C85.054 30.0456 84.9246 29.9405 85.2342 30.1299C85.5384 30.3162 85.697 30.2953 85.9759 30.6185C86.2493 30.9354 86.2518 31.1306 86.6463 30.8006C86.7197 31.0447 86.7432 31.3606 86.9391 31.5477C87.087 31.6892 87.6996 31.6952 87.7581 32.0292C86.6072 31.0581 87.3646 32.533 87.7587 32.0317C87.8419 32.5683 88.2347 32.7417 88.6832 33.1239C89.1015 33.48 89.17 33.4541 89.3128 34.0525C89.3096 34.0393 89.523 34.1716 89.5385 34.1981C89.1309 34.2562 89.7628 34.7117 89.8696 34.7949C89.9475 34.8557 90.049 34.7105 90.1784 34.8089C90.3266 34.9215 90.4471 35.1773 90.5677 35.3316C90.8943 35.7498 91.136 36.1092 91.4797 36.4492C91.8507 36.8163 92.031 37.2802 92.3873 37.7093C92.7823 38.1857 92.9961 38.7334 93.3265 39.2506C93.6406 39.7425 94.0578 40.1373 94.4216 40.5877C95.0014 41.3045 95.1985 42.883 96.2794 42.9246C96.216 42.9901 96.3042 43.4793 96.3145 43.5696C96.3657 44.0139 96.3317 44.4414 96.5945 44.8438C96.6547 44.3847 96.8949 44.5617 97.1036 44.8028C97.4505 45.2041 97.1458 45.103 97.1641 45.5096C97.1864 46.0024 97.2424 45.6212 97.4302 46.0515C97.5771 46.3885 97.6577 46.6072 97.7366 46.9813C97.126 47.0296 96.8464 46.5307 96.6207 46.0473C96.5264 45.8451 96.4938 45.5128 96.3268 45.3547C96.1491 45.1865 95.9049 45.1733 95.7223 44.9856C95.3717 44.6249 95.2198 44.0626 94.8066 43.7116C94.3399 43.3151 94.2365 43.1277 93.8506 42.6536C93.4238 42.1292 92.8344 41.761 92.3867 41.2539C91.9382 40.7457 91.9746 41.0231 91.4112 40.8392C90.8122 40.6434 89.8436 38.7599 89.0889 39.4853C89.1187 39.0108 88.4079 38.5644 88.0487 38.3924C87.8934 38.3182 87.7127 38.3854 87.5572 38.274C87.3887 38.1532 87.3766 37.9202 87.2066 37.7752C87.2066 37.7752 86.9461 37.8384 86.8932 37.8118C86.7855 37.7572 86.7848 37.5642 86.6897 37.5008C86.4267 37.325 86.1131 37.1407 85.834 36.991C85.1555 36.6271 84.5559 36.179 83.9012 35.741C83.3405 35.3656 82.6616 34.6877 82.0134 34.4898C81.4471 34.317 81.0911 34.405 80.6275 34.0589C80.3749 33.8705 80.4492 33.8072 80.0434 33.6899C79.657 33.5784 79.44 33.6358 79.2353 33.226C78.8772 32.509 79.1032 31.1097 79.034 30.3057C78.9604 29.4524 78.873 28.5779 78.6506 27.7482C78.3874 26.7677 78.0399 26.255 76.988 26.4859C74.9039 26.944 72.8451 27.3798 70.7515 27.782C66.5798 28.5834 62.4797 29.8912 58.3996 31.0523C58.0888 31.1408 56.3551 31.5377 56.7092 30.6412C56.8724 30.2277 57.9698 30.0736 58.3371 29.9437C60.3537 29.2299 62.3795 28.5028 64.4408 27.9242ZM63.7398 26.0994C63.4351 26.2155 63.1306 26.3317 62.8259 26.448V25.6007C63.1306 25.7669 63.4351 25.9331 63.7398 26.0994ZM62.4736 21.6196C62.7383 21.836 63.2766 21.3152 63.5017 21.2096C63.8862 21.0295 64.3758 20.8748 64.8055 20.9118C65.5977 20.9804 66.1771 21.7604 66.032 22.5512C65.7864 23.8892 63.88 24.522 62.8289 25.045C62.7951 24.5709 62.6417 24.0008 62.9742 23.5907C63.2629 23.2346 63.8227 23.2604 64.0891 22.8817C64.7594 21.9296 62.9427 21.8433 62.5366 22.6003C62.3765 22.1165 62.2163 21.6328 62.0561 21.149C62.4427 21.085 62.2729 21.4557 62.4736 21.6196ZM64.3487 19.0006C63.9704 19.2451 63.5921 19.4896 63.214 19.7342C63.0264 18.8877 63.6655 18.7762 64.3487 19.0006ZM98.8148 48.4632C98.3194 48.6996 98.1956 48.135 97.8394 48.1106C98.2601 47.8519 98.2601 47.8519 98.8148 48.4632ZM100.829 60.7903C100.891 61.6017 100.843 62.4225 100.951 63.2307C101.033 63.8455 101.282 64.4176 101.309 65.0394C101.367 66.4012 100.907 67.788 99.9784 68.7863C99.0999 69.7306 97.843 70.5433 96.6572 70.9404C96.1228 71.119 95.5651 71.5154 95.0461 71.6619C94.4719 71.8241 93.9265 71.4712 93.4529 72.1041C93.1371 69.3892 93.3678 66.5523 93.3429 63.8202C93.318 61.0823 93.3474 58.3434 92.8842 55.6349C92.4718 53.2227 91.6586 50.5094 90.1598 48.536C89.5509 47.7347 88.8013 47.0783 88.0108 46.4639C87.6006 46.1452 87.1902 45.8043 86.7334 45.5526C86.0303 45.1652 85.4314 45.2188 84.6667 45.1083C83.5722 44.9503 82.5549 44.8168 81.4564 45.1249C80.4338 45.412 79.3076 45.7388 78.3916 46.2373C77.4791 46.7341 76.4195 46.9388 75.4724 47.3837C74.8281 47.6863 73.4896 48.6975 72.7747 48.5155C72.0826 48.3391 71.0583 47.1646 70.6165 46.6386C70.0518 45.9662 69.5846 45.1869 69.0837 44.4635C68.9078 44.2095 68.5491 43.817 68.5035 43.4909C68.4241 42.9248 68.6508 43.1098 69.1916 43.1731C70.5821 43.3362 71.8898 43.5941 73.2224 44.0318C73.8856 44.2495 75.1824 45.1306 75.8456 44.6027C76.8582 43.7966 75.3195 42.4112 74.756 41.9457C73.7958 41.1526 72.6794 40.5637 71.6559 39.859C70.5685 39.1101 69.1306 38.3129 68.4308 37.1598C70.4744 37.7631 72.5158 38.454 74.4998 39.2317C75.4075 39.5875 76.3046 39.9634 77.1571 40.4366C77.6359 40.7023 78.6034 41.421 79.18 41.0767C80.4336 40.3284 77.5546 38.1553 77.1391 37.7111C76.4937 37.021 75.8612 36.3374 75.1518 35.7113C74.6731 35.2889 73.9213 34.9919 73.6988 34.3688C74.4932 34.6563 75.1354 35.2196 75.8793 35.6024C76.2688 35.8029 76.624 35.9183 77.0542 35.9796C77.5127 36.0453 77.5674 36.1184 77.9287 36.3006C78.21 36.4428 78.4991 36.6328 78.8149 36.7294C79.04 36.7984 79.4332 36.8103 79.63 36.9379C79.7306 37.0814 79.8344 37.2225 79.9417 37.3611C80.0617 37.3964 80.1798 37.437 80.2962 37.4832C80.4707 37.6388 80.5741 37.8533 80.7439 38.0138C81.976 39.1789 83.6239 40.0127 85.0052 40.9888C86.3119 41.9121 87.6987 42.7475 88.9538 43.7552C90.3981 44.9152 91.8971 46.1618 93.1255 47.5526C93.8199 48.3387 94.3906 49.23 94.9738 50.0991C95.396 50.7285 96.0102 51.2506 96.3751 51.8996C97.1709 53.3144 97.8315 54.8439 98.6881 56.2359C99.5611 57.6544 100.698 59.0637 100.829 60.7903ZM89.0889 68.9997C89.3268 68.0178 90.6696 66.8712 91.5277 66.4383C91.0952 67.5081 89.943 68.2377 89.0889 68.9997ZM91.3029 72.4249C90.5711 73.9434 87.3529 74.1172 87.7895 71.87C88.0034 70.7689 88.9115 70.0933 89.6909 69.3728C90.0513 69.0399 90.9337 67.8488 91.4916 68.0406C91.4654 68.8969 91.415 69.757 91.4169 70.6135C91.418 71.1853 91.562 71.8875 91.3029 72.4249ZM90.3728 54.9228C90.6698 55.5898 90.9656 56.1451 90.4147 56.7418C90.1662 57.011 89.356 57.6002 88.9896 57.4693C87.8132 57.0497 90.056 55.2229 90.3728 54.9228ZM83.2577 48.9888C83.5411 48.9734 83.8161 49.0155 84.0961 48.9983C84.375 48.9809 84.4044 48.9314 84.6629 48.9667C84.6903 49.0064 84.7174 49.0461 84.7448 49.0857C84.7801 49.3518 84.9199 49.3807 85.1638 49.1726C85.5033 49.2481 85.724 49.2985 86.0485 49.4819C85.1727 50.1135 84.1065 50.8478 83.0326 51.0599C81.3353 51.3948 81.8041 49.0689 83.2577 48.9888ZM57.2366 63.1926C57.0606 63.5466 56.5543 62.662 56.4291 62.4971C56.6626 62.4964 57.4145 62.8353 57.2366 63.1926ZM70.8748 53.8724C72.1936 53.1029 73.7598 52.4271 75.1762 51.8542C75.4252 53.0542 74.2105 54.6033 73.4624 55.4243C72.8575 56.0884 72.1281 56.7771 71.308 57.1593C70.4212 57.5724 69.452 57.3909 69.495 56.2316C69.5108 55.8078 69.6072 55.1262 69.7797 54.7389C70.0021 54.2397 70.4225 54.136 70.8748 53.8724ZM53.0482 32.0451C53.2444 32.0336 55.3766 31.7579 55.3653 32.0232C55.3317 32.8206 53.2621 32.1945 53.0482 32.0451ZM37.9704 47.4418C39.0966 46.0522 40.9147 44.5524 40.9413 42.6104C40.9806 39.7527 37.8091 41.1785 36.2146 41.2973C37.0578 40.4689 41.2945 36.9936 38.7885 35.7593C38.0682 35.4045 37.0444 35.7511 36.3216 35.937C35.0392 36.2668 33.8468 36.838 32.587 37.2355C33.4871 36.2772 35.0426 35.1881 34.9916 33.7368C34.9294 31.9701 33.4792 32.3973 32.2253 32.6565C31.7434 32.7562 29.5908 33.6125 29.1865 33.0311C29.0384 32.8181 29.278 32.5476 29.3288 32.358C29.4184 32.0224 29.3906 31.9054 29.3937 31.5627C29.3999 30.8712 29.8593 29.9833 29.4846 29.3402C29.3989 29.4863 29.3255 29.6383 29.2646 29.7964C29.141 29.4221 29.224 29.0252 29.1005 28.651C32.2309 29.4516 35.4156 29.8899 38.5657 30.5732C40.1604 30.9191 41.6613 31.5149 43.2779 31.783C44.9082 32.0532 46.5102 32.4669 48.1436 32.7247C49.6339 32.9598 51.0616 33.3512 52.5375 33.6514C53.9761 33.9441 55.4515 33.3027 56.8557 32.9779C60.0007 32.2505 63.1446 31.5054 66.2937 30.7996C69.9278 29.9848 73.7081 29.2883 77.1865 27.9295C77.2539 29.7405 77.3988 31.5481 77.6201 33.3467C76.0839 32.6204 73.8041 31.6735 72.2511 32.973C71.6296 33.4928 71.4381 34.3905 71.6838 35.1539C71.9511 35.9849 72.7702 36.3709 73.3105 36.9964C71.6659 36.5748 67.4231 33.6021 66.6679 36.6069C66.1345 38.7291 68.7363 40.1 70.0085 41.2945C68.7452 41.0471 67.0533 40.0371 66.3115 41.6604C65.6703 43.0637 66.4426 44.5908 67.2335 45.7482C67.6622 46.3753 68.1442 46.9656 68.5999 47.5732C68.8408 47.8946 69.0761 48.2205 69.3293 48.5325C69.5833 48.8453 70.0623 49.173 70.2402 49.5096C70.5985 50.1886 69.8755 50.2302 69.3133 50.4755C68.6112 50.7817 68.0084 51.2961 67.3663 51.706C65.8962 52.6447 64.6113 53.5165 62.874 53.8165C61.0854 54.1252 59.3631 54.4477 57.5981 54.8785C55.8385 55.3078 54.4021 55.7204 52.6035 55.1655C51.7835 54.9124 51.1156 54.6875 50.2458 54.7351C49.3322 54.7852 48.7981 54.7378 48.047 54.1719C44.8148 51.7376 41.3064 49.74 37.9704 47.4418ZM32.1434 44.9979C33.3926 44.3712 34.6501 43.7412 35.9405 43.2027C37.0086 42.7567 38.6304 42.2373 39.7996 42.4327C39.47 43.2794 38.8685 43.9741 38.2234 44.5976C37.6529 45.1489 36.9401 45.9811 36.2497 46.3659C35.6228 46.7152 34.8933 46.162 34.2751 45.9301C33.5956 45.6755 32.6608 45.5568 32.1434 44.9979ZM32.4574 48.1599C33.0798 47.9012 34.4177 48.7692 34.9839 48.9949C36.0965 49.4386 37.2154 49.902 38.1959 50.602C36.9986 51.9857 35.6426 53.2508 34.0313 54.1396C32.9711 54.7244 31.1844 55.3951 30.1844 54.3333C28.928 52.9991 30.4384 50.2804 31.3278 49.1371C31.3572 49.3327 31.3868 49.5281 31.4164 49.7237C31.7002 49.2694 31.9168 48.3846 32.4574 48.1599ZM55.3106 60.0029C54.534 60.1665 54.2701 60.0188 53.7574 59.4233C53.4108 59.0207 53.0703 58.6026 52.6795 58.2407C52.2807 57.8713 51.2958 56.9806 52.5507 57.4935C53.6944 57.9608 54.6742 58.1946 55.9327 58.0114C57.3715 57.8022 58.713 57.1938 60.1316 56.8858C59.3539 57.5664 58.5818 58.2537 57.8026 58.9323C56.9794 59.6493 56.3566 59.7826 55.3106 60.0029ZM55.4881 65.4762C53.7863 66.757 50.36 66.6184 51.5131 63.8004C51.6884 63.3723 51.9335 62.9696 52.2171 62.6049C52.3116 62.4832 52.4799 62.2309 52.6146 62.1491C52.991 61.9208 52.8867 61.8933 53.2486 62.2739C53.5608 62.6023 56.001 65.2853 55.4881 65.4762ZM54.9836 60.5796C55.1395 60.529 55.7964 60.1482 55.946 60.3589C56.0976 60.5723 54.8097 61.3104 54.9836 60.5796ZM67.3735 80.1129C66.9909 81.0285 63.9283 82.354 64.4989 80.5083C64.7515 79.6907 64.9898 79.0717 65.9432 79.0096C66.4933 78.9739 67.7105 79.3066 67.3735 80.1129ZM72.8672 67.7047C73.3713 66.9706 75.0362 65.9779 75.7471 67.0727C76.0895 67.6001 75.2584 67.8703 74.7558 67.7347C74.486 67.6617 74.2652 67.5004 73.9718 67.4883C73.5947 67.4728 73.226 67.7687 72.8672 67.7047ZM74.2037 68.4334C73.8609 68.7804 71.7932 70.5203 71.4583 70.2519C72.1336 69.2867 72.9089 68.2087 74.2037 68.4334ZM70.8268 86.0395C70.1089 86.0801 70.4674 84.9981 70.5368 84.5656C70.7106 84.8669 71.6245 85.9944 70.8268 86.0395ZM72.6511 84.1003C72.4189 83.687 71.793 83.0718 71.9345 82.54C72.0428 82.1335 73.0196 81.5869 73.4287 81.8201C73.9718 82.1301 73.1843 84.1688 72.6511 84.1003ZM89.6875 79.7664C89.3803 80.8246 89.0621 80.5515 88.0991 80.7566C87.1329 80.9622 86.465 81.7827 85.6144 82.2226C85.9099 81.598 86.0931 80.8368 86.5878 80.33C86.7021 80.213 87.4032 79.9818 87.0038 79.7107C86.6546 79.4737 86.1525 80.2428 86.0027 80.4524C85.2659 81.4839 84.7506 82.7436 84.3252 83.9305C84.1159 84.5134 83.9484 85.1073 83.8493 85.7195C83.7611 86.265 83.8563 86.8358 83.7663 87.3671C83.6214 88.2229 82.4592 88.2272 81.7601 88.448C81.1273 88.6475 80.4974 88.8641 79.8406 88.9718C79.2712 89.065 78.6802 88.8951 78.1283 89.0073C77.5308 89.1287 77.2623 89.4833 76.5831 89.403C76.0294 89.3379 75.5112 89.0832 74.9499 89.0577C74.4247 89.0341 73.9007 89.2157 73.3787 89.0679C72.8517 88.9185 72.8772 88.8607 72.997 88.343C73.0719 88.4827 73.147 88.6224 73.2221 88.762C73.4321 88.5973 73.5773 88.0952 73.706 87.8594C73.9056 87.4942 74.0683 87.3679 73.9943 86.913C73.8852 86.2412 73.2796 85.7633 73.1422 85.1243C72.9988 84.4575 73.4919 83.9124 73.7832 83.3558C74.1815 82.5938 74.1762 82.0289 73.8424 81.2409C74.0941 81.3074 74.3458 81.3739 74.5977 81.4405C74.2526 80.6915 73.0824 80.9951 72.4957 81.2169C72.2008 81.3284 71.7334 81.7666 71.4161 81.7555C70.98 81.7402 70.7527 81.1669 70.5653 80.8512C70.0231 79.9379 69.404 79.0358 68.7625 78.1878C68.5861 77.9546 68.355 77.8047 68.4159 77.5388C68.4678 77.3134 68.9735 76.9935 69.1376 76.8545C69.7529 76.3343 70.5359 76.046 71.1138 75.4984C71.9872 74.671 72.9943 74.0781 73.8871 73.2669C74.8175 72.4219 75.776 71.6458 76.7454 70.8473C77.7272 70.0386 78.5778 69.0856 79.5525 68.2685C79.8051 68.7262 80.2943 70.365 80.854 70.4919C81.5064 70.6396 81.487 69.8677 81.4545 69.4032C81.4083 68.7412 81.0407 68.098 80.9998 67.4662C80.9558 66.7904 81.606 66.4883 82.0968 66.0974C82.8547 65.4936 84.5322 64.1182 83.6305 62.9862C82.8537 62.0111 80.3277 63.8806 79.6315 64.4428C79.0398 64.9205 78.5827 65.3525 77.9165 65.7294C77.448 65.9941 76.6622 67.0127 76.1069 66.9186C75.4463 66.8068 75.1882 66.0855 74.3803 66.1093C73.5907 66.1324 72.92 66.7011 72.4304 67.2721C71.3234 68.5627 70.943 70.2897 69.9344 71.6351C69.437 72.2984 68.792 72.846 68.2525 73.4737C67.6601 74.1625 67.5343 74.9561 66.9501 75.6302C65.2785 73.4032 63.4572 71.2946 61.6944 69.1407C60.814 68.0652 59.952 66.9768 59.0905 65.8861C58.7677 65.4773 58.4035 65.0938 58.1079 64.6645C57.703 64.0765 57.7758 63.6042 57.6168 62.9484C57.5464 62.6578 57.2164 62.3096 57.3047 62.0319C57.4236 61.6586 58.2581 61.3655 58.559 61.2129C59.7878 60.5891 60.9025 59.8094 62.0484 59.0473C64.1704 57.6362 66.3169 56.313 68.5737 55.1077C68.5348 55.627 68.1969 56.1651 68.4239 56.6861C68.5295 56.3864 68.6969 55.0512 69.0971 54.9938C69.0205 55.0048 69.0835 56.7061 69.1454 56.9489C69.3301 57.6738 69.8659 58.1695 70.6327 58.1646C72.0928 58.1551 73.4017 56.5667 74.2122 55.5144C74.7609 54.802 75.288 53.9734 75.4813 53.0818C75.655 52.2812 75.4639 51.7243 76.2961 51.3178C78.0038 50.4838 79.7251 49.8042 81.5515 49.362C81.4696 50.149 81.2415 51.1178 81.9568 51.6839C82.7464 52.3087 83.7795 51.7519 84.5229 51.3386C85.2593 50.9292 86.3948 49.8046 87.2596 50.1312C88.1104 50.4526 88.7024 51.5195 89.1787 52.2279C89.5983 52.8524 90.0551 53.3027 89.569 53.9987C89.0243 54.7788 88.6698 55.5401 88.2334 56.3873C88.0657 56.7131 87.9057 56.9255 88.0242 57.2591C88.0627 57.3675 88.5 58.0124 88.6187 58.1047C89.3764 58.6944 90.3996 57.5728 90.9405 57.147C91.1313 58.9805 91.1739 60.8058 91.2509 62.645C91.3073 63.992 91.8288 65.3182 90.7233 66.3029C89.6183 67.2872 88.6958 68.2978 88.0223 69.6307C87.6625 70.3428 87.3398 71.0735 86.9506 71.7708C86.6906 72.2367 86.1421 72.9198 86.4778 73.4682C86.8319 73.1321 86.9374 72.6211 87.2325 72.2421C87.4093 73.0286 87.5872 73.9012 88.4191 74.2344C89.3762 74.6179 90.3275 73.9544 91.1752 73.5851C90.8713 75.6876 90.2784 77.7307 89.6875 79.7664ZM88.709 82.1832C88.0523 83.5871 87.4589 85.2799 86.2459 86.3137C85.9795 86.5406 84.8478 87.4268 84.4171 87.2784C84.0516 87.1523 84.2527 86.4136 84.3165 86.0971C84.6397 84.4904 85.1988 83.4794 86.5016 82.4545C87.0408 82.0302 87.733 81.4879 88.4283 81.3833C89.1768 81.2706 88.9613 81.6437 88.709 82.1832ZM107.238 115.508C105.535 113.192 103.127 111.392 100.853 109.652C99.8222 108.864 98.6867 108.273 97.6456 107.485C96.4687 106.593 95.2732 105.734 93.955 105.062C91.4554 103.788 88.7287 102.901 86.3699 101.394C85.2195 100.66 83.961 99.9502 82.8796 99.1256C82.4045 98.7632 81.9849 98.3 81.5556 97.8852C81.1568 97.4996 80.3004 96.9399 80.1417 96.3757C80.8055 96.2672 81.183 95.6231 81.7754 95.5574C81.9705 95.5357 83.1933 95.8591 83.0262 95.266C83.4697 95.2549 83.5214 95.2483 83.8931 95.1512C84.0471 95.111 84.2295 95.1739 84.3852 95.1187C84.6233 95.0347 84.7854 94.7919 85.0259 94.6988C85.1969 94.6327 85.8318 94.7065 85.928 94.6242C86.1908 94.3997 85.9116 94.4195 85.7548 94.1391C86.2655 94.1261 86.6163 94.3842 87.1283 94.1099C87.2842 94.0262 87.4161 93.8336 87.5672 93.7339C87.8351 93.5568 87.9319 93.8313 88.1155 93.4637C88.2872 93.9709 88.2825 93.8306 88.6964 93.6814C89.1087 93.5328 89.4064 93.4255 89.876 93.3884C90.9977 93.2996 92.1235 93.4358 93.2401 93.3561C93.6486 93.3268 93.9976 93.2341 94.4034 93.2875C94.7608 93.3345 94.6531 93.583 94.9502 93.2483C95.0193 93.1705 94.7961 92.9575 94.9031 92.8457C94.9502 92.7962 95.104 92.8309 95.1623 92.8056C95.6843 92.5777 95.6866 92.8961 95.7793 93.3109C96.0855 93.2392 96.3977 93.1742 96.6638 92.9947C96.5294 92.8747 96.3045 92.7424 96.4343 92.5234C96.8758 92.6907 97.1645 92.6134 96.9438 93.0981C97.3881 93.2448 97.4711 93.0536 97.8701 93.0117C98.1062 92.9869 98.4356 93.1334 98.6322 92.945C98.8469 92.7392 98.5082 92.5156 98.9026 92.3387C98.9835 92.3798 99.0433 92.442 99.0826 92.5249C99.2956 92.5892 99.2573 92.6731 98.9677 92.7764C99.7433 93.1784 99.5611 92.729 99.8867 92.2535C99.962 92.144 100.299 91.8036 100.452 91.968C100.685 92.2173 100.21 92.2966 100.312 92.5445C100.488 92.9743 101.105 92.4235 101.294 92.2057C101.437 92.0413 101.495 91.7259 101.649 91.603C101.864 91.4323 102.172 91.6961 102.44 91.6489C103.666 91.434 104.823 89.7863 103.9 88.6834C103.652 88.387 103.442 88.4459 103.146 88.2588C102.854 88.0739 102.69 87.754 102.455 87.4899C101.92 86.8869 101.264 86.4353 100.516 86.1466C98.779 85.4766 96.9079 84.988 95.0844 84.6284C94.2399 84.4619 93.3408 84.2072 92.4761 84.2091C91.9667 84.21 91.1996 84.6061 90.7233 84.4164C89.7975 84.0474 91.1567 82.1588 91.3811 81.5487C92.0399 79.7566 92.5371 77.8457 92.8631 75.9642C92.9269 75.596 92.9023 75.1191 93.035 74.7682C93.1872 74.3649 93.2199 74.4219 93.5457 74.3891C94.1344 74.3296 94.7781 74.6383 95.3912 74.5316C96.0706 74.4134 96.8049 74.4684 97.4907 74.2582C97.806 74.1617 98.0983 74.0567 98.3058 73.7907C98.3713 73.7072 98.2984 73.6345 98.3398 73.5762C98.3526 73.5577 98.5871 73.3048 98.5947 73.2903C98.5924 73.1594 98.6037 73.0295 98.6288 72.9009C98.8665 73.0983 98.7494 73.5122 99.1499 73.5218C99.2214 73.0805 99.2222 72.9916 99.5118 72.7433C99.4897 72.7624 99.7299 72.5582 99.6992 72.5799C99.7137 72.5014 99.7426 72.4279 99.7856 72.36C99.921 72.2946 100.064 72.2599 100.215 72.2559C100.528 71.934 100.398 71.7623 100.398 71.329C100.65 71.4602 100.903 71.5915 101.156 71.7227C101.217 70.4389 101.998 69.7359 102.518 68.6955C102.739 68.2521 102.965 67.9056 103.017 67.3709C103.048 67.0623 102.968 66.7902 103.096 66.4994C103.212 66.2356 103.471 66.0935 103.579 65.8061C103.793 65.2405 103.634 64.5187 103.645 63.9314C103.662 63.117 103.743 62.3053 103.769 61.4913C103.822 59.8932 103.661 58.251 103.422 56.6715C103.308 55.916 103.116 55.183 102.966 54.4355C102.842 53.821 102.547 53.2447 102.441 52.6732C102.397 52.4356 102.465 52.2225 102.393 51.9598C102.299 51.6144 102.141 51.2749 102.024 50.9358C101.75 50.1437 101.479 49.3527 101.171 48.5729C100.574 47.0615 99.8748 45.5955 99.2107 44.1132C98.5718 42.6878 98.0428 41.2182 97.2153 39.8871C96.4002 38.5761 95.5227 37.2872 94.6244 36.0323C93.6887 34.7255 92.5058 33.6025 91.5984 32.2836C89.8947 29.8072 87.5183 27.7665 85.0322 26.0815C79.9019 22.6041 74.3579 19.1322 68.2061 17.9399C67.279 17.7604 66.34 17.6358 65.3951 17.6125C64.8089 17.598 63.8374 17.8814 63.2823 17.683C62.6606 17.4607 62.7174 16.7624 62.5619 16.2147C62.3617 15.5105 61.9102 15.0492 61.3976 14.5515C60.858 14.0275 60.3682 13.4155 59.6952 13.0592C59.0131 12.6984 58.2086 12.5634 57.453 12.4542C56.7783 12.3566 55.7702 12.4478 55.1538 12.1538C54.5925 11.8859 54.8697 11.607 55.3953 11.8364C55.4338 11.6045 55.4649 11.4548 55.6136 11.2756C55.6881 11.1855 56.0406 11.0592 56.0491 10.9752C56.0591 10.8768 55.7634 10.5966 55.7211 10.4697C55.6302 10.1965 55.6819 9.81806 55.7898 9.56164C56.3198 10.0328 56.4734 10.2414 57.0651 9.79106C57.3151 9.60091 57.3917 9.51707 57.6811 9.42115C57.7596 9.39509 57.9356 9.47553 58.0041 9.4304C58.2656 9.2582 58.0251 9.29879 58.1494 9.09524C58.1181 9.1466 58.3377 8.60562 58.3273 8.71873C58.3539 8.43058 58.4392 8.51914 58.2652 8.16509C57.9245 7.47249 57.0568 7.44416 57.499 6.65375C57.673 6.34275 57.8262 6.37372 57.8752 5.92281C57.9015 5.68036 57.8688 5.40241 57.8677 5.15581C57.8656 4.65146 57.9605 4.29836 57.4879 4.04156C57.0338 3.79457 56.6147 4.06554 56.4304 3.45299C56.2372 2.81023 56.4317 1.98621 55.7355 1.54606C55.2266 1.22449 54.4919 1.49942 53.9297 1.34213C53.3663 1.18465 52.8482 0.608169 52.2763 1.05077C51.8701 1.36535 51.6545 2.13878 50.889 1.72053C50.5435 1.5319 50.3534 0.89858 50.1354 0.543403C49.7883 -0.0226919 49.51 -0.227188 48.9758 0.324178C48.6466 0.66425 47.9523 1.49205 47.9098 1.96279C47.8632 2.48244 48.3166 2.69958 47.7474 3.00699C47.1812 3.31288 46.8634 3.08856 46.4038 3.70941C45.948 4.32536 46.3008 4.66562 45.7727 5.25494C45.1125 5.99154 44.7612 6.30952 44.7705 7.30198C44.7769 7.98269 44.1754 8.57069 44.5263 9.21647C44.9195 9.94023 46.067 10.2412 46.7629 10.5358C46.5306 10.965 46.2119 11.2401 46.4831 11.6819C46.7287 12.0821 47.423 12.1651 47.8534 12.0924C48.1428 12.0437 48.1532 12.0875 48.3811 11.884C48.5304 11.7507 48.3257 11.5843 48.633 11.5105C48.9602 11.4316 49.4826 12.0728 49.6951 12.2331C49.2204 12.8493 47.9164 12.9644 47.2266 13.2767C46.8063 13.4673 46.4199 13.749 45.9918 13.9193C45.6035 14.0738 45.1308 14.0379 44.7788 14.2769C44.1707 14.6897 43.9177 15.7124 43.545 16.3136C43.1231 16.9941 42.7141 17.3102 41.9047 17.4515C40.8949 17.6276 40.0817 17.6984 39.14 18.1382C37.9901 18.6752 36.8565 19.2423 35.7271 19.8212C33.9053 20.7549 32.213 21.7134 30.5214 22.8428C28.7516 24.0244 27.0301 25.2578 25.3226 26.4925C23.6336 27.7137 22.2155 29.2159 20.7484 30.6927C19.5624 31.8865 18.5217 33.175 17.3402 34.3684C15.9455 35.7776 14.9197 37.5561 13.6265 39.051C12.919 39.8688 12.242 40.673 11.798 41.6364C11.4382 42.4174 10.8126 43.1836 10.3949 44.0029C9.8611 45.0505 9.35602 46.0813 8.75679 47.0942C8.51095 47.5098 8.21869 47.8665 7.95926 48.2632C7.62682 48.7713 7.64644 49.2621 7.55701 49.8478C7.46361 49.7049 7.37041 49.5619 7.27701 49.4192C7.10777 49.7889 6.90306 50.1526 6.75646 50.5312C6.66288 50.7727 6.67759 51.1156 6.58363 51.3269C6.46571 51.5922 6.32213 51.5569 6.17515 51.7778C6.01799 52.014 5.96742 52.3314 5.80176 52.5848C5.08574 53.68 4.81028 55.0697 4.44236 56.3194C3.94879 57.9959 4.02671 59.9229 4.0535 61.6516C4.08199 63.4775 4.1818 65.3034 4.45633 67.1101C4.705 68.7463 5.23668 70.3156 6.06912 71.7503C6.79438 73.0003 7.79455 73.7288 9.07565 74.3691C9.66394 74.6631 10.21 74.5722 10.8275 74.6192C11.5039 74.6706 11.9652 74.8543 12.6808 74.6927C13.0242 74.6151 13.1867 74.3651 13.4595 74.2818C13.6284 74.2303 13.7193 74.3145 13.8814 74.2949C14.1133 74.2667 14.5955 74.153 14.847 74.1804C15.6295 74.2658 15.4981 75.4488 15.5751 76.0526C15.6936 76.9831 15.7804 77.9235 15.9402 78.848C16.2762 80.7925 17.0017 82.609 17.4304 84.5199C15.4432 84.7623 13.7387 85.1332 11.8763 85.8852C10.0079 86.6396 8.11888 86.8956 6.15251 87.2706C4.31293 87.6215 2.54354 88.2771 1.07112 89.4648C0.38095 90.0212 -0.336014 90.6725 0.170766 91.5889C0.494909 92.175 1.07905 92.324 1.58337 92.6646C1.68526 92.5356 1.39055 92.2624 1.33659 92.1867C1.76054 92.2737 1.74752 92.4716 2.05714 92.6438C2.3277 92.7943 2.5492 92.789 2.84542 92.8953C3.56861 93.1552 3.92388 93.8034 4.63877 93.9854C4.86367 94.0426 5.15782 94.1795 5.38781 94.2184C5.66403 94.2651 5.87082 94.1442 6.15081 94.1954C6.30194 94.2949 6.46533 94.3661 6.64099 94.4088C6.75608 94.3553 6.86985 94.2989 6.98193 94.2394C7.38418 94.2811 7.63267 94.5341 7.95945 94.742C7.98134 94.4801 7.94983 94.208 8.19775 94.0371C8.29454 94.2919 8.13813 94.4531 8.40227 94.6284C8.73698 94.8506 9.17659 94.5732 9.47621 94.4327C9.56092 95.2792 11.5209 95.2294 12.1422 95.2173C13.0025 95.2007 13.862 94.8593 14.7299 95.0498C15.1727 95.1469 15.6453 95.2483 16.0861 95.3744C16.6168 95.526 17.2585 95.6616 17.7809 95.8529C17.9886 95.929 18.2432 96.1728 18.4643 96.1563C18.6403 96.1431 18.6875 95.8835 18.8924 95.8908C19.1243 95.8993 19.2022 96.1576 19.403 96.2354C19.7033 96.3516 19.9795 96.1306 20.265 96.2422C20.3676 96.2823 20.5067 96.4543 20.638 96.5104C20.8374 96.5953 21.232 96.5965 21.4538 96.6374C21.7684 96.6958 22.0501 96.6565 22.3195 96.6758C22.5368 96.6915 22.5321 96.8376 22.6361 96.847C22.7553 96.8578 22.9631 96.4477 23.1232 96.3876C23.3566 96.3 23.7802 96.5087 24.0181 96.5453C22.294 98.8824 20.2152 100.948 17.9619 102.756C15.5312 104.708 13.0422 106.656 10.4356 108.367C8.06907 109.921 5.77818 111.265 3.94332 113.458C2.39618 115.308 -0.0665869 117.287 0.313027 119.968C0.692452 122.646 3.60087 123.736 5.93138 124.247C8.86245 124.891 11.8797 124.632 14.8187 124.993C16.0721 125.148 17.4647 125.065 18.7264 124.934C20.2165 124.779 21.4937 123.806 22.7748 123.103C25.079 121.838 27.0492 120.146 29.3189 118.841C32.1608 117.208 34.9728 115.477 38.0884 114.384C39.5378 113.875 41.03 113.294 42.1992 112.247C42.3732 112.091 42.5028 111.856 42.6994 111.728C43.0335 111.51 43.1231 111.731 43.3171 111.665C43.4663 111.614 43.6109 111.453 43.7399 111.404C44.0669 111.282 44.2127 111.332 44.5788 111.332C44.2646 111.151 43.9771 110.684 44.3031 110.304C44.8614 109.652 44.9576 110.694 45.1674 110.935C45.3452 110.707 45.2771 110.503 45.2316 110.244C45.3818 110.343 45.5321 110.442 45.6825 110.541C45.5789 110.039 45.6774 109.576 45.9436 109.138C46.1891 108.734 46.2497 108.791 46.3174 108.232C47.0798 108.928 47.2289 107.239 47.2976 106.623C47.364 106.025 47.2983 105.597 47.6912 105.074C48.1128 104.513 48.7541 104.159 49.2894 103.723C50.1351 103.035 51.0654 102.166 52.2348 102.826C53.158 103.347 53.6603 104.625 54.5265 105.281C55.0517 105.68 55.6062 105.72 55.9411 106.338C56.2119 106.837 56.2998 107.435 56.5555 107.947C57.1747 109.19 58.0662 110.612 59.0831 111.565C60.0297 112.452 61.245 112.448 62.3527 112.998C63.4493 113.543 64.5887 114.133 65.7496 114.528C67.0173 114.959 68.3844 115.143 69.6187 115.665C70.2536 115.934 70.8214 116.339 71.4619 116.596C72.1526 116.874 72.8804 117.069 73.5804 117.323C76.3537 118.331 79.0678 119.566 81.9813 120.124C83.2735 120.372 84.4699 121.045 85.7716 121.186C86.3299 121.247 86.7853 121.324 87.3317 121.464C88.1889 121.683 88.0074 121.799 88.3232 122.514C88.8426 123.69 90.1113 122.994 91.0892 123.023C92.6544 123.07 94.1959 122.817 95.7587 122.805C98.4918 122.784 101.123 122.476 103.767 121.579C106.422 120.678 109.444 118.507 107.238 115.508Z" fill="#040404"/>
<path fill-rule="evenodd" clip-rule="evenodd" d="M75.645 23.5801C75.6824 23.6175 75.7701 23.6403 75.645 23.5801V23.5801Z" fill="#040404"/>
<path fill-rule="evenodd" clip-rule="evenodd" d="M27.5024 73.6921C28.0961 73.0906 30.6217 73.2121 30.8126 74.2882C31.0254 75.4893 28.7687 77.3036 27.9428 77.8122C26.8799 78.4668 25.5826 78.5894 25.771 76.9459C25.9135 75.7046 26.6572 74.5486 27.5024 73.6921ZM29.5882 72.4538C29.6652 72.7865 29.0976 72.6733 28.9413 72.5944C28.8676 72.4431 29.5112 72.1197 29.5882 72.4538ZM25.2328 74.6564C25.7366 74.7017 26.3137 73.8935 26.6938 73.6182C26.8618 73.8779 25.7541 75.3051 25.6322 75.6307C25.3279 76.4444 25.1585 77.4725 25.5734 78.284C26.7861 80.6557 29.8896 77.2689 30.6658 76.0859C31.2089 75.2585 31.5849 74.2325 30.8178 73.4217C30.5447 73.1329 30.0935 73.0528 29.8397 72.7783C29.5058 72.4173 29.7687 71.9513 29.0972 72.0301C28.6339 72.0844 28.0777 72.5024 27.6272 72.6537C27.0843 72.8359 26.5963 73.0247 26.1225 73.3624C26.0157 73.4385 24.6104 74.6005 25.2328 74.6564Z" fill="#040404"/>
<path fill-rule="evenodd" clip-rule="evenodd" d="M60.8363 75.4525C60.5197 77.082 58.905 78.7535 57.206 78.8184C55.514 78.883 54.9662 77.1103 55.2649 75.6974C55.5197 74.4924 56.5611 72.3988 58.047 72.6295C59.2152 72.8106 61.1076 74.0557 60.8363 75.4525ZM59.7588 72.729C58.6861 71.899 57.2039 71.5149 55.9605 72.1735C55.5529 72.3894 53.9256 73.3419 54.4207 73.9866C55.0884 73.4692 55.6649 72.7512 56.5325 72.579C56.3865 73.2517 55.5532 73.8567 55.2596 74.5117C54.9165 75.2769 54.7286 76.1527 54.7848 76.9935C54.885 78.4902 55.8874 79.653 57.4393 79.4472C58.8601 79.2589 60.1022 78.1699 60.7801 76.9457C61.685 75.3108 61.1751 73.8248 59.7588 72.729Z" fill="#040404"/>
<path fill-rule="evenodd" clip-rule="evenodd" d="M49.7966 79.1565C49.0327 80.2875 47.8681 81.3513 46.5215 81.7006C44.7782 82.1527 45.268 80.7121 45.7889 79.6782C46.2496 78.7642 47.0398 77.1917 48.2431 77.2001C48.6515 77.2028 49.4123 77.4003 49.7701 77.6187C50.4756 78.0493 50.1987 78.5614 49.7966 79.1565ZM48.1696 76.671C48.4437 76.3657 49.6574 75.0566 49.8201 76.077C50.1687 75.6729 49.8937 75.3376 49.4475 75.2949C48.9092 75.2435 48.3207 75.8428 47.9323 76.1407C47.1327 76.7533 46.5174 77.3808 45.9875 78.2398C45.4035 79.1868 43.9139 81.3272 45.2174 82.2669C46.6263 83.2826 48.6771 81.4067 49.5593 80.4393C50.1235 79.8205 50.8708 78.9118 50.6562 78.0043C50.3928 76.8898 49.0964 76.7728 48.1696 76.671Z" fill="#040404"/>
<path fill-rule="evenodd" clip-rule="evenodd" d="M42.1579 58.4445C41.3695 59.3441 39.768 60.6548 38.4483 60.5003C37.2447 60.3595 37.7146 59.0086 38.1406 58.3548C38.7804 57.3722 39.6377 56.4497 40.8764 56.396C41.411 56.3728 42.104 56.3837 42.5182 56.7886C43.0838 57.3416 42.5745 57.9695 42.1579 58.4445ZM42.0741 55.9453C41.1506 55.6262 40.7878 55.5046 39.8901 56.0119C39.1693 56.4193 38.5301 56.9951 38.0354 57.6488C37.2952 58.6275 36.5487 60.8288 38.4495 61.1041C40.5344 61.4063 45.4939 57.1277 42.0741 55.9453Z" fill="#040404"/>
<path fill-rule="evenodd" clip-rule="evenodd" d="M44.9158 61.5616C44.3161 62.1743 43.5673 62.6742 42.7126 62.8448C43.0742 62.0381 43.8816 60.2755 44.8387 60.03C45.2796 59.9168 45.7824 60.0651 45.7462 60.5675C45.72 60.9307 45.1524 61.3198 44.9158 61.5616ZM45.688 59.4292C45.1913 59.1803 45.3479 59.0102 44.7701 59.2055C44.3148 59.3592 43.7405 59.6261 43.3614 59.9336C43.1545 60.1014 42.5104 60.6963 42.5892 60.999C42.7321 61.5492 43.2125 60.7062 43.3387 60.5441C43.5551 60.7204 42.4485 62.3041 42.3827 62.5647C42.1372 63.5352 42.8989 63.6379 43.6457 63.3203C44.6524 62.8923 47.634 60.4042 45.688 59.4292Z" fill="#040404"/>
<path fill-rule="evenodd" clip-rule="evenodd" d="M60.4498 85.5447C60.5242 84.9013 60.6297 84.2211 61.2203 83.8598C61.7523 83.534 62.3033 83.5813 62.3821 84.2492C62.4554 84.8695 61.8476 85.9712 61.356 86.3095C60.6715 86.7808 60.5396 86.1933 60.4498 85.5447ZM61.3293 87.0088C62.7346 86.1864 63.6205 82.4149 61.0299 83.472C59.5576 84.0726 60.0991 87.7286 61.3293 87.0088Z" fill="#040404"/>
<path fill-rule="evenodd" clip-rule="evenodd" d="M49.3263 71.3691C49.5479 70.9148 49.8014 70.7642 50.2509 70.5654C49.9513 70.8483 49.6451 71.1096 49.3263 71.3691ZM49.6505 70.2497C49.3323 70.5691 48.6028 71.056 48.7049 71.6047C48.7983 72.1054 49.1806 72.0766 49.5275 71.9205C50.255 71.5936 50.6598 70.1619 51.4207 70.0278C50.5768 69.4929 50.3797 69.5178 49.6505 70.2497Z" fill="#040404"/>
<path fill-rule="evenodd" clip-rule="evenodd" d="M49.7623 41.8172C49.8028 43.3419 49.8385 44.8663 49.8721 46.391C49.884 46.9268 49.756 47.6907 49.9168 48.2039C49.9878 48.43 50.6299 49.41 50.8578 49.4734C51.655 49.6953 51.3701 47.6969 51.3757 47.2048C51.3952 45.5447 51.3707 43.8827 51.364 42.2224C51.3603 41.3668 51.6018 34.1929 50.4918 34.2279C50.3005 34.2341 49.8294 35.0543 49.7584 35.2186C49.5354 35.7351 49.6175 36.5006 49.6227 37.051C49.6377 38.6391 49.7202 40.2294 49.7623 41.8172Z" fill="#040404"/>
<path fill-rule="evenodd" clip-rule="evenodd" d="M56.4839 46.2616C56.5464 46.6831 56.5136 47.3861 56.9881 47.6046C57.4009 47.7947 57.5592 47.5686 57.7137 47.2154C58.0687 46.4028 57.9406 45.1605 57.934 44.3204C57.921 42.6553 57.7335 40.9973 57.6039 39.3385C57.5469 38.6107 57.6652 37.8796 57.5742 37.1181C57.5343 36.7838 57.4945 35.4394 56.875 35.5019C56.3148 35.5585 56.3652 36.9676 56.3347 37.3307C56.0807 40.3529 56.0366 43.2447 56.4839 46.2616Z" fill="#040404"/>
<path fill-rule="evenodd" clip-rule="evenodd" d="M82.9247 80.9679C82.6873 82.1817 78.8136 86.4086 77.8382 84.0445C77.2596 82.642 78.5139 81.1151 79.492 80.3032C80.0974 79.8006 80.8537 79.3076 81.6788 79.4598C82.3793 79.5891 83.0754 80.1969 82.9247 80.9679ZM80.9244 78.7906C80.6508 78.8554 78.3638 80.4612 78.3429 80.4401C78.1443 80.2407 79.5867 78.0908 79.7351 77.9026C80.958 76.3533 81.7695 77.5265 82.5343 78.7443C82.3716 78.0169 81.9234 76.9609 81.1747 76.6533C80.2294 76.265 79.492 77.2235 79.0373 77.9127C78.3944 78.8868 78.04 79.9444 77.6828 81.0436C77.5125 81.5679 77.3184 82.0431 77.03 82.5157C76.7453 82.9822 76.2472 83.4963 76.3207 84.0864C76.7255 83.8614 76.9405 83.421 77.1954 83.0581C77.4799 83.1733 77.3822 84.0804 77.4399 84.3114C77.5851 84.8916 77.9815 85.3455 78.5947 85.4454C79.7374 85.6313 80.9708 84.574 81.7348 83.856C82.54 83.0995 83.4066 82.0622 83.3996 80.8977C83.3923 79.6811 82.1958 78.4897 80.9244 78.7906Z" fill="#040404"/>
<path fill-rule="evenodd" clip-rule="evenodd" d="M84.0223 59.2865C83.374 60.2788 82.2363 61.4683 81.0326 61.6988C80.1491 61.8679 79.5662 61.2131 79.9211 60.3291C80.2209 59.582 81.2425 59.1101 81.9121 58.7815C82.4432 58.5206 84.9195 57.9134 84.0223 59.2865ZM83.5453 57.6635C82.2173 57.6134 81.1461 58.5736 80.1558 59.3399C80.3794 58.4597 80.8853 57.502 81.5977 56.929C82.5671 56.1492 83.4862 56.6333 84.5068 57.0233C84.2549 56.2287 83.1248 55.943 82.4047 56.0552C81.4943 56.1972 80.8398 56.9743 80.3794 57.7262C79.8304 58.6231 79.6424 59.6801 78.9961 60.5214C78.7002 60.9065 76.8678 62.3473 77.2828 62.9363C77.9671 62.2097 78.6517 61.4833 79.3361 60.7567C79.5136 61.6154 79.7092 62.5932 80.8056 62.5097C81.6812 62.4429 82.6797 61.6986 83.32 61.1297C84.1468 60.395 85.7741 57.7478 83.5453 57.6635Z" fill="#040404"/>
<path fill-rule="evenodd" clip-rule="evenodd" d="M64.9416 66.1361C64.379 66.3948 63.1407 66.7464 62.8261 65.9692C62.3891 64.8898 63.7951 62.9964 64.4644 62.2772C64.8761 61.8346 65.1553 61.6057 65.7293 61.8921C66.1875 62.1208 66.8608 62.7706 67.0365 63.2703C67.414 64.3428 65.8216 65.7314 64.9416 66.1361ZM66.2324 60.9519C66.6905 61.0551 66.7467 61.637 66.1738 61.4135C65.7445 61.2462 65.6447 60.8194 66.2324 60.9519ZM66.8075 61.7713C66.6364 61.2494 66.9845 60.4309 66.142 60.3932C65.6646 60.3719 64.79 60.8573 64.3732 61.0546C63.7955 61.3279 63.2518 61.7453 62.9501 62.3331C62.6707 62.8777 62.8702 63.0212 63.2962 62.5692C63.3482 62.6047 62.3327 65.2236 62.3239 65.4861C62.2843 66.6854 63.1332 67.4752 64.3255 67.2625C65.4213 67.0671 66.4089 66.171 67.0118 65.2666C67.3169 64.8087 67.5675 64.2848 67.5903 63.724C67.6255 62.8639 67.0521 62.5182 66.8075 61.7713Z" fill="#040404"/>
<path fill-rule="evenodd" clip-rule="evenodd" d="M72.0636 61.3314C71.6013 60.441 72.6726 58.9426 73.6317 59.3809C75.6289 60.2935 72.6702 62.4988 72.0636 61.3314ZM73.8577 60.1691C73.6434 60.1777 72.2885 60.7012 72.4879 61.0559C72.7615 61.5426 73.7506 60.3649 73.8577 60.1691Z" fill="#040404"/>
<path fill-rule="evenodd" clip-rule="evenodd" d="M8.34828 58.5233C8.29473 58.1441 7.44468 58.6947 7.44966 58.9389C7.59021 58.6577 8.45983 59.3136 8.34828 58.5233Z" fill="#040404"/>
<path fill-rule="evenodd" clip-rule="evenodd" d="M54.8377 29.8663C55.9199 29.7868 54.5411 24.327 53.7524 24.8098C52.8974 25.3331 53.8446 29.9392 54.8377 29.8663Z" fill="#040404"/>
<path fill-rule="evenodd" clip-rule="evenodd" d="M56.8587 27.3169C57.8726 27.4621 57.7115 25.134 57.1661 24.7173C56.1596 23.9481 55.6278 27.1405 56.8587 27.3169Z" fill="#040404"/>
</g>
</svg>
