<svg width="192" height="128" viewBox="0 0 192 128" fill="none" xmlns="http://www.w3.org/2000/svg">
<g id="Character/running">
<path id="Accent" fill-rule="evenodd" clip-rule="evenodd" d="M43.9429 52.6922C50.7657 54.5116 57.5145 56.6509 64.2801 58.6701C65.0413 58.8973 65.0392 58.9355 65.7199 58.5254C67.5715 57.4102 69.4582 56.351 71.3668 55.336C77.1231 52.2752 83.0404 49.826 89.3786 48.2678C93.8712 47.1633 98.4389 46.2875 103.021 45.6443C102.555 47.0782 101.651 48.5729 100.534 49.5829C99.6673 50.3656 98.4864 50.7934 97.4157 51.2132C94.2336 52.4613 90.9018 53.3342 87.7741 54.7216C84.5841 56.1368 82.5688 59.0787 81.9631 62.492C81.8497 63.1304 81.8566 63.2277 82.3806 63.5498C82.9679 63.9111 83.6818 64.1225 84.3294 64.3431C89.5289 66.114 95.0117 67.2045 100.388 68.2794C103.242 68.85 106.107 69.3803 108.986 69.8077C110.773 70.0731 112.661 70.429 114.476 70.323C122.253 69.8693 126.863 60.612 129.14 54.3506C136.167 58.1573 144.229 60.5903 152.1 61.7642C161.645 63.1876 173.668 63.2658 181.212 56.2326C184.805 52.8827 187.012 48.347 188.633 43.7787C183.345 43.3253 178.081 42.5322 172.837 41.73C171.921 41.5899 171.006 41.4473 170.091 41.3022C169.723 41.2437 169.158 41.037 168.781 41.092C168.21 41.1749 167.472 41.7947 166.966 42.0694C163.085 44.1752 159.074 46.1064 154.911 47.5883C152.681 48.3822 150.365 49.0845 148 49.3196C145.463 49.5721 142.865 49.0532 140.415 48.4338C134.269 46.88 127.84 44.2509 122.714 40.462C121.467 42.24 119.216 43.4443 117.07 42.5863C114.719 41.6467 113.413 39.1824 112.153 37.1557C111.695 36.4177 110.83 36.4126 109.977 36.1949C107.593 35.5869 105.181 35.0913 102.757 34.68C94.7953 33.3295 86.6094 32.8714 78.5743 33.803C70.7337 34.7121 63.0146 37.2413 56.1012 41.0428C53.0938 42.6966 50.1656 44.6128 47.6667 46.9803C46.0883 48.4755 44.2441 50.4323 43.9429 52.6922Z" fill="#F3961C"/>
<path id="Ink" fill-rule="evenodd" clip-rule="evenodd" d="M74.4772 4.71313C72.3086 3.30375 70.0887 2.09337 67.6279 1.26959C62.7771 -0.35454 57.8808 -0.334018 52.9504 0.840913C50.2842 1.47626 47.4895 2.35228 44.9808 3.46316C42.9331 4.37014 41.3316 5.74024 39.6863 7.14775C39.248 7.52271 38.8066 7.90032 38.3529 8.27254C36.548 9.75343 33.5109 11.6663 31.0263 11.1578C30.9436 11.1409 30.8403 11.0955 30.7417 11.0522C30.6439 11.0093 30.5508 10.9684 30.487 10.9593C30.2894 10.9308 30.2701 10.9379 30.2387 10.9494C30.2124 10.9592 30.1775 10.9721 30.0208 10.9696C30.0005 10.9693 29.9503 11.008 29.8946 11.0509C29.822 11.1069 29.74 11.1701 29.7032 11.163C29.5585 11.1353 29.5731 11.0959 29.5949 11.0373C29.613 10.9888 29.636 10.9271 29.5776 10.8479C29.573 10.8418 29.5815 10.8153 29.593 10.7797C29.6169 10.7054 29.6536 10.5915 29.6112 10.5395C29.5361 10.4475 29.2737 10.4228 29.0873 10.4052C29.0368 10.4004 28.9919 10.3962 28.9578 10.3913C28.8776 10.3797 28.758 10.3792 28.6223 10.3787C28.2478 10.3773 27.7503 10.3753 27.6176 10.138C28.725 9.6487 27.7009 9.68725 27.0322 9.71243C26.8841 9.718 26.7534 9.72292 26.6672 9.7213C26.6916 9.69379 26.7152 9.66808 26.7376 9.64356C26.8974 9.46898 27.0022 9.35453 26.9846 9.07352C26.9049 9.08297 26.83 9.0985 26.7571 9.1136C26.6079 9.14452 26.4673 9.17365 26.3123 9.14524C26.1022 9.10675 26.0315 9.01232 25.983 8.94755C25.9103 8.85047 25.8875 8.82001 25.5198 9.14441C25.6535 8.91833 25.3528 8.75844 25.145 8.64795C25.0905 8.61894 25.0423 8.59334 25.0101 8.57083L24.7062 9.20411C24.1604 8.53829 23.6223 7.91496 22.7716 7.6602L22.6844 7.63394C21.9369 7.40841 20.4119 6.94827 19.8968 7.62911C19.9358 7.01001 18.1879 7.08176 17.4077 7.11378C17.284 7.11886 17.1846 7.12293 17.1206 7.12311C16.1057 7.12559 13.5966 7.31526 13.5966 8.6778C13.2206 8.32374 13.0533 8.18092 12.5548 8.22424C12.3683 8.24031 12.1565 8.31319 11.9581 8.38147C11.8723 8.41096 11.7891 8.4396 11.7115 8.46242C11.6439 8.48238 11.5734 8.49711 11.5025 8.51191C11.3459 8.5446 11.1875 8.57765 11.0558 8.66826C10.9645 8.7311 10.934 8.80434 10.9046 8.87491C10.876 8.94378 10.8484 9.0101 10.7662 9.0617C10.4644 9.25131 10.1087 9.41164 9.74594 9.57512C9.38059 9.73979 9.00815 9.90765 8.67653 10.1118C8.03981 10.5037 7.46353 10.9797 6.88795 11.4551C6.81255 11.5173 6.73716 11.5796 6.66166 11.6417C6.30828 11.932 6.08564 12.2786 5.86861 12.6165C5.72599 12.8386 5.5858 13.0569 5.41251 13.2529C5.37517 13.2952 5.30915 13.3248 5.23246 13.3591C5.14099 13.4001 5.03433 13.4479 4.943 13.5322C4.67074 13.7831 4.43398 14.1372 4.21223 14.4688C4.12939 14.5926 4.04865 14.7134 3.96893 14.8244C2.90967 16.301 1.95032 17.8619 1.16676 19.503C-0.445351 22.8783 -0.161776 26.4666 0.668843 30.0351C0.986415 31.3995 1.65244 33.3209 2.75627 34.2788C2.96569 34.4604 3.19886 34.5092 3.42299 34.5561C3.62639 34.5986 3.82234 34.6396 3.98634 34.7769C3.98816 34.7785 3.98102 34.813 3.97134 34.8597C3.95232 34.9515 3.92353 35.0905 3.93369 35.1202C3.95491 35.182 4.01013 35.2098 4.0697 35.2397C4.13353 35.2717 4.20234 35.3063 4.23966 35.388C4.26794 35.4498 4.26722 35.5487 4.26647 35.6516C4.26572 35.7539 4.26494 35.8603 4.29252 35.9384C4.42827 36.3218 4.79145 36.6281 5.13769 36.9201C5.31857 37.0727 5.49483 37.2214 5.63162 37.3751C5.85725 37.6284 5.98875 37.688 6.20112 37.7843C6.2701 37.8156 6.34761 37.8508 6.43964 37.8977L6.58019 37.9136C6.7993 37.8925 6.88408 37.9808 6.83454 38.1788C6.8924 38.232 6.93373 38.2828 6.97387 38.3321C7.05809 38.4356 7.13706 38.5327 7.35256 38.6317C7.50037 38.6996 7.67952 38.7928 7.87897 38.8965C8.83246 39.3924 10.2501 40.1296 10.9279 39.5042C10.4391 40.9283 17.2512 41.5357 17.9313 41.5661C18.0074 41.5695 18.0855 41.5736 18.165 41.5777L18.1662 41.5777C18.583 41.5994 19.0372 41.6229 19.4327 41.5634C19.5225 41.55 19.6454 41.5043 19.7647 41.4599C19.8955 41.4113 20.0221 41.3642 20.0965 41.3628C20.1767 41.3614 20.253 41.411 20.3222 41.4561C20.3805 41.494 20.4339 41.5287 20.4806 41.5272C20.5915 41.5237 20.7053 41.4949 20.8193 41.4661C20.9638 41.4295 21.1087 41.3929 21.249 41.4073C21.4037 41.4233 21.492 41.4542 21.5634 41.4791C21.6944 41.5249 21.768 41.5507 22.0892 41.4268C22.2024 41.3831 22.2856 41.3393 22.3566 41.3019C22.5251 41.2132 22.6253 41.1604 22.8964 41.2301C22.98 41.2517 23.0394 41.3093 23.1002 41.3683C23.1773 41.4432 23.2568 41.5203 23.3914 41.5298C23.4897 41.5367 23.4874 41.4902 23.4855 41.4514C23.4842 41.4257 23.4831 41.4034 23.5116 41.4024C23.5543 41.4007 23.6024 41.3995 23.6547 41.3982C24.1706 41.385 25.0933 41.3615 25.2982 40.8456C25.7366 41.3535 26.3212 41.0157 26.8205 40.7271C26.9596 40.6468 27.0921 40.5702 27.213 40.5168C27.731 40.288 28.2956 40.1622 28.8576 40.037C29.186 39.9639 29.5135 39.8909 29.8303 39.7977C30.3058 39.6577 30.7825 39.5203 31.2595 39.3829C32.693 38.9697 34.1282 38.5561 35.5372 38.0704C39.398 36.7393 43.1233 34.7804 46.5635 32.5904C48.1198 31.5995 49.6752 30.6105 51.2375 29.6296C51.3483 29.5601 51.4611 29.4884 51.5756 29.4156C52.7986 28.6386 54.2275 27.7307 55.6968 27.8202C56.7319 27.8831 57.7541 28.3367 58.762 28.7838C59.357 29.0478 59.947 29.3095 60.5317 29.4874C60.5381 29.4894 60.5475 29.4925 60.5598 29.4966C60.5796 29.5032 60.6067 29.5125 60.64 29.5239C61.1976 29.715 63.5136 30.5086 62.9226 29.6012L62.9631 29.6056C63.114 29.6324 63.217 29.7708 63.3016 29.8845C63.3275 29.9194 63.3517 29.9519 63.375 29.9781L63.3783 29.9815L63.3792 29.983C63.3833 29.9886 63.3897 29.9954 63.3987 30.0034L63.4032 30.007L63.3947 29.999L63.3783 29.9815L63.3747 29.9753C63.3349 29.8786 64.2518 30.242 63.8504 30.1244C63.9866 30.1643 64.1152 30.2133 64.2445 30.2626C64.4183 30.3288 64.5935 30.3956 64.7905 30.4414C65.1655 30.5289 65.5044 30.611 65.8711 30.7301C66.1479 30.8201 66.3252 30.8291 66.5155 30.8386C66.607 30.8432 66.7015 30.848 66.8116 30.862C67.0327 30.8901 67.046 30.8972 67.0896 30.9202C67.1215 30.9369 67.1694 30.9622 67.3261 31.0104C67.3693 31.0237 67.4115 31.0368 67.4529 31.0498C67.7517 31.1429 68.0142 31.2248 68.36 31.2683C68.7168 31.3131 69.0885 31.3163 69.4614 31.3195C69.9746 31.324 70.49 31.3284 70.9717 31.4414C71.1551 31.4844 71.3276 31.5347 71.4976 31.5844C71.8265 31.6804 72.1457 31.7735 72.5142 31.805C72.5709 31.8098 72.6351 31.817 72.7043 31.8248C73.091 31.8683 73.6352 31.9295 73.9084 31.6947C74.0815 31.5458 74.0828 31.3935 74.0844 31.2228C74.0853 31.1229 74.0863 31.0167 74.1217 30.9012C74.2212 30.5763 74.7231 31.4109 74.6748 31.3837C74.9822 31.5554 75.125 31.5267 75.4479 31.4616C75.4993 31.4513 75.5551 31.44 75.6169 31.4285C76.3967 31.2829 77.1894 31.2672 77.9809 31.2514C78.2927 31.2453 78.6042 31.2391 78.9147 31.2249C81.0731 31.1263 83.2146 30.6881 85.2975 30.1329C88.6687 29.2345 91.964 28.0116 95.2437 26.7944C96.1102 26.4729 96.9757 26.1517 97.8411 25.837C97.9653 25.7919 98.0894 25.7465 98.2133 25.7012C100.046 25.031 101.858 24.3682 103.854 24.4948C105.733 24.6138 107.139 25.4913 108.452 26.7862C108.647 26.9785 108.839 27.1732 109.031 27.3676C110.064 28.4158 111.085 29.4513 112.493 30.0133C114.336 30.749 116.352 30.5774 118.272 30.3127C118.134 30.6853 118.01 31.0665 117.885 31.4484C117.639 32.2054 117.392 32.9653 117.026 33.6673C116.75 34.1958 116.393 34.6827 116.037 35.169C115.815 35.4718 115.593 35.7743 115.391 36.0866C115.352 36.1476 115.306 36.2253 115.256 36.312C115.022 36.7123 114.677 37.3038 114.289 37.3266C113.904 37.3494 113.375 36.9296 112.927 36.574C112.724 36.4128 112.538 36.2648 112.389 36.1772C110.148 34.8579 107.524 34.3026 105.001 33.8146C102.4 33.3113 99.777 32.9088 97.1394 32.6513C91.7577 32.126 86.0744 32.0199 80.6902 32.5462C79.7764 32.6355 78.8535 32.6752 77.93 32.7149C76.1837 32.79 74.4353 32.8652 72.7434 33.2759C70.2234 33.8874 67.6803 34.6652 65.2268 35.5047C62.4429 36.4572 59.661 37.5372 57.04 38.8794C55.7942 39.5173 54.5782 40.2173 53.4137 40.9942C53.1871 41.1453 52.966 41.3057 52.7448 41.4661C52.4308 41.6939 52.1168 41.9216 51.7871 42.1229C51.7031 42.1741 51.6127 42.2181 51.5218 42.2622C51.3644 42.3387 51.2059 42.4158 51.0781 42.5321C50.985 42.617 50.9129 42.7288 50.8412 42.8397C50.7581 42.9684 50.6756 43.0961 50.562 43.1797C50.5026 43.2235 50.3716 43.2266 50.2403 43.2297C50.1311 43.2323 50.0216 43.2349 49.9534 43.2609C49.7966 43.3208 49.6599 43.4382 49.5288 43.5509C49.4792 43.5935 49.4304 43.6354 49.3816 43.6732C49.3673 43.6844 49.3529 43.6955 49.3384 43.7066C49.3167 43.7234 49.2948 43.7402 49.2728 43.757C48.8232 44.1018 48.3441 44.4692 48.3056 45.0808L48.2862 45.047C48.1037 44.7394 48.0043 44.8783 47.8846 45.0457C47.8295 45.1228 47.77 45.206 47.6961 45.2543L47.6794 45.2643L47.6829 45.263C47.696 45.2641 47.0608 45.748 47.1483 45.6675L47.1548 45.6615L47.0184 45.781C45.6608 46.9745 44.3689 48.2615 43.4201 49.8087C42.9763 50.533 42.5959 51.2904 42.2336 52.058C42.1951 52.1396 42.1478 52.2293 42.0986 52.3227C41.9858 52.5368 41.8626 52.7704 41.8111 52.9717C41.7365 53.2643 41.7735 53.3516 41.8434 53.5167C41.8698 53.5792 41.901 53.6528 41.9326 53.7528C42.1306 54.3782 41.9539 54.633 41.495 55.1757C41.3743 55.3183 41.2543 55.4564 41.1358 55.5927C40.7076 56.0853 40.2988 56.5556 39.9478 57.1402C38.8667 58.9397 38.0649 60.8607 37.4758 62.8731C36.4628 66.3336 35.6716 70.7785 38.1443 73.8543C39.7411 75.8404 41.5182 74.6754 42.6992 72.9576C43.4848 71.8148 44.03 70.5614 44.5753 69.3076C44.9653 68.4108 45.3555 67.5138 45.8338 66.6568C46.1543 66.7404 46.136 69.167 46.1278 70.2448C46.1261 70.479 46.1248 70.6495 46.1276 70.7184C46.1972 72.4705 46.4053 74.2132 47.288 75.7762C47.7988 76.681 48.7179 77.6615 49.8582 77.5599C50.9096 77.4662 51.6239 76.4515 52.0443 75.5825C52.593 74.4478 52.8287 73.1211 53.0341 71.8855C53.0606 71.7265 53.0764 71.5127 53.0939 71.2747C53.1473 70.5512 53.2172 69.6037 53.6545 69.2883C54.5144 72.2273 56.6731 78.1107 60.9075 75.8808C62.5691 75.0056 62.7681 73.1209 62.4881 71.4508C62.2899 70.2692 62.013 69.087 61.7344 67.9225C61.6994 67.7764 61.6594 67.6258 61.6186 67.4722C61.422 66.7325 61.2064 65.9213 61.4467 65.1999C61.7803 65.4434 62.11 65.7143 62.4435 65.9883C63.4101 66.7824 64.4083 67.6025 65.6265 67.857C66.9662 68.1368 67.8356 67.4546 67.7612 66.0913C67.6986 64.9514 67.2005 63.769 66.692 62.7578C66.577 62.5292 66.3611 62.2391 66.1248 61.9217C65.5937 61.2081 64.96 60.3566 65.1408 59.7575C65.1651 59.6768 65.4721 59.4794 65.6791 59.3464C65.7576 59.2959 65.8218 59.2547 65.8506 59.2326C66.2898 58.8966 66.7578 58.5985 67.2288 58.3071L67.6327 58.0583C69.0941 57.158 70.6432 56.4124 72.2097 55.7153C75.2871 54.3453 78.389 53.0132 81.5048 51.7332C87.7684 49.1596 94.314 47.038 101.155 47.038C100.342 48.5809 98.997 49.3027 97.3905 49.807C96.7188 50.0179 96.0453 50.2221 95.3719 50.4262C94.0623 50.8231 92.753 51.2199 91.458 51.6662C87.8571 52.9073 84.6248 54.9624 82.663 58.3263C82.3532 58.8573 82.1096 59.3829 81.8718 59.8958C81.3866 60.9423 80.9261 61.9358 79.979 62.8138C78.5196 64.1663 77.4519 66.1398 76.9618 68.0624C76.4299 70.149 76.6559 72.3527 77.0155 74.4476C77.3455 76.3707 77.8536 78.0723 79.0196 79.6627C78.6793 79.8855 77.9668 79.7748 77.2559 79.6644C76.3972 79.531 75.5409 79.398 75.346 79.8536C74.8816 79.1703 72.3658 79.5598 71.6736 79.667L71.6717 79.6672C70.9026 79.7862 70.1163 79.8303 69.3176 79.875C68.7565 79.9065 68.1893 79.9383 67.6177 79.9966C67.2697 80.0321 66.9954 80.0833 66.6725 80.2155C66.5413 80.2949 66.4465 80.4056 66.3883 80.5476L65.9903 80.4303L65.8026 80.4421C64.812 80.5127 63.9779 80.7059 62.9829 80.9562C62.453 81.0895 61.9206 81.2117 61.3887 81.3338C60.4941 81.5392 59.601 81.7442 58.7237 82.0011C58.6134 82.0577 58.5303 82.1408 58.4745 82.2507C58.3659 82.1653 58.245 82.1102 58.1117 82.0849C58.0469 82.0806 57.9836 82.0758 57.9213 82.0711C57.6328 82.0492 57.3655 82.0289 57.0575 82.0664C56.5761 82.1254 56.0951 82.2067 55.6143 82.288C55.2787 82.3447 54.9433 82.4015 54.6079 82.4505C52.4054 82.7725 50.1693 82.7942 47.9459 82.806C47.0449 82.8108 46.1413 82.7868 45.238 82.7628C44.2137 82.7356 43.1899 82.7084 42.1708 82.7231C42.1067 82.8999 41.984 82.9692 41.8026 82.9304C41.6892 82.7849 41.5458 82.7408 41.3733 82.7984C41.2914 82.7802 41.2091 82.7601 41.1267 82.7399L41.1255 82.7396C41.0483 82.7207 40.9709 82.7018 40.8934 82.6844C40.8255 82.6691 40.7493 82.6475 40.6686 82.6246C40.2254 82.4991 39.649 82.336 39.5863 82.9742C39.5074 81.9201 38.8569 82.4641 38.3718 82.8697C38.1416 83.0621 37.9487 83.2234 37.8717 83.1682C37.7982 83.1153 37.8159 83.0036 37.8349 82.883C37.8551 82.7551 37.8769 82.6171 37.7932 82.5287C37.6509 82.3783 37.3002 82.3889 37.0427 82.3967C36.9698 82.3989 36.9044 82.4009 36.8533 82.3989C36.764 82.3955 36.6746 82.392 36.5852 82.3884C36.4899 82.3845 36.3947 82.3806 36.2994 82.3767L36.2978 82.3766C35.3865 82.3391 34.4743 82.3015 33.5626 82.3293C32.5745 82.3595 32.3528 82.6333 31.8111 83.3026L31.7403 83.39C31.1994 84.056 30.55 83.9061 29.7795 83.7047C28.963 83.4911 28.1419 83.2677 27.3291 83.0401C26.3379 82.7627 25.6108 82.2625 24.7897 81.6976L24.6169 81.5789C22.8109 80.3403 20.8742 79.2025 18.8525 78.354C17.0037 77.5781 14.8947 76.9403 13.0351 77.9969C12.3881 78.3647 11.8173 78.853 11.2514 79.3371C11.1143 79.4543 10.9775 79.5713 10.84 79.6863C10.7762 79.7397 10.7113 79.7932 10.646 79.8469C10.0193 80.3631 9.35813 80.9077 9.22295 81.7538C9.16127 82.1403 9.27382 82.5076 9.38556 82.8724C9.50139 83.2504 9.61637 83.6257 9.53555 84.0166C9.40382 84.6548 8.83949 85.1621 8.31184 85.6364C8.07393 85.8502 7.84348 86.0574 7.6635 86.2668C6.35984 87.7835 5.36256 89.7821 4.67414 91.6471C3.25833 95.4818 3.1721 100.228 6.12684 103.396C8.13322 105.546 14.4191 107.605 16.2319 104.188C16.9346 102.864 16.6103 101.213 16.3145 99.7061C16.2281 99.2662 16.1441 98.8386 16.0889 98.4352C15.94 97.3513 15.8795 96.2703 16.0321 95.1832C16.0643 94.9532 16.0771 94.6604 16.0906 94.3504C16.116 93.767 16.1441 93.1224 16.3096 92.7194C16.6734 91.8331 18.0895 92.3253 19.2833 92.7402C19.864 92.9421 20.3922 93.1256 20.721 93.1234C21.5813 93.1174 22.0288 92.6997 22.1555 91.8875C22.1769 91.7508 22.184 91.5955 22.1912 91.4373C22.2173 90.8653 22.2451 90.2562 22.9563 90.3546C23.2113 90.3898 23.4802 90.5662 23.735 90.7332C23.8758 90.8256 24.0124 90.9152 24.1399 90.9765C24.633 91.2134 25.1602 91.3937 25.6795 91.5648C25.8392 91.6173 26.0497 91.6611 26.2788 91.7089C27.0345 91.8662 27.9934 92.0659 28.0057 92.761C28.0094 92.9768 27.8513 93.2364 27.7121 93.4648C27.6513 93.5646 27.5941 93.6584 27.5557 93.7401C27.3574 94.1612 27.1853 94.5958 27.0137 95.0294C26.9623 95.1592 26.911 95.2889 26.8589 95.4181C26.3451 96.6948 25.8328 97.9728 25.3333 99.2549C24.8611 100.467 24.4092 101.69 24.0445 102.939C23.9826 103.152 23.8963 103.395 23.8046 103.654C23.5656 104.327 23.2905 105.103 23.3182 105.692C23.3638 106.655 26.5111 107.54 26.8592 106.514C27.1682 107.155 29.7592 108.036 30.0266 107.067C30.6109 107.608 31.3707 107.557 32.0591 107.426C32.4824 107.345 32.6125 107.326 33.045 107.358C33.1524 107.366 33.2383 107.387 33.3123 107.405C33.5177 107.456 33.6318 107.484 33.8606 107.142C34.1914 107.731 34.7291 107.509 35.2248 107.304C35.3659 107.246 35.5036 107.189 35.6322 107.153C36.1142 107.016 36.6469 106.997 37.1757 106.979C37.5145 106.967 37.8516 106.955 38.1727 106.912C38.58 106.858 38.9831 106.782 39.3863 106.706C39.9065 106.608 40.4268 106.51 40.956 106.458C41.4468 106.411 41.938 106.394 42.4292 106.378C42.959 106.36 43.4888 106.342 44.0184 106.285C44.8465 106.196 45.6689 106.162 46.4897 106.127C47.7265 106.075 48.9596 106.023 50.2031 105.786C52.2199 105.401 54.2547 104.993 56.2279 104.425C60.2866 103.255 64.3183 101.867 68.3101 100.487C69.5159 100.07 70.7529 99.6973 71.9944 99.3233C74.7471 98.4941 77.5215 97.6582 80.0256 96.3182C83.0842 94.6814 85.7473 92.4455 88.3969 90.221C89.006 89.7096 89.6144 89.1988 90.2267 88.696C90.7057 89.6824 91.6656 90.3463 92.5761 90.976C92.8248 91.1481 93.0699 91.3175 93.3004 91.4903C93.5195 91.6547 93.7355 91.8289 93.952 92.0037C94.3217 92.302 94.6931 92.6017 95.0848 92.8558C95.2157 92.9408 95.3811 92.9941 95.5428 93.0462C95.7044 93.0983 95.8623 93.1492 95.9786 93.2293C96.2523 93.4177 96.2317 93.437 96.2054 93.4617C96.1836 93.4822 96.1578 93.5065 96.292 93.6337C96.7199 94.04 97.4539 94.5719 98.0105 94.7716C98.1733 94.83 98.3276 94.8573 98.4736 94.8831C98.701 94.9232 98.9085 94.9599 99.0973 95.1053C99.1639 95.1565 99.224 95.2613 99.2886 95.3738C99.3599 95.4982 99.4366 95.6319 99.5334 95.7133C99.6399 95.8027 99.77 95.8724 99.8991 95.9414C99.9922 95.9913 100.085 96.0408 100.168 96.0974C100.211 96.1271 100.268 96.1736 100.334 96.2273C100.647 96.4825 101.158 96.8992 101.368 96.4382C101.79 97.0234 102.253 97.3337 102.783 97.6895C102.922 97.7829 103.066 97.8794 103.215 97.9848C103.552 98.2234 103.861 98.4823 104.169 98.7407C104.609 99.1097 105.048 99.4776 105.566 99.7837C106.563 100.373 107.602 100.881 108.642 101.389C109.555 101.835 110.468 102.281 111.352 102.783C111.759 103.014 112.184 103.216 112.608 103.418C113.103 103.653 113.597 103.888 114.063 104.169C114.846 104.64 115.573 105.247 116.282 105.84L116.481 106.006C116.565 106.077 116.649 106.147 116.733 106.216C117.269 106.657 117.801 107.103 118.332 107.548C119.602 108.613 120.87 109.676 122.191 110.68C125.927 113.519 129.909 115.996 133.996 118.293C134.283 118.454 134.583 118.609 134.886 118.765C135.527 119.095 136.178 119.431 136.74 119.846C137.148 120.148 137.409 120.58 137.668 121.008C137.919 121.423 138.168 121.834 138.546 122.117C138.694 122.229 138.819 122.287 138.935 122.341C139.06 122.4 139.175 122.454 139.3 122.565C139.39 122.645 139.407 122.734 139.423 122.82C139.447 122.949 139.47 123.07 139.729 123.143C140.226 123.282 140.803 122.683 141.186 122.286C141.257 122.213 141.32 122.147 141.376 122.093C142.237 121.264 143.155 120.492 144.074 119.719C144.819 119.093 145.564 118.466 146.278 117.809L146.339 117.753C146.405 117.693 146.471 117.633 146.536 117.573C147.257 116.911 147.985 116.244 148.64 115.52C148.815 115.326 148.985 115.112 149.158 114.894C149.592 114.35 150.044 113.782 150.627 113.46C151.36 113.056 152.044 113.377 152.73 113.745C152.803 113.785 152.895 113.828 152.995 113.875C153.281 114.009 153.63 114.174 153.782 114.358C153.992 114.614 153.92 114.701 153.724 114.938C153.68 114.99 153.63 115.05 153.576 115.121C153.525 115.188 153.473 115.254 153.421 115.32C153.023 115.822 152.644 116.3 152.897 117.016C153.107 117.612 153.678 117.882 154.22 118.138C154.353 118.201 154.484 118.262 154.607 118.328C155.243 118.666 155.764 119.13 156.291 119.598C156.494 119.779 156.698 119.961 156.909 120.136C157.64 120.742 158.472 121.154 159.315 121.571C159.415 121.621 159.516 121.671 159.617 121.721C159.778 121.802 159.939 121.882 160.1 121.963C161.851 122.836 163.567 123.691 165.194 124.797C166.669 125.8 168.423 126.705 170.195 127.009C172.196 127.352 173.406 126.375 174.654 124.914C176.041 123.289 177.741 121.166 178.497 119.152C178.701 118.607 178.627 118.136 178.553 117.666C178.495 117.302 178.438 116.938 178.512 116.542C178.656 115.77 179.732 115.249 180.532 114.862C180.71 114.776 180.874 114.696 181.012 114.622C183.085 113.503 184.915 112.312 186.513 110.551C187.146 109.855 187.574 109.164 187.967 108.324C187.985 108.284 188.008 108.23 188.036 108.166C188.226 107.721 188.624 106.793 189.076 106.943C188.99 106.345 189.233 106.185 189.55 105.977C189.69 105.885 189.845 105.784 189.991 105.632C190.432 105.173 190.679 104.43 190.895 103.783C190.942 103.642 190.987 103.506 191.033 103.378C191.3 102.627 191.465 101.845 191.629 101.066L191.67 100.874C191.691 100.774 191.712 100.673 191.734 100.573C191.753 100.489 191.778 100.389 191.806 100.28C191.948 99.7299 192.155 98.9295 191.817 98.5538C191.497 98.1987 191.547 97.6486 191.597 97.1017C191.633 96.7018 191.669 96.3036 191.561 95.9846C191.45 95.6621 191.272 95.3648 191.095 95.0707C191.028 94.958 190.96 94.8458 190.897 94.7328C190.79 94.5408 190.714 94.3279 190.638 94.1169C190.56 93.899 190.482 93.6831 190.373 93.4942C190.143 93.0994 189.673 92.8243 189.213 92.556C188.924 92.3867 188.639 92.2202 188.422 92.0278C187.594 91.2951 186.851 90.7744 185.732 90.5992C181.999 90.0157 179.212 93.2134 177.18 95.8766C174.442 99.4638 171.633 102.874 168.35 105.989C167.693 106.613 167.081 107.258 166.464 107.91C166.329 108.052 166.193 108.195 166.057 108.338C165.284 109.149 164.695 109.055 163.743 108.56C162.128 107.718 160.724 106.987 159.747 105.443C158.494 103.463 156.248 102.051 154.279 100.844C152.874 99.9824 151.527 99.0629 150.176 98.1406C149.499 97.6784 148.821 97.2155 148.134 96.7589C143.726 93.8288 139.043 91.2488 134.374 88.7628C133.699 88.403 133.025 88.0386 132.351 87.6741L132.349 87.6732C130.673 86.7668 128.996 85.86 127.286 85.0222C126.706 84.7381 126.123 84.4655 125.541 84.1936C123.875 83.4152 122.219 82.6415 120.673 81.6141C120.124 81.2493 119.55 80.9568 118.974 80.6632C118.624 80.4849 118.273 80.3062 117.926 80.1106C117.37 79.7967 116.828 79.4553 116.286 79.1136C115.786 78.799 115.287 78.4841 114.775 78.1905C113.732 77.5912 112.677 77.0093 111.598 76.4766C111.409 76.3836 111.215 76.3116 111.03 76.2432C110.425 76.0196 109.927 75.8353 110.102 75.0859C110.191 74.7043 110.322 74.3317 110.453 73.9596C110.543 73.7024 110.634 73.4454 110.71 73.1858C110.741 73.0791 110.766 72.9557 110.792 72.8271C110.856 72.5059 110.927 72.1521 111.125 71.9446C111.524 71.5251 112.254 71.585 112.918 71.6397C113.174 71.6607 113.42 71.6809 113.634 71.6728C116.161 71.5764 118.782 70.4554 120.789 68.9565C122.843 67.4223 124.521 65.4107 125.912 63.2713C126.976 61.6351 127.597 59.8535 128.223 58.0572C128.534 57.1622 128.847 56.2635 129.217 55.3774C130.831 56.5436 132.591 57.4777 134.355 58.3922C136.094 59.2939 137.875 59.6922 139.786 60.0574C141.718 60.4265 143.632 60.8779 145.545 61.3292C147.846 61.8719 150.147 62.4145 152.479 62.8142C155.357 63.3074 158.282 63.271 161.201 63.2347C162.513 63.2184 163.825 63.2021 165.13 63.2339C169.078 63.3299 172.99 62.3389 176.506 60.5636C178.175 59.721 179.851 58.7687 181.313 57.5981C182.89 56.3357 184.01 54.6997 185.077 53.0068C185.219 52.7825 185.361 52.5587 185.504 52.3349C186.356 50.998 187.21 49.6588 187.815 48.1877C188.148 47.3784 188.378 46.5519 188.581 45.7024C188.751 44.9936 188.89 44.9563 189.358 44.8306C189.455 44.8046 189.567 44.7748 189.695 44.7344C190.861 44.3681 190.309 43.6865 189.77 43.021C189.48 42.6628 189.194 42.3092 189.181 42.012C189.166 41.6665 189.297 41.3508 189.427 41.0389C189.526 40.7999 189.624 40.5631 189.655 40.3168C189.766 39.4374 190.028 38.8398 190.402 38.0181C191.123 36.433 191.246 34.3142 190.759 32.6403C190.74 32.5753 190.721 32.5114 190.703 32.4483C190.532 31.8666 190.383 31.3579 190.353 30.7509C190.348 30.6529 190.349 30.5626 190.349 30.476C190.351 30.2323 190.352 30.0187 190.234 29.7513C190.181 29.6305 190.087 29.5146 189.993 29.399C189.877 29.2564 189.761 29.1143 189.723 28.9638C189.692 28.8383 189.741 28.6567 189.788 28.486C189.818 28.3733 189.848 28.2654 189.851 28.1815C189.871 27.7569 189.782 27.2974 189.699 26.8688L189.676 26.7508C189.667 26.7058 189.659 26.6612 189.651 26.6171C189.521 25.9116 189.349 25.2182 189.177 24.5243L189.176 24.523C189.087 24.162 188.997 23.8008 188.913 23.4378C188.846 23.1442 188.82 22.8503 188.795 22.5613C188.748 22.0266 188.702 21.5089 188.395 21.0424C188.158 20.6806 188.11 20.2894 188.062 19.8971C188.013 19.5036 187.965 19.1089 187.725 18.7414C186.827 17.3687 185.236 16.9085 183.932 18.0544C183.335 18.5791 182.911 19.3625 182.66 20.1041C182.595 20.2951 182.543 20.5071 182.489 20.725C182.34 21.3252 182.18 21.9708 181.722 22.3479C181.359 21.7169 181.083 20.8965 180.797 20.0436C180.206 18.2867 179.568 16.3915 178.027 15.728C175.278 14.545 174.333 16.9829 173.514 19.0967C173.471 19.2087 173.428 19.3197 173.385 19.4292C173.111 19.2078 172.949 18.8906 172.786 18.5708C172.64 18.2838 172.492 17.9946 172.262 17.7705C171.903 17.4217 171.5 17.1056 171.097 16.7899C170.796 16.5541 170.496 16.3185 170.214 16.0696C168.996 14.9927 167.75 14.3346 166.136 14.4295C165.939 14.4411 165.765 14.4117 165.594 14.3829C165.285 14.3309 164.988 14.2808 164.593 14.4755C163.907 14.8141 163.424 15.5636 163.206 16.273C162.767 17.7029 163.148 19.3463 163.526 20.7465C163.714 21.4393 163.93 22.1202 164.145 22.8001C164.52 23.9839 164.894 25.1647 165.116 26.3998C165.445 28.2339 165.7 30.0821 165.853 31.9358C166.01 33.8439 166.406 35.9446 166.923 37.7899C166.985 38.0104 167.077 38.2374 167.169 38.4642C167.454 39.1705 167.739 39.875 167.116 40.3752C166.445 40.9134 165.917 41.5918 165.386 42.2737C164.91 42.8854 164.431 43.4999 163.846 44.0186C162.605 45.1181 161.141 45.9962 159.624 46.6583C156.465 48.0378 152.895 48.2967 149.487 48.2843C145.736 48.2708 142.07 47.7791 138.434 46.8703C134.932 45.9949 131.917 44.7748 128.889 42.819C128.061 42.2844 127.184 41.8277 126.271 41.4554C126.035 41.3589 125.727 41.2853 125.406 41.2085C124.842 41.0738 124.238 40.9294 123.911 40.6343C123.032 39.8404 125.329 37.822 125.958 37.3695C126.528 36.9592 127.144 36.9209 127.814 36.8794L127.915 36.873C128.851 36.8135 129.72 36.6183 130.569 36.2128C131.721 35.6632 132.539 34.7757 133.367 33.8773C133.769 33.4413 134.174 33.0027 134.62 32.5989C135.107 33.3302 135.373 33.3984 136.211 33.1287C137.321 32.7722 138.316 32.2077 139.148 31.3858C139.959 30.5846 140.478 29.601 140.602 28.4597C140.717 27.4007 140.413 26.6105 140.081 25.7476C139.969 25.4557 139.853 25.1555 139.75 24.8337C139.569 24.2717 139.69 23.71 139.814 23.1408C139.889 22.7906 139.966 22.4375 139.973 22.0798C139.999 20.7376 139.83 19.4052 139.462 18.1148C138.825 15.8773 137.99 13.5763 136.543 11.7273C135.205 10.0164 133.435 8.71152 131.695 7.42925L131.693 7.42744C131.519 7.29916 131.345 7.1711 131.172 7.04288C131.052 6.95363 130.932 6.86423 130.811 6.77483C128.948 5.39005 127.084 4.0052 124.899 3.1603C120.109 1.30856 115.037 1.08241 110.049 2.10498C107.183 2.69243 104.606 4.0001 102.023 5.3103C99.9962 6.33855 97.9662 7.36837 95.7916 8.05281C90.9402 9.57972 85.7635 9.26029 80.9926 7.67201C80.5631 7.52904 80.1227 7.4118 79.6821 7.29449C79.0302 7.12095 78.3778 6.94725 77.7591 6.68987C76.859 6.31505 76.0246 5.75172 75.2055 5.19869C74.9618 5.03418 74.7195 4.87058 74.4772 4.71313ZM130.629 114.62C130.549 114.578 130.469 114.535 130.389 114.493C130.592 114.259 130.635 114.281 130.858 114.393C130.891 114.409 130.928 114.428 130.97 114.448L130.629 114.62ZM155.233 109.183C155.432 108.989 155.63 108.746 155.832 108.498C156.159 108.094 156.497 107.679 156.867 107.445C157.493 107.05 159.272 108.17 158.71 108.796C158.165 109.403 157.623 110.034 157.159 110.707C157.066 110.841 156.974 111.012 156.876 111.192C156.658 111.595 156.414 112.046 156.086 112.238C155.42 112.63 154.595 112.146 153.857 111.713C153.536 111.524 153.232 111.346 152.964 111.253L153.015 111.208C153.765 110.544 154.515 109.88 155.233 109.183ZM101.352 95.4366C101.593 95.2363 101.074 94.6646 100.837 94.5653C100.793 94.8652 100.982 95.0551 101.182 95.2574C101.24 95.3151 101.298 95.3739 101.352 95.4366ZM23.5487 87.1635C23.8499 86.672 24.3377 85.8916 24.7703 85.5178C25.3334 85.031 26.1554 85.2607 26.8632 85.4585C27.0238 85.5033 27.1784 85.5466 27.3229 85.5794C28.3991 85.8244 29.5001 85.8168 30.5948 85.7067C30.5334 85.8806 30.4715 86.0543 30.4096 86.2279C30.2723 86.6131 30.135 86.9983 30.004 87.3857C29.9268 87.6141 29.8748 87.8803 29.8213 88.1546C29.7122 88.7137 29.5964 89.3066 29.2465 89.6821C28.8199 90.1402 28.2359 89.9337 27.6998 89.7442C27.5741 89.6997 27.451 89.6562 27.3332 89.6224C27.0532 89.5421 26.7561 89.469 26.4525 89.3942C25.4966 89.1589 24.4756 88.9076 23.7156 88.3656C23.1973 87.9962 23.2094 87.7172 23.5487 87.1635ZM41.3111 59.3825C42.0064 58.0639 42.7949 56.7923 43.6788 55.5919C43.7931 55.4368 43.8957 55.2826 43.9932 55.1362C44.4683 54.4227 44.8214 53.8924 45.8027 54.3239C48.4279 55.4781 51.0269 56.1866 53.8301 56.8421C54.7896 57.0665 55.7448 57.3053 56.6995 57.5439C58.3537 57.9574 60.0063 58.3705 61.6767 58.7079L61.7305 58.7186L61.7734 58.7271C62.1635 58.8036 62.6849 58.9058 62.9265 59.2307C63.0919 59.4533 63.1069 59.7825 63.1217 60.107C63.1318 60.3272 63.1418 60.5452 63.1985 60.7263C63.4566 61.5505 64.0191 62.2622 64.5771 62.9684C64.944 63.4328 65.3091 63.8947 65.5844 64.3846C65.6115 64.4329 65.6393 64.481 65.667 64.5292C65.8589 64.8622 66.0518 65.1972 66.0502 65.5967C64.9783 65.5549 64.2737 64.85 63.5681 64.1442C62.9896 63.5656 62.4105 62.9864 61.628 62.7715C60.1867 62.3756 60.0858 64.0814 60.1073 65.1075C60.1394 66.6313 60.4737 68.157 60.7997 69.6451C60.82 69.7376 60.8402 69.83 60.8603 69.9222C60.8721 69.976 60.8838 70.0298 60.8955 70.0835C60.9407 70.2918 61.0046 70.5129 61.0704 70.7407C61.3027 71.5445 61.5591 72.4315 61.1036 73.1307C60.6332 73.8529 59.7241 74.043 58.9208 73.934C55.2723 73.4391 54.6914 68.4453 54.4064 65.5046C54.3937 65.373 54.3841 65.1941 54.373 64.9858C54.3205 64.0033 54.2332 62.3688 53.6143 61.9778C52.6529 61.3699 52.8104 63.5758 52.8832 64.5961C52.8972 64.7925 52.9081 64.9449 52.9073 65.025C52.8809 67.4919 52.3047 70.3416 51.4923 72.673C51.4697 72.7378 51.4459 72.808 51.4206 72.8824C51.1592 73.6529 50.7474 74.8666 49.9898 75.1377C49.0632 75.4689 48.2424 74.4157 47.9325 73.6864C47.2133 71.9941 47.2331 69.9501 47.2517 68.0285C47.2575 67.4272 47.2632 66.8378 47.2461 66.2749C47.2409 66.1034 47.2447 65.9185 47.2487 65.7272C47.263 65.0324 47.2791 64.2533 46.8717 63.7242C46.2385 62.9021 45.6668 63.588 45.2984 64.2275C45.2018 64.3952 45.0214 64.7871 44.7782 65.3154C43.4638 68.1711 40.314 75.0145 38.6286 72.0128C37.7267 70.4066 38.2796 68.0649 38.6801 66.3688L38.6999 66.2849C39.2664 63.8824 40.1607 61.565 41.3111 59.3825ZM106.883 74.178C106.766 74.1218 106.65 74.0657 106.533 74.0102C106.646 73.7875 107.542 74.0516 108.029 74.1951C108.155 74.2323 108.253 74.2614 108.304 74.2718C108.168 74.5898 108.035 74.7105 107.695 74.5589C107.421 74.4377 107.152 74.3078 106.883 74.178ZM88.6939 34.2104C89.1064 34.1988 89.5195 34.1873 89.9333 34.1751C94.8217 34.0315 99.8929 34.5951 104.69 35.5372C104.978 35.5937 105.269 35.6491 105.563 35.7048C107.356 36.0454 109.238 36.4029 110.878 37.1442C111.941 37.6248 112.414 38.6344 112.894 39.6613C113.17 40.2505 113.448 40.8455 113.842 41.3493C115.144 43.0139 116.879 44.0387 119.026 43.9359C120.745 43.8536 122.921 43.2201 123.487 41.3775C123.839 41.6087 124.143 41.8673 124.445 42.1248C124.865 42.4822 125.283 42.8377 125.823 43.1152C126.646 43.5389 127.451 43.9572 128.227 44.4657C128.471 44.6262 128.715 44.7877 128.957 44.949C130.348 45.873 131.724 46.7872 133.288 47.4203C137.292 49.0417 141.61 49.7751 145.87 50.3437C150.064 50.9032 154.419 51.0416 158.37 49.2954C159.742 48.6894 161.028 47.919 162.314 47.1492C162.747 46.8897 163.18 46.6304 163.616 46.3774C163.785 46.2793 163.956 46.1817 164.126 46.0839C165.571 45.2562 167.051 44.4088 168.097 43.0872C168.53 43.5653 168.653 43.2397 168.792 42.8677C168.849 42.717 168.908 42.5587 168.992 42.4432C169.399 41.8831 169.823 42.005 170.371 42.1623C170.432 42.1799 170.495 42.198 170.559 42.2156C172.703 42.8001 174.895 43.1183 177.102 43.353C178.106 43.4598 179.109 43.578 180.113 43.6963C181.269 43.8326 182.425 43.9689 183.583 44.0876C184.124 44.1433 184.667 44.1885 185.209 44.2338C185.741 44.2782 186.273 44.3226 186.804 44.3768C186.911 44.3878 187.011 44.3947 187.104 44.4011C187.615 44.4365 187.9 44.4562 187.854 45.0466C187.803 45.6933 187.381 46.4884 187.039 47.1336C186.968 47.2672 186.901 47.3944 186.841 47.5125C186.365 48.4493 185.799 49.3354 185.189 50.1903C185.112 50.2988 185.034 50.4077 184.957 50.517L184.744 50.8193C183.756 52.2192 182.749 53.6451 181.493 54.8057C178.632 57.4499 174.782 59.3974 170.954 60.1103C167.166 60.8158 163.328 60.7859 159.495 60.756C158.9 60.7513 158.306 60.7467 157.711 60.7448C153.239 60.7303 149.087 59.8373 144.736 58.8931C144.396 58.8192 144.056 58.746 143.715 58.6728C141.908 58.2838 140.101 57.8948 138.314 57.4194C136.681 56.9846 135.226 56.3597 133.725 55.7147C133.302 55.5329 132.875 55.3494 132.439 55.1682C132.226 55.0797 132.001 54.9987 131.772 54.9166C131.142 54.69 130.487 54.4544 129.998 54.026C129.885 53.927 129.779 53.7863 129.67 53.6429C129.384 53.266 129.084 52.8713 128.627 53.1701C128.085 53.5248 127.905 54.6633 127.761 55.5788C127.704 55.9423 127.652 56.2706 127.585 56.5007C126.449 60.4204 124.188 63.9835 120.945 66.493C119.162 67.8721 117.025 68.8592 114.793 69.2154C112.451 69.5892 110.096 69.1792 107.783 68.7762C107.596 68.7437 107.409 68.7112 107.223 68.6791C104.944 68.2873 102.688 67.7752 100.433 67.2632C98.1903 66.7539 95.9476 66.2446 93.682 65.8539C93.3698 65.8 93.0542 65.7563 92.7382 65.7124C91.9914 65.6088 91.242 65.5049 90.5276 65.2664C89.9466 65.0725 89.401 64.7946 88.8551 64.5166C88.4116 64.2908 87.968 64.0648 87.5051 63.8838C87.1564 63.7475 86.8044 63.6234 86.4524 63.4994C85.9662 63.3281 85.4803 63.1568 85.0037 62.9535C84.8805 62.9009 84.7295 62.8466 84.5658 62.7877C83.998 62.5833 83.2769 62.3239 83.0287 61.8921C82.5719 61.0982 83.816 59.7662 84.4499 59.0876C84.5081 59.0252 84.5612 58.9683 84.6074 58.9179C85.8082 57.6062 87.4933 56.2399 89.0248 55.3297C89.3732 55.1226 89.6777 55.0198 90.0529 54.9043C90.1345 54.8793 90.2264 54.8764 90.3192 54.8734C90.4122 54.8704 90.5061 54.8675 90.5917 54.8421C90.6169 54.8348 90.6341 54.7807 90.6521 54.7239C90.6722 54.6607 90.6934 54.5941 90.7279 54.5847C90.9173 54.5334 91.1048 54.4947 91.2924 54.456C91.6167 54.389 91.9413 54.322 92.2772 54.1898C92.6215 54.0541 92.8928 54.0525 93.1945 54.0508C93.352 54.0498 93.5179 54.0489 93.7067 54.0287C94.192 53.9772 94.4691 53.7652 94.7655 53.5386C94.8992 53.4363 95.0368 53.3311 95.1992 53.2363C95.4473 53.0912 95.5321 53.0983 95.7635 53.1178C95.8154 53.1221 95.8748 53.1271 95.945 53.1312C95.9915 53.1338 96.0563 53.1448 96.1279 53.1569C96.3015 53.1864 96.5156 53.2227 96.6088 53.1633C96.6657 53.127 96.6792 53.0314 96.6927 52.9357C96.7075 52.8309 96.7223 52.7259 96.7941 52.6977C96.9894 52.6214 97.1614 52.6884 97.3373 52.757C97.4848 52.8146 97.6351 52.8732 97.8042 52.8492C97.8242 52.8465 97.8372 52.8107 97.8507 52.7736C97.8654 52.733 97.8808 52.6909 97.9064 52.6886C97.9257 52.6869 98.0363 52.6481 98.1489 52.6085C98.2471 52.574 98.3468 52.539 98.3886 52.5277C98.5932 52.4722 98.7895 52.4343 98.9836 52.3968C99.3399 52.3279 99.6885 52.2605 100.067 52.0889C100.35 51.9606 100.611 51.7958 100.872 51.6314C101.103 51.4858 101.333 51.3406 101.578 51.2214C101.69 51.1667 101.824 51.1273 101.959 51.0879C102.136 51.0358 102.314 50.9837 102.441 50.8963C102.756 50.6812 102.979 50.255 102.393 50.255C102.423 50.207 102.461 50.1297 102.505 50.0396C102.647 49.7466 102.855 49.319 103.096 49.3315C103.147 49.3342 103.176 49.5004 103.204 49.6605C103.238 49.8588 103.271 50.0478 103.343 49.9055L103.368 49.8541C103.574 49.3998 103.307 49.1623 103.045 48.9297C102.822 48.7311 102.603 48.5361 102.685 48.2127L102.697 48.1699L102.711 48.2102C102.79 48.4258 102.99 48.4685 103.193 48.5121C103.329 48.5412 103.466 48.5707 103.57 48.6524C103.468 48.2666 103.408 47.9714 103.519 47.5817C103.61 47.2603 103.746 47.1736 103.894 47.0798C103.978 47.0264 104.065 46.9707 104.15 46.8682C104.583 46.3463 104.557 45.7555 103.991 45.3654C103.171 44.8002 101.816 44.9464 100.803 45.0557C100.731 45.0635 100.661 45.0711 100.592 45.0782C100.547 45.083 100.503 45.0875 100.459 45.0917C96.5551 45.4736 92.6791 45.894 88.9 47.0017C84.6377 48.2509 80.4827 49.9865 76.4592 51.8557C75.8495 52.1389 75.2318 52.4161 74.6118 52.6944C71.4541 54.1115 68.2369 55.5553 65.721 57.9606C65.246 57.0289 64.1308 56.7335 63.1474 56.473C62.9509 56.4209 62.7597 56.3703 62.5799 56.3162C61.0762 55.8637 59.5746 55.486 58.0415 55.1467C57.6208 55.0536 57.2008 54.9593 56.7812 54.8651L56.7796 54.8647L56.778 54.8644C54.6593 54.3886 52.549 53.9148 50.393 53.6094C50.2186 53.5847 50.0226 53.5611 49.8123 53.5358C48.5608 53.3854 46.8016 53.1739 46.0685 52.2995C45.5216 51.6469 46.0913 51.1921 46.6547 50.7995C46.6987 50.7688 46.7614 50.7335 46.8309 50.6942C47.0153 50.5901 47.2482 50.4585 47.3116 50.3138C47.4028 50.1058 47.3556 50.0572 47.304 50.0041C47.2571 49.956 47.2067 49.9042 47.2525 49.7264C47.2899 49.5817 47.353 49.5157 47.4254 49.44C47.4762 49.3868 47.5317 49.3288 47.5861 49.2353C47.6424 49.1385 47.6726 49.0309 47.7031 48.9223C47.741 48.7874 47.7793 48.651 47.8688 48.532C47.84 48.8699 47.9016 49.2643 48.1586 49.5122C48.318 49.2862 48.2804 49.0792 48.2454 48.8858C48.2044 48.6599 48.1668 48.4526 48.4505 48.2554C48.9917 49.5956 50.279 47.3216 50.3692 46.6597C50.1832 46.7403 50.1358 46.9085 50.0877 47.0791C50.0578 47.1854 50.0276 47.2926 49.9635 47.3803C49.9635 47.3097 49.9495 47.2228 49.9349 47.1322C49.9088 46.9706 49.8808 46.7969 49.9266 46.6817C50.024 46.437 50.0266 46.4386 50.0851 46.4741C50.1281 46.5003 50.2013 46.5447 50.3646 46.5231C50.4397 46.5132 50.4996 46.5155 50.5545 46.5176C50.6828 46.5225 50.7839 46.5264 50.9875 46.3712C51.1257 46.2658 51.2192 46.126 51.3119 45.9875C51.4385 45.7984 51.5635 45.6115 51.7985 45.5173C51.6125 45.9844 51.5559 46.8707 52.1567 46.0791L52.1541 46.0816C52.1494 46.0833 52.1587 46.0498 52.1726 46.0001C52.2168 45.842 52.307 45.5191 52.1407 45.6316L52.1259 45.6422L52.151 45.6226C52.4351 45.4036 52.6087 45.3681 52.8915 45.6485C52.8252 45.2261 53.0777 44.1432 53.6693 44.2004C53.5322 44.4189 54.3144 44.9292 54.3144 44.0872C54.6935 44.2221 54.6664 44.0726 54.6315 43.8806C54.6114 43.77 54.5888 43.6454 54.6396 43.5528C54.7253 43.397 54.7697 43.3731 54.8473 43.3313C54.8914 43.3075 54.9464 43.278 55.0258 43.2149C55.1548 43.2488 55.2556 43.243 55.3283 43.1976C55.1231 43.3336 54.9091 43.6199 54.9014 43.7161C54.9359 43.6957 55.0153 43.6793 55.1111 43.6596C55.3893 43.6024 55.8056 43.5167 55.6601 43.2197C55.5948 43.0865 55.4678 43.1076 55.3361 43.1925C55.391 43.1551 55.4288 43.0937 55.4497 43.0085C55.522 42.8441 55.6232 42.6988 55.7538 42.5725C55.8346 42.744 55.9153 42.9156 55.9959 43.0872C56.1007 43.0199 56.2386 42.9442 56.3913 42.8605C56.927 42.5667 57.6436 42.1736 57.7417 41.6917C57.6476 41.6564 57.5357 41.6706 57.4303 41.684C57.2305 41.7093 57.054 41.7317 57.0659 41.4088C57.2135 41.392 58.3242 41.2255 57.664 41.0742L57.723 41.0474C57.9983 40.9223 58.2028 40.8293 58.4757 40.8248C58.5176 41.0365 58.6445 41.0989 58.8561 41.012C59.0358 40.9959 59.2114 40.9592 59.3826 40.902C59.7769 40.8014 60.0555 40.6748 60.353 40.398C60.3932 40.3604 60.4383 40.2871 60.4883 40.2058C60.5918 40.0376 60.7161 39.8354 60.8611 39.8468C60.8928 39.8494 60.9116 39.9309 60.9283 40.0038C60.9431 40.0678 60.9563 40.1253 60.9755 40.1167C61.0625 40.0776 61.1228 40.0018 61.1794 39.9307C61.2286 39.8687 61.2751 39.8102 61.3341 39.7826C61.4199 39.7424 61.5061 39.7127 61.5894 39.684C61.8555 39.5923 62.0909 39.5112 62.1811 39.1336C62.7354 39.697 63.3896 38.9645 63.8396 38.4608C63.9373 38.3513 64.0255 38.2526 64.1008 38.1804C64.2183 38.8419 64.926 38.3735 65.291 38.1319C65.3267 38.1083 65.359 38.0869 65.3873 38.0689C66.2409 37.5243 67.1039 37.2397 68.0827 36.9667C70.4 36.3204 72.7163 35.793 75.0792 35.3378C79.6119 34.4647 84.1111 34.3387 88.6939 34.2104ZM100.596 51.1131C100.579 51.0769 100.542 51.05 100.468 50.9963C100.451 50.9837 100.432 50.9696 100.41 50.9535C100.323 51.1656 100.274 51.6049 100.595 51.5908C100.595 51.4523 100.6 51.3563 100.605 51.2867C100.61 51.1952 100.613 51.1494 100.596 51.1131ZM101.5 50.482C101.407 50.6984 101.825 50.9581 101.959 50.9919C101.967 50.922 101.764 49.8682 101.5 50.482ZM49.4483 47.77C49.0404 47.9163 48.8954 47.6884 49.152 47.3166L49.482 47.7573L49.4483 47.77ZM54.0633 43.8453L54.3075 43.7421C54.2903 44.0899 54.1261 44.1135 53.8783 44.1492C53.8282 44.1564 53.7746 44.1641 53.7182 44.1751L54.0633 43.8453ZM56.2882 42.4832C56.0906 42.364 56.062 42.2056 56.2024 42.0081C56.2803 41.8207 56.4426 41.6055 56.6615 41.7645C56.5767 42.0247 56.4522 42.2641 56.2882 42.4832ZM166.621 18.5101C166.556 18.152 166.472 17.6874 166.817 17.5323C167.114 17.3994 167.568 17.7929 167.837 18.0263C167.885 18.0679 167.928 18.1044 167.962 18.132C168.302 18.405 168.66 18.678 169.023 18.9554C170.886 20.3793 172.902 21.9199 173.562 24.1857C173.641 24.4589 173.708 24.7447 173.774 25.0335C174.008 26.0408 174.249 27.083 175.098 27.7456C175.282 27.889 175.447 27.9441 175.619 28.0017C175.737 28.0408 175.857 28.081 175.989 28.1508C176.183 28.2537 176.254 28.3253 176.328 28.4011C176.385 28.4587 176.444 28.5187 176.561 28.5967L176.604 28.6252C177.001 28.8892 177.207 29.0269 177.556 28.4848C178.091 27.6532 177.751 26.5422 177.451 25.5598C177.345 25.2126 177.243 24.8814 177.188 24.5843C176.944 23.2928 177.01 21.9139 177.073 20.5641C177.099 20.0219 177.124 19.4845 177.129 18.9593C178.28 19.9767 178.89 21.3446 179.5 22.7118C179.835 23.4632 180.17 24.2144 180.594 24.9071C181.022 25.6054 181.162 26.2925 181.311 27.0261C181.367 27.3006 181.424 27.5816 181.498 27.8722C181.648 28.4613 181.803 28.7725 182.247 29.1616C182.537 29.4152 182.634 29.6135 182.75 29.8518C182.807 29.9682 182.869 30.094 182.959 30.2405C183.956 31.8458 184.331 28.553 184.34 27.98C184.383 25.3111 184.614 22.6086 185.466 20.0633C186.201 20.9254 186.345 22.4659 186.464 23.7452C186.497 24.0929 186.527 24.4214 186.567 24.7116C186.723 25.8378 186.858 26.9671 186.992 28.0965L186.992 28.0994C187.109 29.0824 187.226 30.0655 187.357 31.0467L187.393 31.3144C187.644 33.182 187.895 35.0507 187.71 36.9369C187.625 37.8098 187.468 38.6732 187.294 39.532C187.256 39.7177 187.229 39.956 187.2 40.2137C187.126 40.8587 187.039 41.6247 186.737 41.9888C186.403 42.3904 185.911 42.2638 185.444 42.1437C185.302 42.107 185.162 42.071 185.03 42.0508C184.269 41.9342 183.482 41.9023 182.706 41.8708L182.705 41.8707C182.501 41.8625 182.299 41.8542 182.097 41.8445C180.047 41.7452 178.002 41.6358 175.96 41.4131C175.487 41.3615 174.998 41.3235 174.504 41.2849C173.342 41.1944 172.151 41.1016 171.066 40.8257C169.763 40.4942 169.713 39.4568 169.66 38.3462C169.643 37.992 169.626 37.6304 169.567 37.2818C169.373 36.1248 169.085 34.9886 168.798 33.8523C168.55 32.8728 168.302 31.8933 168.114 30.9005C167.831 29.4062 167.713 27.8918 167.594 26.3774C167.526 25.5087 167.458 24.64 167.359 23.7751C167.261 22.9223 167.133 22.0737 167.005 21.2251C166.879 20.3949 166.754 19.5646 166.657 18.7302C166.649 18.6653 166.636 18.5904 166.621 18.5101ZM120.69 23.5384C122.39 23.8993 124.04 23.6559 125.639 23.017C126.081 22.8407 126.511 22.5761 126.941 22.3107C127.881 21.7319 128.827 21.1491 129.921 21.4687C130.282 21.5744 130.628 21.72 130.973 21.8658C131.352 22.0255 131.731 22.1855 132.133 22.2934C132.512 22.3952 132.894 22.4877 133.276 22.5801C133.704 22.6839 134.132 22.7876 134.558 22.9047C135.937 23.2842 136.404 23.5149 136.306 24.9842C136.276 25.4345 136.231 25.8393 136.042 26.2325C136.006 26.3066 135.958 26.3576 135.908 26.4094C135.831 26.4912 135.752 26.5747 135.718 26.7535C135.69 26.9072 135.719 27.0807 135.748 27.2553C135.773 27.4058 135.799 27.5571 135.787 27.6973C135.67 29.1341 134.596 30.4429 133.697 31.5374L133.619 31.633C133.577 31.6833 133.537 31.7332 133.496 31.7826C132.451 33.0649 131.275 34.2122 129.659 34.7207C129.055 34.9107 128.427 34.9457 127.806 34.9804C126.785 35.0375 125.784 35.0934 124.944 35.8364C124.307 36.3997 123.681 37.0689 123.072 37.7191C122.838 37.9695 122.606 38.2171 122.378 38.4547L122.374 38.4591C121.822 39.032 120.531 40.3737 121.487 41.1441C119.214 42.5794 115.895 41.2237 114.582 39.0728L114.903 39.1715C115.463 39.2785 115.477 38.9557 115.394 38.5222C115.359 38.3376 115.314 38.2217 115.282 38.1403C115.255 38.0712 115.238 38.0269 115.245 37.9863C115.256 37.9134 115.344 37.8525 115.588 37.6823L115.657 37.6342C116.623 36.9605 117.254 35.8863 117.772 34.8555C118.374 33.6588 118.88 32.4177 119.192 31.113C119.373 30.3541 119.481 29.5875 119.58 28.8148C119.608 28.5929 119.681 28.3505 119.755 28.1065C119.853 27.7823 119.952 27.4552 119.947 27.1693C119.936 26.4445 119.321 26.1619 118.71 25.8811C118.344 25.7129 117.979 25.5453 117.746 25.2838C117.303 24.7863 117.28 24.347 117.958 24.2089C118.51 24.0965 119.201 24.2843 119.773 24.4401C119.865 24.465 119.953 24.4891 120.038 24.511C120.068 24.5188 120.133 24.543 120.213 24.5728C120.424 24.6518 120.742 24.7708 120.814 24.7336C121.082 24.5956 120.955 24.2955 120.829 23.9996C120.76 23.8351 120.69 23.6718 120.69 23.5384ZM129.751 32.2501C131.02 33.02 129.02 33.513 128.281 33.1726C127.284 32.7128 129.043 31.8202 129.751 32.2501ZM132.051 30.5884C134.574 30.0222 133.293 27.225 132.141 25.8488C131.791 26.264 131.705 26.6913 131.799 27.2259C131.824 27.3672 131.897 27.537 131.974 27.716C132.122 28.063 132.285 28.4444 132.144 28.719C131.862 29.2705 131 29.1559 130.292 29.0617C130.014 29.0248 129.76 28.9911 129.574 29.0017C128.459 29.0658 128.167 30.5251 129.285 30.8313C130.046 31.0393 131.204 30.7788 131.984 30.6036L132.051 30.5884ZM134.423 26.3408C135.223 26.339 134.826 28.0381 134.429 28.3283C133.717 28.8491 133.413 26.3429 134.423 26.3408ZM129.15 27.6219C128.221 27.7345 128.43 25.5132 129.276 25.445C130.386 25.3552 130.223 27.492 129.15 27.6219ZM137.419 26.4071C137.153 26.3654 137.068 24.1615 137.179 23.9351C137.493 23.2964 137.449 24.6586 137.442 24.6501L137.444 24.7867C137.445 24.9082 137.449 25.0297 137.452 25.1512C137.463 25.5705 137.475 25.9897 137.419 26.4071Z" fill="#040404"/>
</g>
</svg>
