<svg width="132" height="128" viewBox="0 0 132 128" fill="none" xmlns="http://www.w3.org/2000/svg">
<g id="Vector">
<path fill-rule="evenodd" clip-rule="evenodd" d="M68.5587 7.85439C67.9784 9.43286 67.3985 11.0115 66.8182 12.59C66.4462 13.6015 66.0746 14.6129 65.7028 15.6244C65.5707 15.983 65.4974 16.3509 65.2424 16.5999C64.6413 17.1861 63.5624 17.5592 62.84 17.9716C62.3561 18.2479 61.8719 18.5243 61.388 18.8006C61.1384 18.9432 60.5851 19.1222 60.4102 19.3589C60.2178 19.6196 60.3087 20.0985 60.3087 20.4591V29.4377C62.8087 29.1165 65.3088 28.7954 67.8087 28.4742C64.478 32.4241 61.1474 36.3739 57.8167 40.3238C56.9958 41.2972 55.9992 42.2341 55.3876 43.3667C54.086 45.7775 52.8136 48.2056 51.527 50.6249C50.3293 52.8766 49.1315 55.1286 47.9337 57.3804L58.7092 56.9091C61.499 56.7871 64.3649 56.9705 67.0529 56.1579C69.2688 55.488 71.4845 54.8184 73.7004 54.1485C73.9951 54.0593 74.9131 53.9585 75.122 53.7147C75.3176 53.4864 75.3134 52.6236 75.3688 52.3315C76.4146 46.8065 77.7461 40.7181 80.7986 35.9622C82.9871 32.553 85.9402 29.5682 88.6447 26.5953C89.7003 25.435 90.7743 24.2886 91.7924 23.093C92.0533 22.7868 92.4299 22.4393 92.6024 22.0674C92.7138 21.8271 92.8694 21.3692 92.8003 21.1559C92.7703 21.0634 92.0744 20.7315 91.9747 20.6656C91.2695 20.1999 90.5705 19.7243 89.87 19.251C87.9016 17.9209 85.9351 16.5875 83.9555 15.2752C82.4122 14.2519 80.8732 13.167 79.2453 12.2876C77.558 11.3761 75.6997 10.7346 73.9306 10.0145C72.143 9.2866 70.352 8.56703 68.5587 7.85439Z" fill="#F3961C"/>
<path fill-rule="evenodd" clip-rule="evenodd" d="M129.232 92.1805C128.374 93.0119 126.811 94.1276 125.575 93.6202C124.954 93.3655 124.424 92.806 123.859 92.4453C123.195 92.0213 122.571 91.5972 122.007 91.0322C120.884 89.9044 120.034 88.257 118.707 87.3742C118.261 87.0774 117.391 87.0138 117.081 86.5399C116.943 86.3274 116.93 86.005 116.955 85.7593C117.011 85.2301 117.289 85.2613 116.824 84.8728H117.546C117.56 84.5863 117.282 84.5626 117.074 84.5996C117.171 84.1453 117.269 82.368 116.463 83.1735C115.765 83.8717 116.114 85.0301 115.62 85.7863C115.241 86.3653 114.237 85.8965 114.101 85.2594C114.04 84.9732 114.347 84.5263 114.384 84.2458C114.464 83.6235 114.193 83.0854 113.801 82.6143C112.939 83.2042 113.428 84.425 112.937 85.2C112.493 85.9013 111.503 85.5741 110.827 85.4508C110.016 85.3027 109.1 85.4525 108.324 85.2557C107.153 84.9586 107.59 83.5452 107.474 82.633C107.35 81.6557 106.389 80.2995 106.678 79.3136C106.988 78.255 108.801 78.0263 109.667 77.7694C111.648 77.1822 114.473 77.0693 115.945 75.4255C117.117 76.7679 118.059 78.3049 119.287 79.5972C120.614 80.993 122.031 82.2817 123.304 83.7337C124.63 85.2449 125.998 86.7271 127.276 88.282C127.833 88.9604 128.323 89.6913 128.899 90.3534C129.412 90.942 129.952 91.4835 129.232 92.1805ZM70.3642 66.0737C70.9728 65.7411 71.0502 65.9496 71.0501 66.6347C70.8749 66.3057 70.7011 66.2177 70.3642 66.0737ZM65.2042 79.391V78.1835C65.7909 78.1677 65.4301 79.2006 65.2042 79.391ZM65.0607 81.1894C65.0607 80.6546 65.0467 80.1455 65.1967 79.6254C65.2754 80.1921 65.4258 80.6828 65.0607 81.1894ZM67.5834 117.924C68.1222 117.976 68.9527 117.594 69.4059 118.029C69.8714 118.475 69.8341 119.775 69.9444 120.378C70.1266 121.375 70.2881 122.375 70.4416 123.377C70.5423 124.033 70.6668 124.7 69.9444 124.952C68.8767 125.323 67.3512 124.793 66.2384 124.745C64.0402 124.65 61.8429 124.518 59.6427 124.472C57.5103 124.428 55.373 124.463 53.2503 124.691C52.2914 124.794 51.3537 124.975 50.4046 125.14C49.9044 125.227 48.5639 125.59 48.1121 125.157C47.2619 124.341 48.6753 122.436 49.2832 121.898C50.4114 120.899 52.0158 120.179 53.4305 119.746C54.1865 119.514 55.4469 118.863 56.0424 119.591C56.4993 120.149 56.4811 120.895 57.1359 121.318C58.6529 122.298 57.7653 119.486 56.8173 119.14C57.4539 117.609 58.6672 119.771 59.1704 120.29C59.3495 120.475 59.9319 121.084 60.1848 120.778C60.3742 120.549 59.996 119.727 59.9259 119.503C59.8194 119.164 59.5499 118.647 59.6274 118.279C59.7676 117.613 60.677 117.431 61.2217 117.376C62.0664 117.29 62.8949 117.565 63.7301 117.657C65.0107 117.798 66.3012 117.8 67.5834 117.924ZM59.1024 55.1566C57.4349 55.2931 55.757 55.031 54.0935 55.2455C52.5196 55.4486 51.0365 56.0425 49.5528 56.5881C51.7586 51.271 54.6123 46.4308 58.0906 41.8965C59.8228 39.6382 61.6857 37.3955 63.5574 35.2581C64.4283 34.2638 65.3291 33.3023 66.2283 32.3359C67.0304 31.4737 67.6051 30.0095 68.5677 29.3657C69.3894 28.8161 70.8252 29.2081 71.7357 29.2422C72.7649 29.2807 74.0174 29.3769 75.0211 29.0248C75.7484 28.7696 75.9485 28.0888 75.038 28.0663C73.9642 28.0395 72.908 28.1545 71.8201 28.051C69.0014 27.7834 66.2844 27.3434 63.4428 27.593C62.7918 27.65 61.9349 27.935 61.2961 27.8495C60.8367 27.7876 61.1388 28.025 60.8195 27.6462C60.6972 27.5012 60.5499 27.1605 60.5137 26.968C60.3102 25.8867 60.8879 24.3416 61.0261 23.253C61.154 22.2455 61.0407 21.1382 61.28 20.1571C61.4979 19.2643 62.162 19.1452 62.9799 19.0498C65.2173 18.7887 67.5007 18.6498 69.7482 18.453C74.8775 18.004 80.1697 17.3266 85.2641 18.4362C87.1036 18.8369 89.3467 19.4564 90.9899 20.4485C91.5039 20.7586 92.0223 21.1237 91.8354 21.7662C91.6415 22.4332 90.6909 23.1377 90.2201 23.5771C86.7402 26.8239 83.3793 30.1356 80.9349 34.3015C77.8175 39.6139 76.0286 45.3514 74.9789 51.4389C74.7532 52.7485 74.5436 53.434 73.2326 53.8109C71.8252 54.2158 70.4668 54.4789 69.0074 54.602C65.7086 54.8805 62.3996 54.8862 59.1024 55.1566ZM60.2197 19.9758C59.9669 21.9096 59.6247 23.8392 59.591 25.7882C59.5782 26.5244 59.5104 26.8932 58.7487 27.0574C57.8508 27.2509 56.9379 27.3951 56.0358 27.5959C51.6823 28.5656 47.411 29.7565 43.1517 31.097C39.0123 32.4001 34.9409 33.866 30.7085 34.8313C28.8879 35.2466 26.7575 35.5264 25.0993 36.4458C23.3154 37.4352 23.5501 39.0572 23.39 40.8388C23.1761 43.2191 22.4893 45.5239 22.2478 47.9033C22.1323 49.0402 22.0271 50.184 22.0445 51.3281C22.0593 52.3034 22.1952 53.3818 21.5574 54.2025C20.2777 52.4442 19.6711 50.2327 19.4189 48.0777C19.2963 47.0301 19.3449 45.9741 19.3098 44.9217C19.2815 44.0743 19.2999 42.7265 18.7629 42.0189C17.5955 40.4811 16.0773 46.6439 15.9329 47.302C15.6901 48.4097 15.4899 49.5266 15.248 50.6345C15.1408 51.1255 15.0031 52.9106 14.363 53.0885C13.0364 53.4573 13.3276 49.6261 13.3066 49.0428C13.2646 47.8653 13.2361 46.6865 13.2629 45.5081C13.2824 44.6575 13.4426 43.7344 13.3475 42.8834C13.1141 40.7939 11.9709 42.9954 11.6495 43.7731C10.8374 45.7366 10.4701 47.8383 9.74188 49.8332C9.62075 50.1651 9.33613 51.2822 8.88519 51.303C8.38344 51.326 8.38738 50.1722 8.35869 49.8352C8.19219 47.8813 7.62988 45.9411 7.79957 43.967C7.97094 41.9736 8.65082 39.9244 9.61288 38.1906C11.6469 34.5249 15.32 32.4201 18.8383 30.5029C22.8646 28.3091 27.1154 26.5758 31.457 25.1639C36.6785 23.4657 42.0399 22.0917 47.4335 21.1139C50.1776 20.6165 52.964 20.2608 55.7362 19.9756C56.7104 19.8754 57.6851 19.8168 58.6467 19.6262C59.0097 19.5541 60.3194 19.2117 60.2197 19.9758ZM63.0245 13.7176C61.6488 13.7288 60.2435 13.0433 58.9033 12.76C57.3076 12.4224 55.7493 11.9339 54.1565 11.5814C51.0374 10.8913 47.9167 10.2184 44.8004 9.51307C43.4476 9.20685 42.0882 8.94034 40.7407 8.61138C39.299 8.2595 37.7414 7.86714 36.2658 8.2462C34.0291 8.82086 33.0843 11.3359 32.2631 13.2986C31.6829 14.685 31.2284 16.2303 30.3238 17.4367C30.0016 17.8668 29.5438 18.3798 28.9597 18.2404C27.8746 17.9818 28.0469 16.5061 28.1851 15.6903C28.3854 14.5065 28.6691 13.3366 28.8961 12.1582C28.9876 11.6826 29.6968 8.56976 28.4307 9.05172C27.4916 9.4092 26.9947 11.7637 26.6392 12.6047C26.375 13.2296 26.0951 13.8505 25.7986 14.4601C25.403 15.2731 24.2743 17.9897 23.0246 17.6394C21.2362 17.138 22.9516 12.3058 23.2563 11.2873C23.4236 10.7283 25.2414 6.48851 23.7071 6.835C23.0536 6.98281 22.4171 8.23021 22.0839 8.74724C21.4931 9.66434 20.9041 10.588 20.348 11.5276C19.7759 12.4941 19.4838 13.5941 18.9164 14.5464C18.6179 15.0477 18.0088 15.7156 17.414 15.2515C16.4868 14.5287 17.0364 12.0142 17.1988 11.0634C17.5008 9.29569 18.2512 7.48346 19.2808 6.03834C20.8278 3.8669 23.747 3.16525 26.2017 2.74341C29.3703 2.19882 32.5829 2.34778 35.7648 2.66999C39.3432 3.03248 42.8671 3.42059 46.3944 4.16175C49.9492 4.90869 53.5059 5.64965 57.0059 6.63747C58.6548 7.10286 60.3273 7.51545 61.9528 8.06178C63.6808 8.64241 65.3671 9.36507 67.1433 9.78344C66.5186 11.3858 65.8936 12.9882 65.2689 14.5907C64.6709 13.9827 63.8547 13.7106 63.0245 13.7176ZM93.6476 18.1331C94.1954 17.8252 94.8007 17.6799 95.0006 16.9992C95.1774 16.3978 94.8753 15.7163 94.7309 15.139C94.3271 13.5226 94.2207 11.8481 94.5781 10.2126C94.9197 10.7485 96.1985 12.8099 96.9762 11.5619C97.4454 10.8092 96.1884 9.72639 95.8214 9.19722C96.6266 8.68654 97.7765 7.316 98.7042 8.14252C99.3039 8.6769 99.5577 9.19144 100.366 9.45121C101.346 9.76667 102.27 9.6944 103.272 9.6073C103.973 9.5464 104.142 9.45024 104.416 10.0052C104.631 10.4415 104.742 10.9815 104.868 11.45C105.115 12.3736 105.688 14.1936 105.01 15.0588C104.415 15.8167 102.108 15.1669 101.787 16.1453C101.612 16.6789 102.446 16.698 102.765 16.962C103.16 17.2888 103.486 17.809 103.701 18.2736C103.86 18.6172 104.101 19.1849 103.831 19.5362C103.457 20.0222 102.765 19.6536 102.464 19.3003C102.064 18.8311 101.934 18.1896 101.601 17.6785C100.989 16.7408 100.952 17.4868 100.785 18.1601C100.612 18.8596 100.203 18.8114 99.5756 18.9012C98.4751 19.0591 97.3631 19.2816 96.2919 19.5848C95.7429 19.7401 95.2107 19.938 94.6878 20.1693C94.3509 20.318 93.7668 20.7688 93.4012 20.7731C92.7237 20.7809 92.2541 19.6164 91.9044 19.1306C92.4851 18.7974 93.0641 18.4611 93.6476 18.1331ZM130.028 89.4396C128.336 87.3522 126.871 85.0844 125.201 82.9787C123.555 80.9019 121.65 79.086 119.802 77.205C118.93 76.3171 118.095 75.3432 117.132 74.5566C116.414 73.9696 115.861 73.9605 114.998 74.2205C112.543 74.9593 110.044 75.8487 107.721 76.9512C105.558 77.9779 103.588 79.2962 101.243 79.8688C98.8486 80.4532 96.3592 80.6409 93.9054 80.496C91.3884 80.3475 89.0144 79.8092 86.6208 79.0181C84.3539 78.2689 81.9903 77.6146 80.0516 76.1296C78.0191 74.5729 76.4488 72.3339 74.9938 70.2279C74.2571 69.1619 73.5258 68.0422 73.0295 66.834C72.5988 65.7854 72.3174 64.5479 71.5445 63.6932C71.3549 63.9694 71.1191 64.2062 71.0227 64.5305C70.9788 64.6779 71.2372 64.6733 71.2107 64.7905C71.1607 65.0111 70.8749 65.2362 70.7088 65.3563C70.112 65.7879 70.1084 65.4443 70.265 66.2516C70.3561 66.7222 70.1836 67.7838 69.437 67.437C69.7119 67.7752 69.2752 68.202 69.1325 68.4807C69.0344 68.3648 68.9124 68.3246 68.7665 68.3594C69.0395 68.9183 68.8783 68.9331 68.6137 69.3769C68.5653 69.4581 68.3941 69.8826 68.4187 69.8468C68.1483 70.2426 67.8359 70.3422 67.6782 70.8352C67.5487 71.24 67.5819 71.6852 67.4375 72.0895C67.2629 71.8415 67.0884 71.5935 66.9138 71.3457C66.9494 71.5407 67.0207 71.8294 67.1036 72.0063C67.1557 72.1169 67.3792 72.3751 67.3762 72.4354C67.364 72.6609 67.0903 72.6067 67.0123 72.8012C66.8658 73.166 67.0775 73.2197 66.9976 73.5757C66.9061 73.9842 66.6605 73.8208 66.5437 74.169C66.5216 74.2351 66.6941 74.4953 66.6667 74.6379C66.6283 74.8395 66.4505 74.9522 66.3877 75.1314C66.2279 75.5874 66.2861 75.9211 66.0642 76.3584C65.9784 76.528 65.8533 76.6409 65.7927 76.8336C65.7397 77.0032 65.8539 77.3641 65.7515 77.516C65.2569 78.2481 65.3264 76.987 65.3639 76.6742C65.6787 74.0482 66.6888 71.338 67.6132 68.8834C68.0726 67.664 68.5197 66.4063 69.0956 65.2383C69.3273 64.7679 69.5949 64.2825 69.9779 63.9227C70.4624 63.4675 71.1498 63.2854 71.5886 62.7771C71.5194 62.8572 72.0642 62.3273 71.9771 62.5015C72.0551 62.3458 71.9189 62.135 71.9673 61.9843C72.0275 61.7972 72.1413 61.7578 72.2681 61.594C72.4959 61.3 72.7664 61.1535 72.4087 60.7789C72.9397 60.6582 73.1936 60.4811 73.2997 59.8967C73.3771 59.469 73.2207 59.497 73.4938 59.212C73.7677 58.9256 73.9064 59.1491 74.0791 58.6533C74.2856 58.06 74.4226 57.2531 74.5464 56.6322C74.6544 56.0901 74.3922 55.2929 74.8368 54.9101C75.3999 54.4255 75.9037 54.6307 75.8028 53.656C75.7044 52.7057 75.9916 52.1301 76.2804 51.231C76.8566 49.4359 77.0793 47.5406 77.5844 45.7241C78.6628 41.8476 80.5676 38.3524 82.6158 34.9402C84.5084 31.7871 87.1544 29.1007 89.7095 26.5136C90.4091 25.805 91.1009 25.0862 91.7291 24.3094C92.2702 23.6405 92.5173 22.7298 93.0374 22.0948C93.3534 21.7092 93.9416 21.5442 94.3827 21.3398C95.1185 20.9987 95.9952 20.5537 96.8257 20.6227C96.4957 21.766 96.3881 23.1021 97.3619 23.9594C98.5434 24.9995 99.6142 23.919 100.697 23.326C102.671 22.2451 105.494 23.2374 107.216 21.6173C107.626 21.2315 107.74 20.615 108.166 20.2546C108.479 19.9904 108.924 19.9234 109.276 19.7264C110.346 19.1281 110.865 18.0327 110.448 16.8227C110.068 15.7165 109.476 15.3329 110.793 14.7723C111.861 14.3175 112.268 13.6322 111.784 12.4122C111.323 11.249 110.478 11.1151 109.678 10.3539C108.904 9.61655 109.794 8.75842 110.374 8.20496C111.122 7.49098 111.265 6.84752 110.397 6.10502C109.489 5.32763 108.193 5.35481 107.134 5.73926C105.936 6.17382 105.148 6.89628 104.641 8.06698C104.125 9.25888 102.846 8.92627 101.81 8.59404C100.82 8.27646 100.562 7.59119 99.9116 6.8533C99.1882 6.03256 97.7139 6.7344 96.8607 7.10941C94.7592 8.03249 92.6709 9.48936 92.5874 12.0699C92.5377 13.6087 93.1709 14.9166 93.5002 16.361C93.8013 17.6818 91.7367 17.5777 91.3792 18.8554C87.5652 16.7803 83.3178 16.1453 79.0544 16.0041C74.5231 15.8537 69.9266 15.7333 65.4339 16.4679C66.4767 14.6006 67.0274 12.5528 67.9347 10.6344C68.1959 10.0821 68.3084 10.1293 68.8848 10.2962C69.992 10.6167 71.0909 10.9753 72.1959 11.3054C76.2324 12.5114 80.1896 13.9644 84.0926 15.5558C84.4719 15.7106 85.3188 16.1401 85.6512 15.673C86.0349 15.1344 85.1474 14.4703 84.7882 14.1993C83.2166 13.0144 81.269 12.2952 79.5089 11.4639C75.6609 9.64681 71.3997 8.78424 67.3846 7.43471C58.7167 4.52076 49.7493 2.3077 40.7414 0.846008C38.5432 0.489305 36.3215 0.437082 34.1137 0.1723C32.1581 -0.0622258 30.1989 -0.0568297 28.2434 0.185405C24.6318 0.633066 20.4448 1.59892 18.4049 4.99675C16.5635 8.06467 15.3343 11.514 15.8041 15.1531C15.9453 16.2461 16.3957 17.5405 17.708 17.2588C18.6183 17.0634 19.1017 16.2685 19.5243 15.4926C20.1629 14.3206 20.7937 13.1485 21.4858 12.0079C21.7424 13.7182 20.8096 15.3999 20.9563 17.1422C21.056 18.3245 21.6916 20.1924 23.1851 19.8576C25.232 19.399 26.0744 16.1124 27.0586 14.5356C27.1085 15.7501 26.6943 16.947 26.8211 18.1641C26.9461 19.3664 27.8602 20.5015 29.144 20.3367C30.3549 20.1814 31.1418 18.8481 31.6561 17.8442C32.3718 16.4473 32.8859 14.9496 33.5849 13.5434C34.2401 12.2252 35.0161 10.656 36.5802 10.4084C37.9762 10.1872 39.5759 10.6992 40.9548 10.9104C44.7796 11.4962 48.5274 12.4937 52.3104 13.2996C56.3666 14.1635 60.5186 14.6882 64.4497 16.0823C63.0674 18.0159 59.4502 17.5981 57.3911 17.8057C54.2793 18.1194 51.1276 18.3555 48.0335 18.8184C44.9776 19.2755 41.9857 20.087 38.9536 20.6761C35.9375 21.2621 32.9266 21.8491 30.0082 22.8485C24.5896 24.7041 19.0807 27.0524 14.3066 30.2901C12.0853 31.7967 10.112 33.5186 8.73988 35.8966C7.35894 38.2894 6.69538 40.9953 6.44225 43.7477C6.28475 45.4617 6.55231 46.9449 6.87538 48.613C7.10938 49.8207 7.18513 51.8428 8.12731 52.7271C9.92563 54.4151 11.4187 47.5685 11.7508 46.7416C11.9898 48.0967 11.5989 55.7311 14.4843 55.1102C15.7721 54.8333 16.0642 53.0166 16.2778 51.9224C16.6674 49.9277 17.0163 47.8929 17.6827 45.9718C18.1104 48.5602 18.2887 51.257 19.2101 53.7292C19.8221 55.3711 21.5683 58.2845 22.7857 55.4736C23.6988 53.3656 23.3855 50.9461 23.495 48.708C23.6163 46.2279 24.3091 43.8356 24.5544 41.3797C24.6494 40.4283 24.5634 39.3561 25.4936 38.8369C26.2921 38.3914 27.4599 38.2463 28.3318 37.9975C30.9142 37.2606 33.5135 36.5832 36.0837 35.8014C38.6551 35.019 41.1909 34.105 43.7279 33.2129C46.1544 32.3598 48.6318 31.8747 51.0877 31.1442C52.484 30.7287 53.8634 30.2942 55.2793 29.9473C55.9381 29.786 56.6051 29.6603 57.2624 29.4933C57.7497 29.3695 58.3917 28.9026 58.8927 28.9109C59.4084 28.9196 59.6022 29.3682 60.1934 29.4035C60.83 29.4412 61.4772 29.2969 62.1102 29.247C63.6524 29.1254 65.2917 28.9288 66.8304 29.1485C65.9056 30.2758 64.6567 31.0552 63.5621 31.989C62.2996 33.0661 61.0779 34.2291 59.9996 35.5009C57.8298 38.0601 55.7791 40.7652 53.8739 43.5377C51.9946 46.2728 50.4815 49.2657 49.166 52.3236C48.5105 53.8474 47.8741 55.4044 47.4213 57.006C47.2353 57.6639 47.0834 58.3244 46.7476 58.9227C46.4396 59.4715 46.0055 59.9446 46.3696 60.6074C46.6203 60.4461 46.8455 60.2457 47.0722 60.052C46.8102 61.9484 46.2449 63.783 45.9543 65.6737C45.6678 67.5364 45.6794 69.4521 45.698 71.3333C45.737 75.273 46.022 79.1236 46.7996 82.9879C47.5859 86.8955 48.5962 90.7734 49.8701 94.5429C51.0963 98.1724 52.3269 101.979 54.0386 105.399C55.8667 109.053 58.0415 112.895 60.6877 115.987C58.9591 116.715 56.7594 116.579 54.929 116.872C53.0158 117.178 51.3607 117.757 49.7302 118.845C48.0806 119.946 47.1851 121.363 46.9571 123.371C46.7951 124.8 46.3137 126.778 48.1377 127.154C49.4497 127.424 50.9163 126.98 52.2309 126.871C54.5304 126.679 56.8332 126.559 59.1378 126.456C61.4364 126.353 63.7355 126.262 66.0348 126.189C67.1163 126.155 68.1984 126.137 69.2795 126.097C69.764 126.08 70.0578 126.072 70.4922 126.216C70.8357 126.33 70.8106 126.566 71.1931 126.274C71.81 125.802 71.6831 124.316 71.6658 123.662C71.6396 122.653 71.5466 121.633 71.3551 120.643C71.2415 120.055 69.8622 116.264 70.9347 116.104C69.6888 114.697 69.1912 112.688 68.6315 110.924C67.9303 108.714 67.3147 106.511 66.8315 104.238C65.7993 99.3838 65.3431 94.4762 65.3431 89.5092C70.1277 92.5403 75.1901 94.1822 80.8256 94.3652C86.4284 94.5474 92.5839 94.0744 97.9042 92.1587C100.368 91.2715 102.575 90.1064 104.687 88.5368C105.444 87.9743 106.255 86.7001 107.249 86.7219C108.435 86.7481 109.763 87.2094 110.941 87.4067C113.193 87.7841 116.133 87.997 118.04 89.4288C119.075 90.2066 119.818 91.2952 120.742 92.1913C121.445 92.8731 122.375 93.2433 123.073 93.9251C123.826 94.6607 123.527 95.6217 124.775 95.6813C125.843 95.7319 127.013 95.2906 127.933 94.7726C129.77 93.7391 131.725 91.5332 130.028 89.4396Z" fill="#040404"/>
<path fill-rule="evenodd" clip-rule="evenodd" d="M112.377 40.2819C115.065 42.2439 118.147 43.5842 120.956 45.3511C121.659 45.7934 123.849 46.7116 123.827 47.532C123.815 48.0116 123.157 48.6131 122.869 48.9455C122.375 49.515 121.911 50.0904 121.455 50.6928C119.37 53.4514 117.406 56.236 115.146 58.8561C114.805 59.2502 113.78 61.132 113.449 60.1974C113.299 59.7736 113.423 59.2974 113.032 58.9024C112.831 58.6989 112.053 58.5867 112.28 58.1502C112.431 58.22 112.582 58.2899 112.733 58.3595C112.615 58.0107 112.624 57.6286 112.448 57.2988C112.339 57.094 112.125 56.997 112.051 56.7664C111.949 56.4476 112.123 56.0773 112.093 55.7487C112.065 55.4211 111.9 55.1114 111.801 54.8023C111.216 52.97 111.006 51.1229 110.707 49.2324C110.411 47.3618 109.949 45.5498 109.768 43.6584C109.577 41.6605 109.342 39.6668 109.029 37.685C109.588 37.7655 110.017 38.3893 110.412 38.742C111.033 39.2962 111.707 39.7928 112.377 40.2819ZM110.271 59.6235C110.142 59.52 110.042 59.3928 109.97 59.2421C111.287 58.5715 110.492 59.7156 110.271 59.6235ZM109.47 58.1932C108.895 58.3558 108.483 58.3888 108.04 58.146C107.998 58.123 108.047 57.9456 107.971 57.9091C107.905 57.8775 107.804 57.9167 107.747 57.887C107.554 57.7862 107.217 58.007 107.184 57.6212C107.917 57.3907 108.637 56.9654 109.411 56.8938C110.486 56.7943 110.436 57.9192 109.47 58.1932ZM106.954 55.9693C106.171 56.1576 105.525 56.5974 104.693 56.4825C103.912 56.375 103.233 55.9585 102.616 55.4787C104.158 55.0301 105.775 54.9491 107.316 54.5152C107.817 54.3739 108.476 54.0014 109.017 54.1515C109.617 54.3184 109.655 54.8965 109.835 55.4226C108.874 55.6003 107.906 55.7408 106.954 55.9693ZM102.055 53.737C101.302 53.9218 100.533 54.3259 99.9033 53.6285C99.8017 53.516 99.7128 53.6283 99.7248 53.2816C99.7374 52.9161 100.06 52.6806 100.338 52.5518C100.991 52.2493 101.906 52.4449 102.599 52.4004C103.705 52.3297 104.831 52.0934 105.925 51.9115C106.683 51.7856 107.465 51.5062 108.239 51.5613C108.837 51.6039 109.558 52.1275 108.687 52.5094C107.894 52.8575 106.704 52.8041 105.845 52.9548C104.574 53.1776 103.308 53.4291 102.055 53.737ZM101.319 50.0979C101.368 50.149 101.417 50.2 101.466 50.2511C101.458 50.2492 101.754 50.0023 101.833 49.9952C102.214 49.9611 102.598 49.9881 102.98 49.9659C103.861 49.9148 104.748 49.7572 105.613 49.5836C106.317 49.4421 107.035 49.1983 107.76 49.2594C108.388 49.3122 108.454 49.4444 108.495 50.0671C106.892 50.0671 105.242 50.0324 103.667 50.381C102.642 50.6078 101.512 51.2834 100.998 50.0655C101.105 50.0763 101.212 50.0871 101.319 50.0979ZM102.321 47.4618C102.718 47.7729 103.802 47.2556 104.278 47.204C104.795 47.1477 105.282 47.0893 105.783 46.9569C106.227 46.8394 107.697 46.2524 108.038 46.8138C108.561 47.6738 106.445 47.8316 106.109 47.8742C104.703 48.0529 103.243 48.2113 101.874 48.5905C102.023 48.2144 102.172 47.8382 102.321 47.4618ZM104.251 44.5406C104.354 44.9381 107.535 43.4732 107.593 44.5379C107.638 45.3548 104.445 45.7618 103.871 45.6901C104.006 45.3139 104.363 44.9771 104.251 44.5406ZM105.319 42.0417C105.387 41.2399 105.491 41.2445 106.117 41.1689C106.594 41.1113 107.25 40.8238 107.126 41.6979C107.02 42.4464 105.251 42.8509 105.319 42.0417ZM106.456 39.2827C106.607 38.8522 106.946 39.4317 106.953 39.6506C106.972 40.2332 106.542 40.1071 106.128 40.1071C106.243 39.835 106.353 39.5598 106.456 39.2827ZM111.693 36.0512C111.608 35.9468 111.135 35.9069 111 35.8562C110.668 35.7313 110.715 35.4652 110.291 35.7276C110.27 35.7057 110.31 35.5083 110.287 35.4993C110.276 35.4947 109.978 35.3794 109.882 35.3158C109.649 35.1624 109.439 35.0123 109.225 34.8198C108.997 34.6153 108.769 34.3186 108.509 34.1557C108.399 34.0871 108.31 33.9898 108.178 33.9688C107.835 33.9144 107.933 34.16 107.633 34.2087C107.448 34.2388 107.314 34.0172 107.072 34.1127C106.864 34.1952 106.743 34.496 106.65 34.6751C106.312 35.3266 106.051 36.0279 105.72 36.6864C104.027 40.0536 102.104 43.293 100.465 46.6916C99.6749 48.3288 98.8511 49.9775 98.2953 51.7174C97.8946 52.9723 96.9898 54.8056 97.7683 56.0595C98.3343 56.9712 99.4678 57.3649 100.372 57.8055C101.733 58.4684 102.987 59.3348 104.363 59.9775C106.003 60.7439 107.596 61.5455 109.195 62.4014C109.877 62.7664 110.493 63.2921 111.172 63.6378C111.588 63.8492 112.23 63.4884 112.365 63.9731C112.886 63.3244 113.73 63.7569 114.333 63.3002C114.687 63.0315 114.946 62.5023 115.242 62.1715C115.686 61.6754 116.167 61.2152 116.62 60.7279C118.416 58.7921 120.075 56.776 121.709 54.6969C123.271 52.7114 125.094 50.8356 126.413 48.6622C126.937 47.7995 127.032 46.8947 126.686 45.9416C126.434 45.2463 125.826 44.1964 124.957 44.6568C125.287 44.0948 124.017 43.4948 123.631 43.3849C123.625 43.3834 123.55 43.815 123.442 43.8042C123.48 43.8081 123.119 42.8478 122.961 42.7247C122.49 42.3583 121.917 41.9309 121.403 41.6293C120.931 41.3528 120.434 41.2158 119.977 40.9063C119.424 40.5313 118.916 40.0865 118.36 39.714C117.824 39.3544 117.226 38.9293 116.633 38.682C116.119 38.4676 115.657 38.4256 115.195 38.0741C114.622 37.6391 114.123 37.3441 113.463 37.0444C112.892 36.7852 112.101 36.5588 111.693 36.0512Z" fill="#040404"/>
<path fill-rule="evenodd" clip-rule="evenodd" d="M33.757 88.1292C33.862 87.8758 33.9666 87.6224 34.0716 87.3692C34.2014 87.8109 34.2377 88.0306 33.757 88.1292ZM33.8967 89.2998C33.6693 89.3416 33.7589 88.6083 33.7589 88.4805C34.1517 88.7091 33.8264 88.9831 33.8967 89.2998ZM33.5421 87.1844C33.736 87.0666 33.9299 86.9491 34.1237 86.8313C33.8537 87.3455 33.9597 87.0243 34.0711 87.3677C33.8674 87.4278 33.6694 87.3576 33.5421 87.1844ZM32.3931 91.2027C31.6664 93.9128 29.3581 96.0501 26.92 97.1572C25.519 97.7932 24.1416 97.9524 22.6287 97.8814C22.0452 97.8541 21.3586 97.6592 20.797 97.6955C20.3646 97.7234 20.3841 97.7427 20.026 98.1189C19.8676 97.819 19.9823 97.6086 19.6645 97.434C19.2679 97.2162 19.1033 97.4698 18.9066 97.7714C18.6492 97.4972 18.5438 97.354 18.2102 97.1912C18.2207 97.1964 17.8909 97.1834 17.9044 97.1877C17.8448 97.1688 17.4861 96.9318 17.3738 96.8886C16.9129 96.7109 16.3801 96.6379 15.9548 96.3829C15.5828 96.1604 15.2764 95.5354 14.8508 96.0156C14.8504 95.2132 13.7987 94.8804 13.3058 94.4601C12.5356 93.8033 11.9232 92.8309 11.5392 91.8903C11.1297 90.8873 10.993 89.9257 10.8014 88.892C10.6675 88.1697 9.79075 87.1256 10.3172 86.3968C10.4427 86.7024 10.3838 87.0154 10.5921 87.2925C10.7796 86.9212 10.8827 86.5057 10.9675 86.0993C11.0091 85.9002 11.2502 85.3159 11.2229 85.1425C11.1672 84.7875 10.7397 84.7682 10.9767 84.3331C11.4683 84.8829 11.8651 83.9174 11.4936 83.5326C11.3102 83.7451 11.2429 83.9866 11.1584 84.2498C10.675 83.247 12.0128 83.57 11.7201 82.6646C12.2084 82.5681 12.4891 82.4417 12.6747 81.9458C12.8811 81.3941 12.7292 81.2738 13.198 80.9092C13.3593 80.784 13.8152 80.6038 13.8987 80.3976C14.0601 79.9993 13.6493 79.8811 14.0091 79.5079C14.1306 79.727 14.6042 80.1608 14.8636 79.748C14.9155 79.6657 14.6974 79.6073 14.8561 79.4177C15.091 79.1371 15.3539 78.8619 15.7512 78.9209C15.4366 78.1125 17.4469 78.0485 17.9618 77.8577C18.4778 77.6667 18.9156 77.5413 19.4627 77.4969C20.0093 77.4526 20.0365 77.288 20.4993 76.9498C20.5384 77.4337 20.6517 77.3274 20.9864 77.4127C21.0668 77.2709 21.1493 77.2549 21.2337 77.3649C21.3177 77.447 21.4204 77.4856 21.5416 77.4809C21.7253 77.4908 21.9338 77.4661 22.1264 77.4702C22.5784 77.4792 23.0448 77.4405 23.4882 77.4503C23.6026 77.4306 23.7094 77.3898 23.8096 77.3276C23.8514 77.4085 23.8934 77.4896 23.935 77.5707C24.1699 77.601 24.1881 77.9036 24.4771 77.5727C24.5626 77.9934 24.8082 77.7744 25.0677 77.8885C25.3043 77.9928 25.342 78.1593 25.5604 78.2755C25.7041 78.3952 25.858 78.411 26.0226 78.3233C26.1792 78.4426 26.3382 78.5584 26.4994 78.6707C26.7966 78.8432 27.1469 78.9488 27.46 79.0851C27.6683 79.1733 27.8753 79.2652 28.0806 79.3604C28.0868 79.6152 28.198 79.7052 28.414 79.6302C28.6092 79.7981 28.6641 79.7915 28.8535 80.0773C29.2825 80.725 29.6631 81.2282 30.205 81.8071C32.5602 84.3238 33.2837 87.882 32.3931 91.2027ZM33.1159 80.5009C32.0526 79.0375 30.5476 77.3617 29.1951 76.4374C28.5096 75.9688 27.5474 75.1276 26.7091 74.8798C26.5103 74.821 26.3046 74.8171 26.1093 74.7555C25.9583 74.7079 25.8762 74.5487 25.7041 74.52C25.5837 74.4999 25.5704 74.7769 25.4425 74.7514C25.1751 74.6979 25.0056 74.4252 24.8168 74.2546C24.4112 74.9728 24.1911 73.765 23.5956 74.577C22.8869 73.4348 21.2219 73.6846 20.0901 73.7422C19.7545 73.7592 19.5968 73.8819 19.2992 73.9729C19.0223 74.0575 18.9949 74.0357 18.6925 74.0334C17.9393 74.0274 17.2707 74.1247 16.5745 74.4647C15.4049 75.0357 14.3312 75.9254 13.2203 76.6136C11.9787 77.3827 10.8595 78.3616 9.90962 79.4865C6.47575 83.5538 5.55756 89.4905 8.29562 94.2057C12.6447 101.695 23.863 102.495 30.2198 97.4135C35.131 93.4875 37 85.8455 33.1159 80.5009Z" fill="#040404"/>
<path fill-rule="evenodd" clip-rule="evenodd" d="M86.9451 59.4268C86.8231 59.7261 85.6832 59.6253 85.6583 59.2725C85.6212 58.7452 87.1572 58.9067 86.9451 59.4268ZM88.1558 59.2311C88.8017 59.285 89.863 59.736 90.4855 59.4635C91.4356 59.0476 90.4379 58.4093 89.9282 58.2186C89.4096 58.0245 88.6371 58.1276 88.3705 57.5703C88.1699 57.1512 88.6656 55.981 88.0506 56.1691C87.4052 56.3664 87.5929 58.0426 86.5802 57.4776C86.0972 57.208 86.2943 55.5657 85.4852 56.4048C85.2638 56.6343 85.2445 57.0558 84.9512 57.2269C84.652 57.4017 84.2766 57.2196 83.9607 57.2348C83.1242 57.2751 82.8578 58.0792 83.7053 58.3982C84.019 58.5163 85.2014 58.6604 84.4851 59.1873C84.0338 59.5191 83.0312 58.8227 82.6437 59.4004C82.111 60.194 83.5379 60.2119 83.9211 60.4494C84.5706 60.8513 84.0342 61.7904 84.0859 62.4591C84.1652 63.4808 84.7427 63.2673 84.9525 62.4026C85.1305 61.669 84.91 60.613 85.9861 60.9045C87.7384 61.3794 85.0116 63.6658 86.2952 64.2509C87.1137 64.624 87.2296 62.6073 87.2931 62.26C87.5284 60.9783 88.2289 61.2774 89.2902 61.3167C90.5299 61.3626 90.8292 60.4201 89.5163 60.1501C89.0974 60.0639 88.5212 60.1728 88.1575 59.8986C87.9422 59.7365 87.6464 59.1887 88.1558 59.2311Z" fill="#040404"/>
<path fill-rule="evenodd" clip-rule="evenodd" d="M42.3824 101.105C41.3791 100.736 39.7006 100.816 39.4524 102.148C39.3485 102.705 39.5508 103.295 39.9254 103.7C40.3599 104.17 41.0517 104.213 41.0148 103.395C40.9891 102.829 40.4651 102.338 41.3864 102.224C41.9598 102.153 42.8079 102.594 42.8364 103.244C42.9009 104.712 40.4296 104.827 39.5189 104.573C37.7114 104.07 38.2025 102.124 39.4437 101.236C39.7644 101.006 40.6844 100.653 40.7264 100.176C40.7823 99.5443 40.0218 99.6734 39.6491 99.7567C36.9091 100.37 36.3119 105.087 39.1749 105.977C40.475 106.38 42.3059 105.963 43.0895 104.753C43.8241 103.619 43.8341 101.64 42.3824 101.105Z" fill="#040404"/>
<path fill-rule="evenodd" clip-rule="evenodd" d="M6.05348 67.7099C5.19698 68.1336 4.34048 68.5574 3.48417 68.9812C3.20104 68.3585 2.72273 66.6575 2.00461 66.4403C0.842106 66.0886 1.58236 67.9429 1.78298 68.3668C1.94779 68.715 2.33011 69.2546 2.23729 69.6697C2.11279 70.229 1.34517 70.4271 0.943355 70.7155C-0.0509572 71.4297 -0.0430809 72.9296 1.39692 72.294C2.21179 71.9342 3.22073 70.9366 3.84529 72.0693C4.13367 72.5919 4.81692 75.5119 5.53054 73.6023C5.97211 72.4201 3.84679 71.1917 4.89454 70.1916C5.23186 69.8698 5.62673 69.8426 5.96367 69.6576C6.77742 69.2107 6.3186 68.3849 6.05348 67.7099Z" fill="#040404"/>
<path fill-rule="evenodd" clip-rule="evenodd" d="M131.62 25.4028C131.109 25.2108 130.477 24.836 129.91 24.9638C129.307 25.0994 129.064 25.7203 128.625 26.0936C127.433 27.1086 126.739 25.5958 126.083 24.7668C125.465 23.984 124.71 23.794 123.837 24.275C123.489 24.4668 122.024 25.3453 122.279 25.9082C122.463 26.3133 123.187 25.9497 123.434 25.8612C123.97 25.6695 124.468 25.5016 125.016 25.7812C126.044 26.3054 126.311 27.7428 127.555 27.9669C128.842 28.1988 128.884 26.9404 129.802 26.4667C130.418 26.1493 130.847 26.7112 131.441 26.5993C132.007 26.4927 132.268 25.6463 131.62 25.4028Z" fill="#040404"/>
<path fill-rule="evenodd" clip-rule="evenodd" d="M121.232 30.4743C121.687 30.5759 121.984 29.6688 122.269 29.4387C122.742 29.0573 123.561 28.9804 124.042 29.3643C124.982 30.1136 124.658 31.7312 125.996 32.1528C127.191 32.5297 127.755 30.9112 128.761 30.5082C129.346 30.2739 129.989 30.1205 129.76 29.2797C129.603 28.6983 129.138 28.549 128.633 28.7723C127.765 29.1558 127.47 30.7181 126.441 30.746C125.376 30.7749 125.26 29.1972 124.803 28.51C124.106 27.4627 122.674 27.2096 121.86 28.2111C121.614 28.5133 120.366 30.2814 121.232 30.4743Z" fill="#040404"/>
<path fill-rule="evenodd" clip-rule="evenodd" d="M100.184 12.5889C100.817 13.0341 102.079 13.0187 102.662 12.4665C103.255 11.9048 102.463 11.8185 101.98 11.8356C101.608 11.8489 100.912 12.0383 101.124 11.3783C101.312 10.7927 102.346 11.0908 102.432 10.4479C101.654 10.3045 100.797 10.3562 100.221 10.9846C99.8054 11.4388 99.5917 12.1721 100.184 12.5889Z" fill="#040404"/>
</g>
</svg>
